<svg width="104" height="26" viewBox="0 0 104 26" fill="none" xmlns="http://www.w3.org/2000/svg">
<path d="M13.0966 10.9683L12.6445 11.5667L13.0966 10.9683ZM93.9866 10.8909L94.4399 11.4884L93.9866 10.8909ZM102.314 3.90705C102.725 3.96336 103.012 4.34167 102.955 4.75204L102.038 11.4394C101.982 11.8498 101.603 12.1368 101.193 12.0805C100.783 12.0242 100.496 11.6458 100.552 11.2355L101.367 5.29117L95.4231 4.47554C95.0128 4.41923 94.7257 4.04092 94.7821 3.63055C94.8384 3.22018 95.2167 2.93316 95.6271 2.98946L102.314 3.90705ZM4.93489 3.86064C5.26536 4.11037 5.33082 4.58071 5.08109 4.91118C4.83136 5.24165 4.36102 5.3071 4.03055 5.05737L4.93489 3.86064ZM9.33142 9.0631C9.00095 8.81338 8.93549 8.34304 9.18522 8.01257C9.43495 7.6821 9.90529 7.61664 10.2358 7.86637L9.33142 9.0631ZM17.4563 13.109C17.8038 13.3344 17.9027 13.7989 17.6773 14.1464C17.4519 14.4939 16.9874 14.5928 16.6399 14.3673L17.4563 13.109ZM23.4184 18.2298C23.0473 18.0458 22.8956 17.5958 23.0795 17.2247C23.2635 16.8536 23.7135 16.7019 24.0846 16.8858L23.4184 18.2298ZM32.9079 20.4916C33.3016 20.6202 33.5166 21.0436 33.388 21.4374C33.2594 21.8311 32.8359 22.046 32.4422 21.9174L32.9079 20.4916ZM39.9857 23.9079C39.5798 23.8255 39.3175 23.4296 39.4 23.0236C39.4824 22.6177 39.8783 22.3555 40.2842 22.4379L39.9857 23.9079ZM49.7393 23.6583C50.1529 23.6817 50.4691 24.0359 50.4458 24.4495C50.4224 24.863 50.0682 25.1793 49.6546 25.1559L49.7393 23.6583ZM57.4558 25.1485C57.0423 25.1726 56.6875 24.857 56.6633 24.4435C56.6392 24.03 56.9548 23.6752 57.3683 23.651L57.4558 25.1485ZM66.821 22.4125C67.2268 22.3293 67.6232 22.5908 67.7064 22.9966C67.7896 23.4023 67.5281 23.7987 67.1223 23.8819L66.821 22.4125ZM74.6621 21.877C74.2686 22.0064 73.8447 21.7923 73.7153 21.3988C73.586 21.0053 73.8001 20.5814 74.1936 20.4521L74.6621 21.877ZM83.01 16.8294C83.3807 16.6448 83.831 16.7956 84.0157 17.1664C84.2003 17.5372 84.0495 17.9874 83.6787 18.1721L83.01 16.8294ZM90.4498 14.2967C90.1028 14.5228 89.6381 14.4248 89.412 14.0777C89.1859 13.7307 89.2839 13.266 89.631 13.0399L90.4498 14.2967ZM95.8182 8.55986C96.1482 8.3095 96.6187 8.37405 96.8691 8.70404C97.1194 9.03403 97.0549 9.5045 96.7249 9.75485L95.8182 8.55986ZM100.381 6.98115C100.051 7.23151 99.5803 7.16696 99.33 6.83697C99.0796 6.50698 99.1442 6.03651 99.4742 5.78615L100.381 6.98115ZM1.62185 1.35706L4.93489 3.86064L4.03055 5.05737L0.717513 2.55379L1.62185 1.35706ZM10.2358 7.86637L13.5488 10.37L12.6445 11.5667L9.33142 9.0631L10.2358 7.86637ZM13.5488 10.37C14.8261 11.3352 16.1295 12.2482 17.4563 13.109L16.6399 14.3673C15.2832 13.4871 13.9504 12.5535 12.6445 11.5667L13.5488 10.37ZM24.0846 16.8858C26.9544 18.3084 29.9037 19.5103 32.9079 20.4916L32.4422 21.9174C29.3698 20.9139 26.3534 19.6847 23.4184 18.2298L24.0846 16.8858ZM40.2842 22.4379C43.4085 23.0722 46.5688 23.479 49.7393 23.6583L49.6546 25.1559C46.4125 24.9726 43.1808 24.5566 39.9857 23.9079L40.2842 22.4379ZM57.3683 23.651C60.5384 23.4656 63.698 23.0528 66.821 22.4125L67.1223 23.8819C63.9285 24.5367 60.6976 24.9589 57.4558 25.1485L57.3683 23.651ZM74.1936 20.4521C77.1959 19.4651 80.1429 18.2575 83.01 16.8294L83.6787 18.1721C80.7465 19.6326 77.7325 20.8676 74.6621 21.877L74.1936 20.4521ZM89.631 13.0399C90.9561 12.1766 92.2578 11.2611 93.5333 10.2934L94.4399 11.4884C93.1359 12.4778 91.8049 13.4139 90.4498 14.2967L89.631 13.0399ZM93.5333 10.2934L95.8182 8.55986L96.7249 9.75485L94.4399 11.4884L93.5333 10.2934ZM99.4742 5.78615L101.759 4.05259L102.666 5.24759L100.381 6.98115L99.4742 5.78615ZM13.0966 10.9683L12.1923 12.1651L13.0966 10.9683ZM93.9866 10.8909L94.8932 12.0859L93.9866 10.8909ZM102.416 3.16401C103.237 3.27663 103.811 4.03326 103.699 4.85399L101.863 18.2287C101.751 19.0494 100.994 19.6235 100.173 19.5108C99.3526 19.3982 98.7786 18.6416 98.8912 17.8209L100.522 5.93225L88.6338 4.30099C87.8131 4.18838 87.2391 3.43174 87.3517 2.611C87.4643 1.79027 88.2209 1.21622 89.0417 1.32884L102.416 3.16401ZM5.38706 3.26227C6.048 3.76173 6.17891 4.70241 5.67945 5.36335C5.18 6.02429 4.23932 6.15519 3.57838 5.65574L5.38706 3.26227ZM8.87924 9.66147C8.21831 9.16202 8.0874 8.22133 8.58685 7.5604C9.08631 6.89946 10.027 6.76855 10.6879 7.26801L8.87924 9.66147ZM17.8645 12.4798C18.5595 12.9307 18.7574 13.8596 18.3065 14.5546C17.8556 15.2496 16.9267 15.4474 16.2317 14.9965L17.8645 12.4798ZM23.0853 18.9017C22.3431 18.5338 22.0396 17.6338 22.4076 16.8916C22.7755 16.1494 23.6755 15.8459 24.4177 16.2139L23.0853 18.9017ZM33.1408 19.7786C33.9282 20.0358 34.3581 20.8827 34.1009 21.6702C33.8437 22.4577 32.9968 22.8876 32.2093 22.6304L33.1408 19.7786ZM39.8365 24.6429C39.0246 24.478 38.5001 23.6863 38.665 22.8744C38.8298 22.0625 39.6216 21.538 40.4334 21.7029L39.8365 24.6429ZM49.7816 22.9095C50.6087 22.9563 51.2413 23.6647 51.1946 24.4918C51.1478 25.3189 50.4394 25.9515 49.6123 25.9047L49.7816 22.9095ZM57.4996 25.8972C56.6726 25.9455 55.963 25.3143 55.9146 24.4873C55.8663 23.6603 56.4975 22.9506 57.3245 22.9023L57.4996 25.8972ZM66.6704 21.6778C67.4819 21.5114 68.2747 22.0344 68.4411 22.8459C68.6075 23.6575 68.0845 24.4502 67.2729 24.6166L66.6704 21.6778ZM74.8963 22.5895C74.1093 22.8482 73.2616 22.42 73.0029 21.633C72.7441 20.846 73.1724 19.9983 73.9594 19.7396L74.8963 22.5895ZM82.6756 16.1581C83.4171 15.7888 84.3176 16.0905 84.687 16.832C85.0564 17.5735 84.7546 18.4741 84.0131 18.8434L82.6756 16.1581ZM90.8592 14.9251C90.1651 15.3773 89.2358 15.1813 88.7836 14.4871C88.3314 13.793 88.5275 12.8638 89.2216 12.4115L90.8592 14.9251ZM95.3649 7.96236C96.0249 7.46164 96.9658 7.59075 97.4666 8.25073C97.9673 8.91071 97.8382 9.85164 97.1782 10.3524L95.3649 7.96236ZM100.834 7.57865C100.174 8.07937 99.2332 7.95026 98.7325 7.29028C98.2318 6.6303 98.3609 5.68937 99.0209 5.18865L100.834 7.57865ZM2.07402 0.758691L5.38706 3.26227L3.57838 5.65574L0.265342 3.15216L2.07402 0.758691ZM10.6879 7.26801L14.001 9.77159L12.1923 12.1651L8.87924 9.66147L10.6879 7.26801ZM14.001 9.77159C15.2639 10.726 16.5527 11.6287 17.8645 12.4798L16.2317 14.9965C14.86 14.1066 13.5125 13.1627 12.1923 12.1651L14.001 9.77159ZM24.4177 16.2139C27.2549 17.6203 30.1707 18.8085 33.1408 19.7786L32.2093 22.6304C29.1028 21.6157 26.0529 20.3728 23.0853 18.9017L24.4177 16.2139ZM40.4334 21.7029C43.5223 22.33 46.6469 22.7322 49.7816 22.9095L49.6123 25.9047C46.3344 25.7194 43.0669 25.2988 39.8365 24.6429L40.4334 21.7029ZM57.3245 22.9023C60.4589 22.719 63.5827 22.3108 66.6704 21.6778L67.2729 24.6166C64.0438 25.2787 60.7771 25.7055 57.4996 25.8972L57.3245 22.9023ZM73.9594 19.7396C76.9275 18.7638 79.8411 17.57 82.6756 16.1581L84.0131 18.8434C81.0483 20.3202 78.0008 21.5689 74.8963 22.5895L73.9594 19.7396ZM89.2216 12.4115C90.5318 11.5579 91.8188 10.6527 93.08 9.69592L94.8932 12.0859C93.5749 13.0861 92.2293 14.0325 90.8592 14.9251L89.2216 12.4115ZM93.08 9.69592L95.3649 7.96236L97.1782 10.3524L94.8932 12.0859L93.08 9.69592ZM99.0209 5.18865L101.306 3.45509L103.119 5.84509L100.834 7.57865L99.0209 5.18865Z" fill="#7C92A2" fill-opacity="0.53"/>
</svg>
