<svg width="160" height="160" viewBox="0 0 160 160" fill="none" xmlns="http://www.w3.org/2000/svg">
<rect width="160" height="160" rx="80" fill="white"/>
<mask id="mask0_1_1371" style="mask-type:luminance" maskUnits="userSpaceOnUse" x="16" y="16" width="128" height="127">
<path d="M143 16H16V143H143V16Z" fill="white"/>
</mask>
<g mask="url(#mask0_1_1371)">
<path d="M124.2 130.545L124.042 30.466C124.038 28.0601 122.085 26.1127 119.679 26.1165L42.5292 26.238C40.1233 26.2417 38.1759 28.1953 38.1797 30.6012L38.3373 130.68C38.3411 133.086 40.2946 135.034 42.7005 135.03L119.85 134.908C122.256 134.904 124.203 132.951 124.2 130.545Z" fill="url(#paint0_linear_1_1371)"/>
<path d="M119.76 29.9091V130.704H42.7441V29.9091H119.76Z" fill="#EFFAFB"/>
<path d="M109.335 118.63C109.237 121.335 106.812 123.557 103.952 123.453C101.124 123.351 99.1651 121.015 99.5294 118.37C99.8749 115.862 102.207 113.959 104.778 114.004C107.374 114.05 109.428 116.067 109.335 118.63Z" fill="#7984A6"/>
<path d="M103.746 125.381C99.8595 125.225 97.229 121.967 97.7899 118.366L98.4784 118.384C98.0012 121.595 100.363 124.476 103.814 124.609C103.915 124.613 104.016 124.614 104.115 124.613L104.086 125.387C103.974 125.388 103.86 125.386 103.746 125.381Z" fill="#7984A6"/>
<path d="M111.077 118.723L110.354 118.704C110.433 115.614 107.933 113.202 104.82 113.152L104.873 112.551C108.336 112.602 111.14 115.274 111.077 118.723Z" fill="#7984A6"/>
<path d="M107.015 118.568C106.929 119.986 105.647 121.128 104.16 121.081C102.681 121.034 101.622 119.83 101.782 118.429C101.938 117.068 103.194 116.016 104.599 116.047C106.012 116.077 107.097 117.191 107.015 118.568Z" fill="white"/>
<path d="M92.4975 124.962L64.4109 123.538L64.5563 123.248L92.5778 124.652L92.4975 124.962Z" fill="#7984A6"/>
<path d="M89.2879 125.073C88.5376 125.128 87.7996 124.571 87.3713 123.613C87.2902 123.432 87.22 123.232 87.1641 123.018C86.61 124.133 85.6461 124.769 84.6215 124.674C83.436 124.564 82.4358 123.539 81.9525 121.97C81.5572 120.686 81.3306 118.48 82.3966 115.187C82.5921 114.583 82.7419 114.11 82.8565 113.739C82.7262 114.026 82.5862 114.338 82.4469 114.649C81.5113 116.734 80.1712 119.722 79.327 120.894C78.6833 121.787 78.0696 122.269 77.4577 122.358C76.4367 122.505 75.5948 121.55 74.6748 119.239C74.4817 118.754 74.3337 118.382 74.2398 118.238C74.1963 118.309 74.1425 118.407 74.0926 118.497C73.6989 119.209 72.8636 120.72 70.6221 122.303C69.0156 123.438 68.0562 123.818 67.7925 123.423C67.4031 122.838 68.9144 120.783 70.4365 119.431C71.0298 118.904 71.1989 118.669 71.2462 118.585C70.9504 118.633 69.6072 119.366 68.1734 120.779L67.947 120.59C69.3579 119.205 70.9484 118.209 71.447 118.228C71.5678 118.232 71.6414 118.292 71.6488 118.393C71.6591 118.534 71.5664 118.815 70.6391 119.641C69.1285 120.987 67.9277 122.787 68.1589 123.131C68.2764 123.305 68.9525 123.105 70.4807 122.028C72.5954 120.539 73.3584 119.166 73.761 118.442C73.9545 118.094 74.0707 117.885 74.2834 117.834C74.5447 117.773 74.6302 117.984 75.0451 119.014C75.5785 120.338 76.4369 122.14 77.5357 121.977C77.9864 121.912 78.4895 121.5 79.0259 120.758C79.8396 119.634 81.175 116.679 82.1076 114.614C82.4065 113.953 82.6619 113.388 82.855 112.982C83.147 112.369 83.2392 112.195 83.4398 112.202C83.6284 112.209 83.6064 112.356 83.429 112.989C83.3014 113.444 83.0816 114.158 82.7534 115.182C80.909 120.937 82.825 124.093 84.7679 124.271C85.6593 124.353 86.4352 123.796 86.889 122.759C86.941 122.64 86.9947 122.52 87.0499 122.4C86.9096 121.158 87.2411 119.599 88.5206 118.146C89.0064 117.594 89.3597 117.209 89.6032 116.967C89.8629 116.709 90.0748 116.519 90.2473 116.599C90.4715 116.702 90.3488 116.956 89.3762 118.704C88.7816 119.773 88.0427 121.1 87.4608 122.363C87.5147 122.743 87.6163 123.086 87.7486 123.379C88.1522 124.272 88.857 124.784 89.494 124.644C89.9737 124.537 90.3945 124.068 90.7079 123.295L91.0803 123.364C90.5977 124.565 89.9474 124.941 89.4875 125.043C89.4211 125.058 89.3545 125.068 89.2879 125.073ZM89.7891 117.235C89.5876 117.442 89.2756 117.78 88.7912 118.332C87.8222 119.437 87.4474 120.607 87.4195 121.625C87.947 120.559 88.5446 119.491 89.0425 118.602C89.3266 118.094 89.6143 117.58 89.7891 117.235Z" fill="#5C6EA6"/>
<g opacity="0.5">
<path d="M104.323 55.8318L58.4104 55.8951L58.4075 53.7504L104.32 53.687L104.323 55.8318Z" fill="#7984A6"/>
</g>
<path d="M113.889 64.5741L48.8855 64.6638L48.8826 62.5191L113.886 62.4293L113.889 64.5741Z" fill="#D1DBE6"/>
<path d="M113.868 59.8116L48.8646 59.9013L48.8616 57.7565L113.865 57.6668L113.868 59.8116Z" fill="#D1DBE6"/>
<path d="M107.449 69.3442L48.9036 69.425L48.9006 67.2803L107.446 67.1994L107.449 69.3442Z" fill="#D1DBE6"/>
<path d="M114.235 74.3155L58.9416 74.3918L58.9399 73.1576L114.233 73.0812L114.235 74.3155Z" fill="#D1DBE6"/>
<path d="M114.235 76.7575L58.9416 76.8338L58.9399 75.5995L114.233 75.5232L114.235 76.7575Z" fill="#D1DBE6"/>
<path d="M114.235 79.202L58.9416 79.2783L58.9399 78.044L114.233 77.9677L114.235 79.202Z" fill="#D1DBE6"/>
<path d="M114.235 84.1371L58.9416 84.2135L58.9399 82.9792L114.233 82.9029L114.235 84.1371Z" fill="#D1DBE6"/>
<path d="M114.235 86.5818L58.9416 86.6581L58.9399 85.4238L114.233 85.3475L114.235 86.5818Z" fill="#D1DBE6"/>
<path d="M114.235 89.0262L58.9416 89.1026L58.9399 87.8683L114.233 87.792L114.235 89.0262Z" fill="#D1DBE6"/>
<path d="M114.235 94.49L58.9416 94.5663L58.9399 93.332L114.233 93.2557L114.235 94.49Z" fill="#D1DBE6"/>
<path d="M114.235 96.932L58.9416 97.0083L58.9399 95.774L114.233 95.6977L114.235 96.932Z" fill="#D1DBE6"/>
<path d="M114.234 99.3764L58.9414 99.4527L58.9397 98.2185L114.233 98.1422L114.234 99.3764Z" fill="#D1DBE6"/>
<path d="M114.235 104.466L58.9416 104.542L58.9399 103.308L114.233 103.232L114.235 104.466Z" fill="#D1DBE6"/>
<path d="M114.235 106.91L58.9416 106.987L58.9399 105.752L114.233 105.676L114.235 106.91Z" fill="#D1DBE6"/>
<path d="M114.235 109.352L58.9416 109.428L58.9399 108.194L114.233 108.118L114.235 109.352Z" fill="#D1DBE6"/>
<path d="M53.109 31.5315H47.3984H47.3929H47.3274L47.2561 31.5317L47.2434 31.73C47.0756 33.0312 46.0021 34.0096 44.6935 34.0562H44.656V34.1275V34.1987V39.6131H44.7984V34.1904C46.1323 34.0949 47.2122 33.0844 47.385 31.7437L47.3894 31.6738H53.109V31.5315Z" fill="#7984A6"/>
<path d="M109.642 31.5313H115.353H115.358H115.424L115.495 31.5315L115.508 31.7298C115.675 33.031 116.749 34.0095 118.057 34.0561H118.095V34.1273V34.1985V39.613H117.953V34.1902C116.619 34.0948 115.539 33.0842 115.366 31.7436L115.361 31.6737H109.642V31.5313Z" fill="#7984A6"/>
<path d="M53.1088 128.778H47.3982H47.3927H47.3271V128.778L47.2559 128.778L47.2431 128.58C47.0754 127.278 46.0019 126.3 44.6932 126.253H44.6558V126.182V126.111V120.696H44.7981V126.119C46.1321 126.215 47.212 127.225 47.3847 128.566L47.3892 128.636H53.1088V128.778Z" fill="#7984A6"/>
<path d="M109.642 128.778H115.352H115.358H115.423V128.778L115.495 128.778L115.507 128.58C115.675 127.278 116.748 126.3 118.057 126.253H118.095V126.182V126.111V120.696H117.952V126.119C116.618 126.215 115.538 127.225 115.366 128.566L115.361 128.636H109.642V128.778Z" fill="#7984A6"/>
<path d="M62.8051 45.5886H61.3342V48.8688H59.488V39.9083H62.8174C63.876 39.9083 64.6923 40.1442 65.2667 40.616C65.8412 41.0878 66.1284 41.7545 66.1284 42.6161C66.1284 43.2275 65.9961 43.7372 65.7315 44.1454C65.4668 44.5537 65.0657 44.8788 64.5283 45.1209L66.4669 48.7826V48.8688H64.4852L62.8051 45.5886ZM61.3342 44.0931H62.8236C63.2872 44.0931 63.6461 43.9752 63.9005 43.7392C64.1549 43.5033 64.2821 43.1783 64.2821 42.7639C64.2821 42.3414 64.1621 42.009 63.9221 41.7668C63.6821 41.5248 63.3138 41.4038 62.8174 41.4038H61.3342V44.0931Z" fill="#5C6EA6"/>
<path d="M72.9228 44.9855H69.378V47.3856H73.5382V48.8688H67.5317V39.9083H73.5259V41.4038H69.378V43.5392H72.9228V44.9855Z" fill="#5C6EA6"/>
<path d="M76.4676 45.7117V48.8688H74.6213V39.9083H78.1169C78.7897 39.9083 79.3816 40.0314 79.8924 40.2775C80.4032 40.5237 80.796 40.8735 81.071 41.3268C81.3458 41.7802 81.4833 42.2961 81.4833 42.8746C81.4833 43.7526 81.1827 44.445 80.5817 44.9517C79.9806 45.4584 79.1488 45.7117 78.0862 45.7117H76.4676ZM76.4676 44.2162H78.1169C78.6051 44.2162 78.9774 44.1014 79.2339 43.8716C79.4903 43.6418 79.6185 43.3136 79.6185 42.8869C79.6185 42.4479 79.4893 42.093 79.2308 41.8222C78.9723 41.5515 78.6153 41.412 78.16 41.4038H76.4676V44.2162Z" fill="#5C6EA6"/>
<path d="M90.1118 44.5932C90.1118 45.4754 89.9558 46.2488 89.644 46.9134C89.3321 47.578 88.886 48.091 88.3055 48.452C87.7248 48.813 87.0593 48.9935 86.3085 48.9935C85.5658 48.9935 84.9032 48.815 84.3206 48.4581C83.738 48.1011 83.2867 47.5913 82.9667 46.9287C82.6467 46.2662 82.4845 45.504 82.4805 44.6424V44.1994C82.4805 43.3173 82.6395 42.5408 82.9574 41.87C83.2753 41.1992 83.7246 40.6844 84.3052 40.3253C84.8858 39.9664 85.5493 39.7868 86.2961 39.7868C87.0428 39.7868 87.7063 39.9664 88.287 40.3253C88.8675 40.6844 89.3168 41.1992 89.6348 41.87C89.9527 42.5408 90.1118 43.3153 90.1118 44.1932V44.5932ZM88.2409 44.1871C88.2409 43.2476 88.0725 42.5337 87.7362 42.0454C87.3998 41.5572 86.9197 41.313 86.2961 41.313C85.6766 41.313 85.1986 41.5542 84.8622 42.0362C84.5257 42.5183 84.3555 43.225 84.3514 44.1563V44.5932C84.3514 45.5082 84.5196 46.2179 84.856 46.7226C85.1924 47.2272 85.6767 47.4796 86.3085 47.4796C86.9279 47.4796 87.4039 47.2364 87.7362 46.7502C88.0685 46.264 88.2367 45.5554 88.2409 44.624V44.1871Z" fill="#5C6EA6"/>
<path d="M94.7705 45.5886H93.2997V48.8688H91.4534V39.9083H94.7828C95.8414 39.9083 96.6577 40.1442 97.2321 40.616C97.8066 41.0878 98.0937 41.7545 98.0937 42.6161C98.0937 43.2275 97.9615 43.7372 97.6969 44.1454C97.4322 44.5537 97.0311 44.8788 96.4937 45.1209L98.4323 48.7826V48.8688H96.4506L94.7705 45.5886ZM93.2997 44.0931H94.789C95.2526 44.0931 95.6115 43.9752 95.8659 43.7392C96.1203 43.5033 96.2475 43.1783 96.2475 42.7639C96.2475 42.3414 96.1275 42.009 95.8875 41.7668C95.6475 41.5248 95.2792 41.4038 94.7828 41.4038H93.2997V44.0931Z" fill="#5C6EA6"/>
<path d="M105.934 41.4038H103.189V48.8688H101.343V41.4038H98.635V39.9083H105.934V41.4038Z" fill="#5C6EA6"/>
<path d="M56.136 79.75H49.0811V72.6951H56.136V79.75ZM49.4944 79.3367H55.7226V73.1084H49.4944V79.3367Z" fill="#5C6EA6"/>
<path d="M56.136 89.8307H49.0811V82.7758H56.136V89.8307ZM49.4944 89.4174H55.7226V83.1892H49.4944V89.4174Z" fill="#5C6EA6"/>
<path d="M56.136 99.9019H49.0811V92.847H56.136V99.9019ZM49.4944 99.4885H55.7226V93.2603H49.4944V99.4885Z" fill="#5C6EA6"/>
<path d="M56.136 109.984H49.0811V102.93H56.136V109.984ZM49.4944 109.571H55.7226V103.343H49.4944V109.571Z" fill="#5C6EA6"/>
<path d="M81.1854 27.0637C79.1696 27.0637 77.5295 25.5923 77.5295 23.7837C77.5295 21.975 79.1696 20.5036 81.1854 20.5036C83.2012 20.5036 84.8412 21.975 84.8412 23.7837C84.8412 25.5923 83.2012 27.0637 81.1854 27.0637ZM81.1854 22.192C80.2072 22.192 79.4113 22.906 79.4113 23.7837C79.4113 24.6614 80.2072 25.3754 81.1854 25.3754C82.1636 25.3754 82.9594 24.6614 82.9594 23.7837C82.9594 22.906 82.1636 22.192 81.1854 22.192Z" fill="url(#paint1_linear_1_1371)"/>
<path d="M62.3427 35.8788H77.8517C77.9522 35.8788 78.0503 35.847 78.1316 35.788C79.9599 34.4614 82.43 34.4471 84.2736 35.7522L84.3287 35.7912C84.4093 35.8483 84.5055 35.8788 84.6042 35.8788H100.101C101.435 35.8788 102.517 34.7972 102.517 33.4628V28.9762C102.517 27.6418 101.435 26.5601 100.101 26.5601H62.3427C61.0084 26.5601 59.9268 27.6418 59.9268 28.9762V33.4628C59.9268 34.7972 61.0084 35.8788 62.3427 35.8788ZM77.5571 34.9284H62.3427C61.5334 34.9284 60.8771 34.2722 60.8771 33.4628V28.9762C60.8771 28.1668 61.5334 27.5106 62.3427 27.5106H100.101C100.91 27.5106 101.567 28.1668 101.567 28.9762V33.4628C101.567 34.2722 100.91 34.9284 100.101 34.9284H84.898C84.8041 34.9284 84.7128 34.8995 84.6341 34.848C82.5633 33.4925 79.888 33.4948 77.8211 34.848C77.7424 34.8995 77.6511 34.9284 77.5571 34.9284Z" fill="url(#paint2_linear_1_1371)"/>
<path d="M64.3832 29.2508H97.9885C98.6945 29.2508 99.2667 28.6785 99.2667 27.9725V25.5679C99.2667 24.8619 98.6945 24.2896 97.9885 24.2896H64.3832C63.6772 24.2896 63.105 24.8619 63.105 25.5679V27.9725C63.105 28.6785 63.6772 29.2508 64.3832 29.2508Z" fill="url(#paint3_linear_1_1371)"/>
<path d="M47.989 74.2547L52.71 77.5871L61.5964 69.8115" stroke="#2B4483" stroke-width="2.22161" stroke-linecap="round"/>
<path d="M47.989 84.4878L52.71 87.8203L61.5964 80.0446" stroke="#2B4483" stroke-width="2.22161" stroke-linecap="round"/>
<path d="M47.989 94.9056L52.71 98.238L61.5964 90.4624" stroke="#2B4483" stroke-width="2.22161" stroke-linecap="round"/>
<path d="M47.989 105.12L52.71 108.452C52.71 108.452 61.3856 100.861 61.5927 100.68" stroke="#2B4483" stroke-width="2.22161" stroke-linecap="round"/>
</g>
<defs>
<linearGradient id="paint0_linear_1_1371" x1="84.2604" y1="-11.2811" x2="79.1685" y2="140.626" gradientUnits="userSpaceOnUse">
<stop stop-color="#005888"/>
<stop offset="0.56" stop-color="#0E4786"/>
<stop offset="1" stop-color="#1C3785"/>
</linearGradient>
<linearGradient id="paint1_linear_1_1371" x1="81.1622" y1="20.4498" x2="81.0968" y2="25.6142" gradientUnits="userSpaceOnUse">
<stop stop-color="white"/>
<stop offset="0.09" stop-color="#CCCCCC"/>
<stop offset="0.18" stop-color="#999999"/>
<stop offset="0.36" stop-color="#666666"/>
<stop offset="0.53" stop-color="#333333"/>
<stop offset="0.7" stop-color="#808080"/>
<stop offset="0.87" stop-color="#CCCCCC"/>
</linearGradient>
<linearGradient id="paint2_linear_1_1371" x1="81.0542" y1="25.5083" x2="81.2082" y2="37.93" gradientUnits="userSpaceOnUse">
<stop stop-color="white"/>
<stop offset="0.09" stop-color="#CCCCCC"/>
<stop offset="0.18" stop-color="#999999"/>
<stop offset="0.36" stop-color="#666666"/>
<stop offset="0.53" stop-color="#333333"/>
<stop offset="0.7" stop-color="#808080"/>
<stop offset="0.87" stop-color="#CCCCCC"/>
</linearGradient>
<linearGradient id="paint3_linear_1_1371" x1="80.9068" y1="24.3793" x2="80.8525" y2="30.466" gradientUnits="userSpaceOnUse">
<stop stop-color="white"/>
<stop offset="0.09" stop-color="#CCCCCC"/>
<stop offset="0.18" stop-color="#999999"/>
<stop offset="0.36" stop-color="#666666"/>
<stop offset="0.53" stop-color="#333333"/>
<stop offset="0.7" stop-color="#808080"/>
<stop offset="0.87" stop-color="#CCCCCC"/>
</linearGradient>
</defs>
</svg>
