<svg width="160" height="160" viewBox="0 0 160 160" fill="none" xmlns="http://www.w3.org/2000/svg">
<g clip-path="url(#clip0_1_760)">
<rect width="160" height="160" rx="80" fill="white"/>
<g clip-path="url(#clip1_1_760)">
<mask id="mask0_1_760" style="mask-type:luminance" maskUnits="userSpaceOnUse" x="-26" y="-26" width="191" height="191">
<path d="M165 -26H-26V165H165V-26Z" fill="white"/>
</mask>
<g mask="url(#mask0_1_760)">
<path d="M79.8289 92.9373L94.8537 148.366H97.1009L82.0761 92.9373H79.8289Z" fill="#757575"/>
<path d="M79.8289 92.9373L94.8537 148.366H97.1009L82.0761 92.9373H79.8289Z" stroke="#1A2E35" stroke-width="0.373047" stroke-linecap="round" stroke-linejoin="round"/>
<path d="M113.67 134.967H85.1873V132.648H113.67V134.967Z" fill="#999999"/>
<path d="M113.67 134.967H85.1873V132.648H113.67V134.967Z" stroke="#1A2E35" stroke-width="0.373047" stroke-linecap="round" stroke-linejoin="round"/>
<path d="M128.864 80.4746L110.464 148.354H108.217L126.617 80.4746C127.295 77.9711 125.739 75.9365 123.146 75.9365H107.291C104.702 75.9365 102.038 77.9711 101.36 80.4746L82.96 148.354H80.7131L99.1126 80.4746C100.117 76.7695 104.041 73.7672 107.879 73.7672H123.734C127.572 73.7672 129.868 76.7695 128.864 80.4746Z" fill="#757575"/>
<path d="M128.864 80.4746L110.464 148.354H108.217L126.617 80.4746C127.295 77.9711 125.739 75.9365 123.146 75.9365H107.291C104.702 75.9365 102.038 77.9711 101.36 80.4746L82.96 148.354H80.7131L99.1126 80.4746C100.117 76.7695 104.041 73.7672 107.879 73.7672H123.734C127.572 73.7672 129.868 76.7695 128.864 80.4746Z" stroke="#1A2E35" stroke-width="0.373047" stroke-linecap="round" stroke-linejoin="round"/>
<path d="M129.156 80.5027L124.59 97.357C124.213 98.7484 122.739 99.875 121.299 99.875H95.2458C93.8058 99.875 92.9441 98.7484 93.3209 97.357L97.8907 80.5027C98.2675 79.115 99.741 77.9846 101.181 77.9846H127.231C128.671 77.9846 129.533 79.115 129.156 80.5027Z" fill="#8B5434"/>
<path d="M129.156 80.5027L124.59 97.357C124.213 98.7484 122.739 99.875 121.299 99.875H95.2458C93.8058 99.875 92.9441 98.7484 93.3209 97.357L97.8907 80.5027C98.2675 79.115 99.741 77.9846 101.181 77.9846H127.231C128.671 77.9846 129.533 79.115 129.156 80.5027Z" fill="#8B5434" stroke="#1A2E35" stroke-width="0.373047" stroke-linecap="round" stroke-linejoin="round"/>
<path d="M113.841 116.941L122.359 148.368H124.606L116.087 116.941H113.841Z" fill="#757575"/>
<path d="M113.841 116.941L122.359 148.368H124.606L116.087 116.941H113.841Z" stroke="#1A2E35" stroke-width="0.373047" stroke-linecap="round" stroke-linejoin="round"/>
<path d="M116.095 113.328V116.402H82.5508V113.328C82.5508 112.079 83.5617 111.068 84.8114 111.068H113.831C114.875 111.068 115.756 111.773 116.017 112.735C116.069 112.922 116.095 113.123 116.095 113.328Z" fill="#8B5434"/>
<path d="M116.095 113.328V116.402H82.5508V113.328C82.5508 112.079 83.5617 111.068 84.8114 111.068H113.831C114.875 111.068 115.756 111.773 116.017 112.735C116.069 112.922 116.095 113.123 116.095 113.328Z" stroke="#1A2E35" stroke-width="0.373047" stroke-linecap="round" stroke-linejoin="round"/>
<path d="M117.236 118.342H81.7043C81.3529 118.342 81.0679 118.057 81.0679 117.705V116.094C81.0679 115.742 81.3529 115.457 81.7043 115.457H117.236C117.587 115.457 117.872 115.742 117.872 116.094V117.705C117.872 118.057 117.587 118.342 117.236 118.342Z" fill="#999999"/>
<path d="M117.236 118.342H81.7043C81.3529 118.342 81.0679 118.057 81.0679 117.705V116.094C81.0679 115.742 81.3529 115.457 81.7043 115.457H117.236C117.587 115.457 117.872 115.742 117.872 116.094V117.705C117.872 118.057 117.587 118.342 117.236 118.342Z" stroke="#1A2E35" stroke-width="0.373047" stroke-linecap="round" stroke-linejoin="round"/>
<path d="M87.1608 141.547L90.2601 149.702C90.2601 149.702 90.7768 151.803 81.4054 151.139L76.2402 150.697L87.1608 141.547Z" fill="#6B6B6B"/>
<path d="M87.1608 141.547L90.2601 149.702C90.2601 149.702 90.7768 151.803 81.4054 151.139L76.2402 150.697L87.1608 141.547Z" stroke="#1A2E35" stroke-width="0.373047" stroke-linecap="round" stroke-linejoin="round"/>
<path d="M87.1608 141.547L90.2601 149.702C90.2601 149.702 90.7768 151.803 81.4054 151.139L76.2402 150.697L87.1608 141.547ZM87.1608 141.547L90.2601 149.702C90.2601 149.702 90.7768 151.803 81.4054 151.139L76.2402 150.697L87.1608 141.547Z" fill="#6B6B6B"/>
<path d="M84.4839 144.887C84.4839 144.887 84.8565 148.107 83.9804 150.398C83.9804 150.398 73.9929 151.042 71.8421 150.253C69.6913 149.463 68.4565 148.243 68.4398 147.684C68.4398 147.684 68.6571 146.183 70.9018 145.943C73.1466 145.703 77.5664 145.811 79.5296 143.471C81.4927 141.131 84.4839 144.887 84.4839 144.887Z" fill="#6B6B6B"/>
<path d="M84.4839 144.887C84.4839 144.887 84.8565 148.107 83.9804 150.398C83.9804 150.398 73.9929 151.042 71.8421 150.253C69.6913 149.463 68.4565 148.243 68.4398 147.684C68.4398 147.684 68.6571 146.183 70.9018 145.943C73.1466 145.703 77.5664 145.811 79.5296 143.471C81.4927 141.131 84.4839 144.887 84.4839 144.887Z" fill="#6B6B6B" stroke="#1A2E35" stroke-width="0.373047" stroke-linecap="round" stroke-linejoin="round"/>
<path d="M82.5504 116.897C80.9426 118.535 88.7355 144.267 88.7355 144.267C87.885 145.006 86.6315 145.357 85.4452 145.513C83.7292 145.741 82.1587 145.562 82.1587 145.562C82.1587 145.562 70.9897 118.471 74.0636 111.749C77.1375 105.027 96.2114 101.949 96.2114 101.949L97.0246 99.9345L106.892 98.5468L108.522 110.63C108.522 110.63 106.903 110.786 104.467 111.1C97.9348 111.939 85.5049 113.89 82.5504 116.897Z" fill="#1A2E35"/>
<path d="M82.5504 116.897C80.9426 118.535 88.7355 144.267 88.7355 144.267C87.885 145.006 86.6315 145.357 85.4452 145.513C83.7292 145.741 82.1587 145.562 82.1587 145.562C82.1587 145.562 70.9897 118.471 74.0636 111.749C77.1375 105.027 96.2114 101.949 96.2114 101.949L97.0246 99.9345L106.892 98.5468L108.522 110.63C108.522 110.63 106.903 110.786 104.467 111.1C97.9348 111.939 85.5049 113.89 82.5504 116.897Z" stroke="#1A2E35" stroke-width="0.373047" stroke-linecap="round" stroke-linejoin="round"/>
<path d="M82.5504 116.897C80.9426 118.535 88.7355 144.267 88.7355 144.267C87.885 145.006 86.6315 145.357 85.4452 145.513C83.7292 145.741 82.1587 145.562 82.1587 145.562C82.1587 145.562 70.9897 118.471 74.0636 111.749C77.1375 105.027 96.2114 101.949 96.2114 101.949L97.0246 99.9345L106.892 98.5468L108.522 110.63C108.522 110.63 106.903 110.786 104.467 111.1C97.9348 111.939 85.5049 113.89 82.5504 116.897ZM88.7355 144.267C87.885 145.006 86.6315 145.357 85.4452 145.513C83.2778 137.456 77.7605 115.953 79.8533 113.323C82.431 110.078 95.1892 107.127 95.1892 107.127C95.2414 105.471 99.7143 103.978 99.7143 103.978L104.467 111.1C97.9348 111.939 85.5049 113.89 82.5504 116.897C80.9426 118.535 88.7355 144.267 88.7355 144.267Z" fill="black"/>
<g opacity="0.1">
<path d="M77.0305 92.5264C75.3913 92.2436 87.0502 82.0236 87.0502 82.0236L92.6705 85.8074C92.6705 85.8074 83.1045 92.5432 81.6018 92.7278C80.0992 92.9125 77.0305 92.5264 77.0305 92.5264Z" stroke="black" stroke-width="0.746094"/>
<path d="M77.0305 92.5267C75.3913 92.2439 87.0502 82.0239 87.0502 82.0239L92.6705 85.8077C92.6705 85.8077 83.1045 92.5434 81.6018 92.7281C80.0992 92.9128 77.0305 92.5267 77.0305 92.5267Z" fill="white"/>
<path d="M77.0305 92.5267C75.3913 92.2439 87.0502 82.0239 87.0502 82.0239L92.6705 85.8077C92.6705 85.8077 83.1045 92.5434 81.6018 92.7281C80.0992 92.9128 77.0305 92.5267 77.0305 92.5267ZM77.0305 92.5267C75.3913 92.2439 87.0502 82.0239 87.0502 82.0239L92.6705 85.8077C92.6705 85.8077 83.1045 92.5434 81.6018 92.7281C80.0992 92.9128 77.0305 92.5267 77.0305 92.5267Z" fill="black"/>
</g>
<path d="M76.7195 92.0782C75.0901 91.7438 87.0663 81.8976 87.0663 81.8976L92.5642 85.8573C92.5642 85.8573 82.7899 92.2871 81.2822 92.4242C79.7744 92.5612 76.7195 92.0782 76.7195 92.0782ZM76.7195 92.0782C75.0901 91.7438 87.0663 81.8976 87.0663 81.8976L92.5642 85.8573C92.5642 85.8573 82.7899 92.2871 81.2822 92.4242C79.7744 92.5612 76.7195 92.0782 76.7195 92.0782ZM76.7195 92.0782C75.0901 91.7438 87.0663 81.8976 87.0663 81.8976L92.5642 85.8573C92.5642 85.8573 82.7899 92.2871 81.2822 92.4242C79.7744 92.5612 76.7195 92.0782 76.7195 92.0782Z" fill="#EB996D" stroke="black" stroke-width="0.373047"/>
<path d="M78.3184 87.8114C78.3184 87.8114 80.716 88.5815 81.4258 89.1519C82.1357 89.7222 81.8025 91.5427 81.8025 91.5427C81.8025 91.5427 78.6077 90.3946 78.3184 87.8114Z" fill="#FDBD96"/>
<path d="M78.3184 87.8114C78.3184 87.8114 80.716 88.5815 81.4258 89.1519C82.1357 89.7222 81.8025 91.5427 81.8025 91.5427C81.8025 91.5427 78.6077 90.3946 78.3184 87.8114Z" stroke="#1A2E35" stroke-width="0.373047" stroke-linecap="round" stroke-linejoin="round"/>
<path d="M77.0681 83.0428L81.016 92.0393L81.553 92.0754L77.8607 82.6649L77.0681 83.0428Z" fill="#1A2E35"/>
<path d="M80.7319 89.6061C80.7319 89.6061 78.0099 87.3815 77.3113 87.3345C76.6126 87.2876 74.35 89.6235 74.2668 90.8626C74.1836 92.1017 78.7054 93.0974 79.671 92.1031C80.151 91.6089 79.352 90.2847 79.352 90.2847C79.352 90.2847 80.588 91.75 80.9552 91.9822C81.3225 92.2143 82.0396 91.9911 82.0396 91.9911C82.0396 91.9911 81.1885 90.4077 80.7319 89.6061Z" fill="#EB996D"/>
<path d="M80.7319 89.6061C80.7319 89.6061 78.0099 87.3815 77.3113 87.3345C76.6126 87.2876 74.35 89.6235 74.2668 90.8626C74.1836 92.1017 78.7054 93.0974 79.671 92.1031C80.151 91.6089 79.352 90.2847 79.352 90.2847C79.352 90.2847 80.588 91.75 80.9552 91.9822C81.3225 92.2143 82.0396 91.9911 82.0396 91.9911C82.0396 91.9911 81.1885 90.4077 80.7319 89.6061Z" stroke="#1A2E35" stroke-width="0.373047" stroke-linecap="round" stroke-linejoin="round"/>
<path d="M79.2125 92.3647C79.2125 92.3647 78.2223 90.8811 76.9651 90.1215" stroke="#1A2E35" stroke-width="0.373047" stroke-linecap="round" stroke-linejoin="round"/>
<path d="M79.3522 90.2777C79.3522 90.2777 78.4201 89.3484 77.7659 89.1131" stroke="#1A2E35" stroke-width="0.373047" stroke-linecap="round" stroke-linejoin="round"/>
<path d="M76.1628 91.166C76.1628 91.166 77.7079 92.1151 78.0811 92.4995" stroke="#1A2E35" stroke-width="0.373047" stroke-linecap="round" stroke-linejoin="round"/>
<path d="M90.7763 77.5243C89.2885 78.5206 82.5784 85.1634 82.5784 85.1634C82.5784 85.1634 85.5964 88.7295 88.2897 89.2906L95.6859 85.8723L90.7763 77.5243Z" fill="#8956BC"/>
<path d="M90.7763 77.5243C89.2885 78.5206 82.5784 85.1634 82.5784 85.1634C82.5784 85.1634 85.5964 88.7295 88.2897 89.2906L95.6859 85.8723L90.7763 77.5243Z" stroke="#1A2E35" stroke-width="0.373047" stroke-linecap="round" stroke-linejoin="round"/>
<g opacity="0.4">
<path d="M90.7763 77.5243C89.2885 78.5206 82.5784 85.1634 82.5784 85.1634C82.5784 85.1634 85.5964 88.7295 88.2897 89.2906L95.6859 85.8723L90.7763 77.5243Z" fill="white"/>
<path d="M90.7763 77.5243C89.2885 78.5206 82.5784 85.1634 82.5784 85.1634C82.5784 85.1634 85.5964 88.7295 88.2897 89.2906L95.6859 85.8723L90.7763 77.5243Z" stroke="#1A2E35" stroke-width="0.373047" stroke-linecap="round" stroke-linejoin="round"/>
</g>
<path d="M99.0549 99.3259C102.356 94.921 116.702 100.802 116.702 100.802C116.702 100.802 117.744 111.688 111.87 114.397C105.996 117.105 97.6631 116.687 95.3368 118.961L85.3144 145.735C85.3144 145.735 81.98 147.008 77.2596 144.688C77.2596 144.688 83.7263 124.434 85.6632 117.233C87.5798 110.107 98.672 105.577 98.672 105.577C98.672 105.577 97.7847 104.507 97.4838 103.271" fill="black"/>
<path d="M99.0549 99.3259C102.356 94.921 116.702 100.802 116.702 100.802C116.702 100.802 117.744 111.688 111.87 114.397C105.996 117.105 97.6631 116.687 95.3368 118.961L85.3144 145.735C85.3144 145.735 81.98 147.008 77.2596 144.688C77.2596 144.688 83.7263 124.434 85.6632 117.233C87.5798 110.107 98.6719 105.577 98.6719 105.577C98.6719 105.577 97.7847 104.507 97.4838 103.271" stroke="#1A2E35" stroke-width="0.373047" stroke-linecap="round" stroke-linejoin="round"/>
<path d="M113.427 110.17C112.95 110.567 112.448 110.935 111.927 111.273" stroke="white" stroke-width="0.373047" stroke-linecap="round" stroke-linejoin="round"/>
<path d="M114.906 101.018C116.009 103.627 115.999 106.899 114.263 109.227" stroke="white" stroke-width="0.373047" stroke-linecap="round" stroke-linejoin="round"/>
<path d="M111.585 101.321C111.585 101.321 111.218 103.293 112.079 104.108C112.939 104.923 115.636 105.41 115.636 105.41" stroke="white" stroke-width="0.373047" stroke-linecap="round" stroke-linejoin="round"/>
<path d="M99.7094 101.305C99.7094 101.305 99.8336 103.283 99.0319 103.189C98.2299 103.094 98.1899 103.98 98.1899 103.98" stroke="white" stroke-width="0.373047" stroke-linecap="round" stroke-linejoin="round"/>
<path d="M90.8945 79.08C90.7733 78.5547 90.7031 78.0425 90.7031 77.5594C90.7031 77.5594 95.1901 73.7853 100.942 73.8051C107.805 73.8286 112.001 75.9874 113.683 78.9867C116.344 83.733 116.716 100.54 116.716 100.54C116.716 100.54 99.4947 103.196 97.0233 99.9374C96.595 99.3726 96.9233 95.3676 96.9233 95.3676C96.9233 95.3676 94.995 90.3109 94.588 86.3864C94.588 86.3864 93.8464 85.3874 93.0108 83.9624C92.4598 83.0223 91.8678 81.8972 91.4216 80.7508" fill="#8956BC"/>
<path d="M90.8945 79.08C90.7733 78.5547 90.7031 78.0425 90.7031 77.5594C90.7031 77.5594 95.1901 73.7853 100.942 73.8051C107.805 73.8286 112.001 75.9874 113.683 78.9867C116.344 83.733 116.716 100.54 116.716 100.54C116.716 100.54 99.4947 103.196 97.0233 99.9374C96.595 99.3726 96.9233 95.3676 96.9233 95.3676C96.9233 95.3676 94.995 90.3109 94.588 86.3864C94.588 86.3864 93.8464 85.3874 93.0108 83.9624C92.4598 83.0223 91.8678 81.8972 91.4216 80.7508" stroke="#1A2E35" stroke-width="0.373047" stroke-linecap="round" stroke-linejoin="round"/>
<g opacity="0.6">
<path d="M90.8945 79.08C90.7733 78.5547 90.7031 78.0425 90.7031 77.5594C90.7031 77.5594 95.1901 73.7853 100.942 73.8051C107.805 73.8286 112.001 75.9874 113.683 78.9867C116.344 83.733 116.716 100.54 116.716 100.54C116.716 100.54 99.4947 103.196 97.0233 99.9374C96.595 99.3726 96.9233 95.3676 96.9233 95.3676C96.9233 95.3676 94.995 90.3109 94.588 86.3864C94.588 86.3864 93.8464 85.3874 93.0108 83.9624C92.4598 83.0223 91.8678 81.8972 91.4216 80.7508" fill="white"/>
<path d="M90.8945 79.08C90.7733 78.5547 90.7031 78.0425 90.7031 77.5594C90.7031 77.5594 95.1901 73.7853 100.942 73.8051C107.805 73.8286 112.001 75.9874 113.683 78.9867C116.344 83.733 116.716 100.54 116.716 100.54C116.716 100.54 99.4947 103.196 97.0233 99.9374C96.595 99.3726 96.9233 95.3676 96.9233 95.3676C96.9233 95.3676 94.995 90.3109 94.588 86.3864C94.588 86.3864 93.8464 85.3874 93.0108 83.9624C92.4598 83.0223 91.8678 81.8972 91.4216 80.7508" stroke="#1A2E35" stroke-width="0.373047" stroke-linecap="round" stroke-linejoin="round"/>
</g>
<path d="M97.4907 83.1182C97.4907 83.1182 100.12 93.3221 99.7156 95.5649C99.5152 96.6755 100.098 97.8286 100.098 97.8286C100.098 97.8286 98.8982 99.01 99.7156 100.583" stroke="#1A2E35" stroke-width="0.373047" stroke-linecap="round" stroke-linejoin="round"/>
<path d="M104.468 91.5607C103.955 91.5175 103.484 91.3947 103.147 91.1444L102.367 87.7273C102.367 87.7273 104.772 87.9918 106.986 87.4042L107.822 91.1444C107.822 91.1444 107.202 91.3253 106.39 91.454" stroke="#1A2E35" stroke-width="0.373047" stroke-linecap="round" stroke-linejoin="round"/>
<path d="M95.6225 84.4448C95.6225 84.4448 93.3999 74.9097 99.0314 73.801C104.663 72.6923 105.84 75.332 105.506 77.1204C105.062 79.5027 100.383 85.3487 100.383 85.3487L97.4907 83.119L95.6225 84.4448Z" fill="#8956BC"/>
<path d="M95.6225 84.4448C95.6225 84.4448 93.3999 74.9097 99.0314 73.801C104.663 72.6923 105.84 75.332 105.506 77.1204C105.062 79.5027 100.383 85.3487 100.383 85.3487L97.4907 83.119L95.6225 84.4448Z" stroke="#1A2E35" stroke-width="0.373047" stroke-linecap="round" stroke-linejoin="round"/>
<g opacity="0.4">
<path d="M95.6225 84.4448C95.6225 84.4448 93.3999 74.9097 99.0314 73.801C104.663 72.6923 105.84 75.332 105.506 77.1204C105.062 79.5027 100.383 85.3487 100.383 85.3487L97.4907 83.119L95.6225 84.4448Z" fill="white"/>
<path d="M95.6225 84.4448C95.6225 84.4448 93.3999 74.9097 99.0314 73.801C104.663 72.6923 105.84 75.332 105.506 77.1204C105.062 79.5027 100.383 85.3487 100.383 85.3487L97.4907 83.119L95.6225 84.4448Z" stroke="#1A2E35" stroke-width="0.373047" stroke-linecap="round" stroke-linejoin="round"/>
</g>
<path d="M87.7931 113.25C87.7931 113.25 91.5711 109.154 99.9056 106.235C99.9056 106.235 97.7924 105.513 97.3476 104.613" stroke="white" stroke-width="0.373047" stroke-linecap="round" stroke-linejoin="round"/>
<path d="M109.69 91.9009C109.69 91.9009 111.192 94.4212 117.328 94.1884C117.328 94.1884 115.642 92.268 113.134 91.5868C110.625 90.9056 109.69 91.9009 109.69 91.9009Z" fill="#8956BC"/>
<path d="M109.69 91.9009C109.69 91.9009 111.192 94.4212 117.328 94.1884C117.328 94.1884 115.642 92.268 113.134 91.5868C110.625 90.9056 109.69 91.9009 109.69 91.9009Z" stroke="#1A2E35" stroke-width="0.373047" stroke-linecap="round" stroke-linejoin="round"/>
<path d="M85.4115 92.9391C85.4115 92.9391 86.8385 90.7303 88.1466 90.2882C89.4547 89.846 93.2875 89.8097 93.8776 89.7943C94.4682 89.779 105.011 92.463 109.954 94.113L109.527 85.8599L116.173 86.3868C116.173 86.3868 115.9 96.4623 114.866 99.1272C113.831 101.792 112.351 101.144 109.825 100.054C99.8921 95.7681 94.0734 92.7836 93.5339 92.9434C92.9944 93.1031 85.4115 92.9391 85.4115 92.9391Z" fill="#FDBD96"/>
<path d="M85.4115 92.9391C85.4115 92.9391 86.8385 90.7303 88.1466 90.2882C89.4547 89.846 93.2875 89.8097 93.8776 89.7943C94.4682 89.779 105.011 92.463 109.954 94.113L109.527 85.8599L116.173 86.3868C116.173 86.3868 115.9 96.4623 114.866 99.1272C113.831 101.792 112.351 101.144 109.825 100.054C99.8921 95.7681 94.0734 92.7836 93.5339 92.9434C92.9944 93.1031 85.4115 92.9391 85.4115 92.9391Z" stroke="#1A2E35" stroke-width="0.373047" stroke-linecap="round" stroke-linejoin="round"/>
<path d="M108.235 80.8397C108.03 81.5525 107.934 82.2776 107.979 82.926C108.162 85.519 109.145 91.7662 109.145 91.7662C109.145 91.7662 115.299 92.9209 116.676 94.3841C116.676 94.3841 118.053 86.2196 116.157 81.977C114.262 77.7343 112.128 77.1693 112.128 77.1693C110.783 76.7735 109.494 77.9895 108.717 79.5852" fill="#8956BC"/>
<path d="M108.235 80.8397C108.03 81.5525 107.934 82.2776 107.979 82.926C108.162 85.519 109.145 91.7662 109.145 91.7662C109.145 91.7662 115.299 92.9209 116.676 94.3841C116.676 94.3841 118.053 86.2196 116.157 81.977C114.262 77.7343 112.128 77.1693 112.128 77.1693C110.783 76.7735 109.494 77.9895 108.717 79.5852" stroke="#1A2E35" stroke-width="0.373047" stroke-linecap="round" stroke-linejoin="round"/>
<path d="M108.235 80.8381C108.029 81.5509 107.933 82.276 107.979 82.9243C108.161 85.5173 109.145 91.7646 109.145 91.7646C109.145 91.7646 115.299 92.9193 116.675 94.3825C116.675 94.3825 118.053 86.218 116.157 81.9753C114.262 77.7327 112.127 77.1677 112.127 77.1677C110.782 76.7719 109.494 77.9879 108.716 79.5835" fill="#8956BC"/>
<path d="M108.235 80.8381C108.029 81.5509 107.933 82.276 107.979 82.9243C108.161 85.5173 109.145 91.7646 109.145 91.7646C109.145 91.7646 115.299 92.9193 116.675 94.3825C116.675 94.3825 118.053 86.218 116.157 81.9753C114.262 77.7327 112.127 77.1677 112.127 77.1677C110.782 76.7719 109.494 77.9879 108.716 79.5835" stroke="#1A2E35" stroke-width="0.373047" stroke-linecap="round" stroke-linejoin="round"/>
<path d="M90.0471 84.1589C90.0471 84.1589 91.2426 85.2804 93.1884 85.8259" stroke="#1A2E35" stroke-width="0.373047" stroke-linecap="round" stroke-linejoin="round"/>
<path d="M109.48 84.0973C109.48 84.0973 111.545 88.4217 114.317 89.4782" stroke="#1A2E35" stroke-width="0.373047" stroke-linecap="round" stroke-linejoin="round"/>
<path d="M94.6729 116.386C94.6729 116.386 95.0761 116.712 95.2067 117.846" stroke="white" stroke-width="0.373047" stroke-linecap="round" stroke-linejoin="round"/>
<path d="M93.0911 117.769C93.0911 117.769 94.2305 117.875 94.8825 118.879" stroke="white" stroke-width="0.373047" stroke-linecap="round" stroke-linejoin="round"/>
<path d="M81.3181 113.885C81.3181 113.885 82.5134 114.489 82.2541 116.2" stroke="white" stroke-width="0.373047" stroke-linecap="round" stroke-linejoin="round"/>
<path d="M80.0583 115.35C80.0583 115.35 81.6893 116.316 81.8057 117.184" stroke="white" stroke-width="0.373047" stroke-linecap="round" stroke-linejoin="round"/>
<path d="M98.8083 104.622C98.8083 104.622 102.421 105.247 103.248 104.763" stroke="white" stroke-width="0.373047" stroke-linecap="round" stroke-linejoin="round"/>
<path d="M97.4898 82.7121C97.4898 82.7121 97.0272 81.6116 97.1093 79.9404C97.1242 79.6382 97.154 79.3211 97.21 78.9891L96.5795 77.9893L95.77 76.7023L96.7064 72.9532C96.7064 72.9532 102.668 74.1022 103.123 75.766C103.574 77.4372 97.4898 82.7121 97.4898 82.7121Z" fill="white"/>
<path d="M97.4898 82.7121C97.4898 82.7121 97.0272 81.6116 97.1093 79.9404C97.1242 79.6382 97.154 79.3211 97.21 78.9891L96.5795 77.9893L95.77 76.7023L96.7064 72.9532C96.7064 72.9532 102.668 74.1022 103.123 75.766C103.574 77.4372 97.4898 82.7121 97.4898 82.7121Z" stroke="#1A2E35" stroke-width="0.373047" stroke-linecap="round" stroke-linejoin="round"/>
<path d="M97.4898 82.7121C97.4898 82.7121 97.0272 81.6116 97.1093 79.9404C97.1242 79.6382 97.154 79.3211 97.21 78.9891L96.5795 77.9893L95.77 76.7023L96.7064 72.9532C96.7064 72.9532 102.668 74.1022 103.123 75.766C103.574 77.4372 97.4898 82.7121 97.4898 82.7121ZM97.1093 79.9404C97.1242 79.6382 97.154 79.3211 97.21 78.9891L96.5795 77.9893C97.6129 77.7842 98.7432 77.3253 99.493 76.3554C99.493 76.3554 99.6907 78.9406 97.1093 79.9404Z" fill="#EB996D"/>
<path d="M101.236 73.288C103.081 68.4238 101.862 60.1825 92.9071 61.7649C87.6356 62.6964 87.0223 69.0464 88.7827 71.8644C90.5431 74.6821 88.6726 74.7749 91.3134 76.8655C92.3811 77.7108 93.2458 79.15 94.5209 79.2399C96.0373 79.347 97.9831 77.9089 99.4324 76.3589" fill="#FDBD96"/>
<path d="M101.236 73.288C103.081 68.4238 101.862 60.1825 92.9071 61.7649C87.6356 62.6964 87.0223 69.0464 88.7827 71.8644C90.5431 74.6821 88.6726 74.7749 91.3134 76.8655C92.3811 77.7108 93.2458 79.15 94.5209 79.2399C96.0373 79.347 97.9831 77.9089 99.4324 76.3589" stroke="#1A2E35" stroke-width="0.373047" stroke-linecap="round" stroke-linejoin="round"/>
<path d="M92.4138 71.8815C92.4138 71.8815 93.734 70.6832 95.3019 71.1783" stroke="#1A2E35" stroke-width="0.373047" stroke-linecap="round" stroke-linejoin="round"/>
<path d="M89.9373 71.8746C89.9373 71.8746 89.4882 70.9248 88.2273 70.7181" stroke="#1A2E35" stroke-width="0.373047" stroke-linecap="round" stroke-linejoin="round"/>
<path d="M90.8109 73.596C90.8109 73.596 90.6225 74.5644 90.3729 75.5426C90.1308 76.4916 91.9382 75.9857 91.8573 75.8343" fill="#EB996D"/>
<path d="M90.8109 73.596C90.8109 73.596 90.6225 74.5644 90.3729 75.5426C90.1308 76.4916 91.9382 75.9857 91.8573 75.8343" stroke="#1A2E35" stroke-width="0.373047" stroke-linecap="round" stroke-linejoin="round"/>
<path d="M92.7534 77.2608C92.7534 77.2608 93.9661 76.9703 94.8128 75.9101" stroke="#1A2E35" stroke-width="0.39107" stroke-linecap="round" stroke-linejoin="round"/>
<path d="M94.2502 73.0937C94.3241 73.3649 94.2125 73.6313 94.0007 73.6891C93.7888 73.7469 93.5571 73.5738 93.4832 73.3026C93.4094 73.0314 93.5209 72.7651 93.7328 72.7072C93.9447 72.6494 94.1764 72.8225 94.2502 73.0937Z" fill="#1A2E35"/>
<path d="M90.2579 73.0078C90.3318 73.279 90.2773 73.5301 90.1359 73.5685C89.9945 73.607 89.8199 73.4186 89.7461 73.1474C89.6722 72.8762 89.7267 72.6251 89.8681 72.5867C90.0095 72.5482 90.184 72.7366 90.2579 73.0078Z" fill="#1A2E35"/>
<path d="M95.7153 66.8692C95.7153 66.8692 94.3257 70.5001 90.8945 70.4177C90.8945 70.4177 92.0841 69.5115 92.4142 68.6442C92.4142 68.6442 89.7738 71.2593 87.133 69.9308C84.4922 68.6024 85.7755 62.4307 89.8376 59.9847C93.8997 57.5386 98.0256 58.1974 99.4286 60.5274C99.4286 60.5274 102.266 60.2667 103.514 64.4347C104.627 68.1559 102.845 73.818 101.092 73.8836C98.3811 73.9851 97.8354 71.0406 97.8354 71.0406C97.8354 71.0406 96.2104 69.5925 95.7153 66.8692Z" fill="#1A2E35"/>
<path d="M95.7153 66.8692C95.7153 66.8692 94.3257 70.5001 90.8945 70.4177C90.8945 70.4177 92.0841 69.5115 92.4142 68.6442C92.4142 68.6442 89.7738 71.2593 87.133 69.9308C84.4922 68.6024 85.7755 62.4307 89.8376 59.9847C93.8997 57.5386 98.0256 58.1974 99.4286 60.5274C99.4286 60.5274 102.266 60.2667 103.514 64.4347C104.627 68.1559 102.845 73.818 101.092 73.8836C98.3811 73.9851 97.8354 71.0406 97.8354 71.0406C97.8354 71.0406 96.2104 69.5925 95.7153 66.8692Z" stroke="#1A2E35" stroke-width="0.373047" stroke-linecap="round" stroke-linejoin="round"/>
<path d="M98.6853 73.3032C98.6853 73.3032 98.6029 69.8786 100.542 70.2912C102.481 70.7038 101.078 74.6652 99.6135 74.6238" fill="#EB996D"/>
<path d="M98.6853 73.3032C98.6853 73.3032 98.6029 69.8786 100.542 70.2912C102.481 70.7038 101.078 74.6652 99.6135 74.6238" stroke="#1A2E35" stroke-width="0.373047" stroke-linecap="round" stroke-linejoin="round"/>
<path d="M92.6648 94.7937H62.5838C62.248 94.7937 61.9761 94.5218 61.9761 94.186V93.1385C61.9761 92.8028 62.248 92.5308 62.5838 92.5308H92.6648C93.0005 92.5308 93.2725 92.8028 93.2725 93.1385V94.186C93.2725 94.5218 93.0005 94.7937 92.6648 94.7937Z" fill="#8956BC"/>
<path d="M92.6648 94.7937H62.5838C62.248 94.7937 61.9761 94.5218 61.9761 94.186V93.1385C61.9761 92.8028 62.248 92.5308 62.5838 92.5308H92.6648C93.0005 92.5308 93.2725 92.8028 93.2725 93.1385V94.186C93.2725 94.5218 93.0005 94.7937 92.6648 94.7937Z" stroke="#1A2E35" stroke-width="0.373047" stroke-linecap="round" stroke-linejoin="round"/>
<path d="M83.0961 126.015L79.3768 138.011" stroke="white" stroke-width="0.373047" stroke-linecap="round" stroke-linejoin="round"/>
<path d="M91.0688 30.605H71.7964C70.3789 30.605 69.2295 31.7544 69.2295 33.172V49.7263C69.2295 51.1439 70.3789 52.2932 71.7964 52.2932H80.3388L85.2325 58.1934L84.0055 52.2932H91.0688C92.4864 52.2932 93.6357 51.1439 93.6357 49.7263V33.172C93.6357 31.7544 92.4864 30.605 91.0688 30.605Z" fill="white"/>
<path d="M91.0688 30.605H71.7964C70.3789 30.605 69.2295 31.7544 69.2295 33.172V49.7263C69.2295 51.1439 70.3789 52.2932 71.7964 52.2932H80.3388L85.2325 58.1934L84.0055 52.2932H91.0688C92.4864 52.2932 93.6357 51.1439 93.6357 49.7263V33.172C93.6357 31.7544 92.4864 30.605 91.0688 30.605Z" stroke="#1A2E35" stroke-width="0.373047" stroke-linecap="round" stroke-linejoin="round"/>
<path d="M77.5357 43.6678L79.2867 43.5759L79.3307 42.2587C79.6034 42.1659 79.8611 42.0437 80.0998 41.8929L81.1504 42.6869L82.3237 41.3836L81.4242 40.4219C81.5491 40.1688 81.6437 39.8997 81.7074 39.6188L83.0128 39.4371L82.9209 37.6862L81.6037 37.6421C81.5109 37.3694 81.3887 37.1117 81.238 36.8731L82.0319 35.8225L80.7287 34.6491L79.7669 35.5487C79.5138 35.4238 79.2447 35.3292 78.9638 35.2655L78.7821 33.9601L77.0312 34.0519L76.9871 35.3692C76.7145 35.4619 76.4568 35.5841 76.2181 35.7349L75.1671 34.9409L73.9941 36.2442L74.8937 37.206C74.7688 37.4591 74.6742 37.7281 74.6105 38.009L73.3051 38.1907L73.3969 39.9416L74.7142 39.9857C74.8069 40.2584 74.9292 40.5161 75.0799 40.7547L74.2859 41.8054L75.5888 42.9787L76.551 42.0791C76.8041 42.2041 77.0732 42.2987 77.3541 42.3624L77.5357 43.6678ZM76.1242 38.9207C76.0652 37.7971 76.9286 36.8381 78.0522 36.7791C79.1757 36.7202 80.1348 37.5836 80.1937 38.7072C80.2527 39.8307 79.3893 40.7897 78.2657 40.8487C77.1421 40.9077 76.1831 40.0442 76.1242 38.9207Z" fill="#DAA65C"/>
<path d="M81.8762 42.7251L82.0067 43.9657L82.9445 43.948C83.0205 44.1385 83.1173 44.317 83.2331 44.4807L82.7083 45.2572L83.6776 46.042L84.3279 45.367C84.5122 45.4463 84.7069 45.5038 84.909 45.5384L85.0869 46.4594L86.3276 46.3288L86.3099 45.391C86.5003 45.3151 86.6788 45.2183 86.8426 45.1024L87.6191 45.6272L88.4042 44.6579L87.7289 44.0076C87.8082 43.8233 87.8657 43.6286 87.9003 43.4265L88.8212 43.2486L88.6907 42.008L87.7529 42.0256C87.677 41.8352 87.5802 41.6567 87.4643 41.493L87.9895 40.7164L87.0198 39.9317L86.3695 40.6067C86.1852 40.5274 85.9905 40.4699 85.7884 40.4352L85.6105 39.5143L84.3699 39.6449L84.3875 40.5826C84.1971 40.6586 84.0186 40.7554 83.8549 40.8713L83.0783 40.3464L82.2936 41.3158L82.9685 41.9661C82.8893 42.1503 82.8317 42.3451 82.7971 42.5471L81.8762 42.7251ZM85.197 41.5451C85.9932 41.4614 86.7066 42.039 86.7904 42.8351C86.8742 43.6313 86.2966 44.3448 85.5004 44.4285C84.7043 44.5123 83.9908 43.9347 83.907 43.1385C83.8232 42.3424 84.4008 41.6289 85.197 41.5451Z" fill="#DAA65C"/>
<path d="M80.2906 43.5882L79.4137 43.7273L79.4612 44.3932C79.3288 44.4542 79.2055 44.5293 79.0934 44.6177L78.5222 44.2739L78.0007 44.9919L78.5043 45.4288C78.4549 45.5627 78.4217 45.7032 78.4046 45.848L77.7567 46.0089L77.8957 46.8858L78.5617 46.8383C78.6227 46.9707 78.6978 47.094 78.7862 47.2061L78.4424 47.7774L79.1604 48.2988L79.5972 47.7952C79.7312 47.8446 79.8718 47.8782 80.0165 47.8953L80.1773 48.5428L81.0542 48.4038L81.0069 47.7382C81.1392 47.6772 81.2625 47.6017 81.3746 47.5133L81.9458 47.8571L82.4673 47.1391L81.9636 46.7023C82.013 46.5683 82.0463 46.4278 82.0633 46.2831L82.7113 46.1222L82.5722 45.2453L81.9063 45.2927C81.8453 45.1604 81.7702 45.037 81.6818 44.9249L82.0256 44.3537L81.3076 43.8322L80.8707 44.3359C80.7368 44.2865 80.5963 44.2532 80.4515 44.2362L80.2906 43.5882ZM81.2527 45.904C81.3419 46.4666 80.9581 46.9951 80.3955 47.0843C79.8329 47.1735 79.3044 46.7897 79.2152 46.2271C79.126 45.6645 79.5098 45.136 80.0724 45.0468C80.6351 44.9576 81.1635 45.3414 81.2527 45.904Z" fill="#DAA65C"/>
<path d="M66.4891 68.5218L67.8445 115.375L36.6696 116.276L36.5248 111.31L35.3142 69.4222L54.9448 68.8539L66.4891 68.5218Z" fill="white"/>
<path d="M66.4891 68.5218L67.8445 115.375L36.6696 116.276L36.5248 111.31L35.3142 69.4222L54.9448 68.8539L66.4891 68.5218Z" stroke="#1A2E35" stroke-width="0.373047" stroke-linecap="round" stroke-linejoin="round"/>
<g opacity="0.1">
<path d="M59.03 96.6409L52.0832 97.7883L54.8417 106.43L36.5244 111.306L35.3139 69.4186L54.9445 68.8503L59.03 96.6409Z" fill="black"/>
</g>
<path d="M37.7664 72.4349L45.8789 72.1999" stroke="#1A2E35" stroke-width="0.746094" stroke-linecap="round" stroke-linejoin="round"/>
<path d="M37.8101 73.9947L43.3267 73.8352" stroke="#1A2E35" stroke-width="0.746094" stroke-linecap="round" stroke-linejoin="round"/>
<path d="M39.8945 77.6163L63.2301 76.9416" stroke="#1A2E35" stroke-width="0.746094" stroke-linecap="round" stroke-linejoin="round"/>
<path d="M39.9395 79.1703L63.275 78.4956" stroke="#1A2E35" stroke-width="0.746094" stroke-linecap="round" stroke-linejoin="round"/>
<path d="M39.9922 80.9867L59.8947 80.4115" stroke="#1A2E35" stroke-width="0.746094" stroke-linecap="round" stroke-linejoin="round"/>
<path d="M42.095 84.4903L40.1955 84.5453L40.1405 82.6458L42.04 82.5908L42.095 84.4903Z" stroke="#1A2E35" stroke-width="0.373047" stroke-linecap="round" stroke-linejoin="round"/>
<path d="M45.5342 84.3876L43.6347 84.4426L43.5797 82.5431L45.4792 82.4881L45.5342 84.3876Z" stroke="#1A2E35" stroke-width="0.373047" stroke-linecap="round" stroke-linejoin="round"/>
<path d="M48.9751 84.2948L47.0756 84.3498L47.0207 82.4503L48.9202 82.3953L48.9751 84.2948Z" stroke="#1A2E35" stroke-width="0.373047" stroke-linecap="round" stroke-linejoin="round"/>
<path d="M52.4148 84.1921L50.5153 84.2471L50.4604 82.3476L52.3599 82.2926L52.4148 84.1921Z" stroke="#1A2E35" stroke-width="0.373047" stroke-linecap="round" stroke-linejoin="round"/>
<path d="M38.6527 77.6569C38.6603 77.919 38.4536 78.138 38.1914 78.1455C37.9293 78.1531 37.7103 77.9463 37.7028 77.6842C37.6953 77.4221 37.902 77.2031 38.1641 77.1956C38.4262 77.188 38.6452 77.3948 38.6527 77.6569Z" fill="#1A2E35"/>
<path d="M40.1575 86.7061L63.493 86.0313" stroke="#1A2E35" stroke-width="0.746094" stroke-linecap="round" stroke-linejoin="round"/>
<path d="M40.2031 88.264L63.5387 87.5893" stroke="#1A2E35" stroke-width="0.746094" stroke-linecap="round" stroke-linejoin="round"/>
<path d="M40.2551 90.0804L60.1576 89.5052" stroke="#1A2E35" stroke-width="0.746094" stroke-linecap="round" stroke-linejoin="round"/>
<path d="M42.3572 93.5659L40.4577 93.6208L40.4027 91.7213L42.3022 91.6664L42.3572 93.5659Z" stroke="#1A2E35" stroke-width="0.373047" stroke-linecap="round" stroke-linejoin="round"/>
<path d="M45.7964 93.4681L43.8969 93.5231L43.8419 91.6236L45.7415 91.5686L45.7964 93.4681Z" stroke="#1A2E35" stroke-width="0.373047" stroke-linecap="round" stroke-linejoin="round"/>
<path d="M49.2374 93.3704L47.3378 93.4253L47.2829 91.5258L49.1824 91.4709L49.2374 93.3704Z" stroke="#1A2E35" stroke-width="0.373047" stroke-linecap="round" stroke-linejoin="round"/>
<path d="M52.6768 93.2675L50.7773 93.3225L50.7223 91.423L52.6218 91.368L52.6768 93.2675Z" stroke="#1A2E35" stroke-width="0.373047" stroke-linecap="round" stroke-linejoin="round"/>
<path d="M38.9157 86.7324C38.9232 86.9946 38.7165 87.2135 38.4544 87.2211C38.1922 87.2286 37.9733 87.0219 37.9657 86.7597C37.9582 86.4976 38.1649 86.2786 38.427 86.2711C38.6892 86.2636 38.9082 86.4703 38.9157 86.7324Z" fill="#1A2E35"/>
<path d="M40.4192 95.7794L63.7548 95.1047" stroke="#1A2E35" stroke-width="0.746094" stroke-linecap="round" stroke-linejoin="round"/>
<path d="M40.4648 97.3384L63.8004 96.6637" stroke="#1A2E35" stroke-width="0.746094" stroke-linecap="round" stroke-linejoin="round"/>
<path d="M40.5171 99.1548L60.4196 98.5797" stroke="#1A2E35" stroke-width="0.746094" stroke-linecap="round" stroke-linejoin="round"/>
<path d="M42.6194 102.653L40.7199 102.708L40.6649 100.809L42.5645 100.754L42.6194 102.653Z" stroke="#1A2E35" stroke-width="0.373047" stroke-linecap="round" stroke-linejoin="round"/>
<path d="M46.0591 102.556L44.1596 102.611L44.1046 100.711L46.0042 100.656L46.0591 102.556Z" stroke="#1A2E35" stroke-width="0.373047" stroke-linecap="round" stroke-linejoin="round"/>
<path d="M49.4996 102.453L47.6001 102.508L47.5451 100.608L49.4446 100.554L49.4996 102.453Z" stroke="#1A2E35" stroke-width="0.373047" stroke-linecap="round" stroke-linejoin="round"/>
<path d="M52.9393 102.355L51.0398 102.41L50.9848 100.511L52.8843 100.456L52.9393 102.355Z" stroke="#1A2E35" stroke-width="0.373047" stroke-linecap="round" stroke-linejoin="round"/>
<path d="M39.1779 95.82C39.1854 96.0821 38.9787 96.3011 38.7166 96.3086C38.4544 96.3162 38.2355 96.1095 38.2279 95.8473C38.2204 95.5852 38.4271 95.3662 38.6893 95.3587C38.9514 95.3512 39.1704 95.5579 39.1779 95.82Z" fill="#1A2E35"/>
<path d="M40.6907 105.13L64.0262 104.455" stroke="#1A2E35" stroke-width="0.746094" stroke-linecap="round" stroke-linejoin="round"/>
<path d="M40.7351 106.684L64.0707 106.009" stroke="#1A2E35" stroke-width="0.746094" stroke-linecap="round" stroke-linejoin="round"/>
<path d="M40.7878 108.505L60.6903 107.93" stroke="#1A2E35" stroke-width="0.746094" stroke-linecap="round" stroke-linejoin="round"/>
<path d="M42.8887 112.004L40.9892 112.059L40.9342 110.16L42.8337 110.105L42.8887 112.004Z" stroke="#1A2E35" stroke-width="0.373047" stroke-linecap="round" stroke-linejoin="round"/>
<path d="M46.3292 111.902L44.4296 111.957L44.3747 110.057L46.2742 110.002L46.3292 111.902Z" stroke="#1A2E35" stroke-width="0.373047" stroke-linecap="round" stroke-linejoin="round"/>
<path d="M49.7688 111.803L47.8693 111.858L47.8144 109.958L49.7139 109.903L49.7688 111.803Z" stroke="#1A2E35" stroke-width="0.373047" stroke-linecap="round" stroke-linejoin="round"/>
<path d="M53.2093 111.705L51.3098 111.76L51.2548 109.861L53.1543 109.806L53.2093 111.705Z" stroke="#1A2E35" stroke-width="0.373047" stroke-linecap="round" stroke-linejoin="round"/>
<path d="M39.4477 105.171C39.4552 105.433 39.2485 105.652 38.9863 105.659C38.7242 105.667 38.5052 105.46 38.4977 105.198C38.4902 104.936 38.6969 104.717 38.959 104.709C39.2212 104.702 39.4401 104.908 39.4477 105.171Z" fill="#1A2E35"/>
<path d="M40.8453 83.3742L41.1252 83.7773L42.0413 82.5827" stroke="#1A2E35" stroke-width="0.746094" stroke-linecap="round" stroke-linejoin="round"/>
<path d="M47.9837 92.1499L48.2636 92.553L49.1798 91.3584" stroke="#1A2E35" stroke-width="0.746094" stroke-linecap="round" stroke-linejoin="round"/>
<path d="M51.9639 101.421L52.2438 101.824L53.16 100.63" stroke="#1A2E35" stroke-width="0.746094" stroke-linecap="round" stroke-linejoin="round"/>
<path d="M45.0726 110.576L45.3525 110.979L46.2686 109.784" stroke="#1A2E35" stroke-width="0.746094" stroke-linecap="round" stroke-linejoin="round"/>
<path d="M51.1501 104.472L20.7053 111.236L10.5401 65.4764L23.1452 62.6769L40.9852 58.715L50.2079 100.232L51.1501 104.472Z" fill="white"/>
<path d="M51.1501 104.472L20.7053 111.236L10.5401 65.4764L23.1452 62.6769L40.9852 58.715L50.2079 100.232L51.1501 104.472Z" stroke="#1A2E35" stroke-width="0.373047" stroke-linecap="round" stroke-linejoin="round"/>
<g opacity="0.1">
<path d="M50.4626 100.534L27.1816 100.817L23.3999 62.9791L41.2399 59.0171L50.4626 100.534Z" fill="black"/>
</g>
<path d="M14.4342 67.3215L22.3564 65.5616" stroke="#1A2E35" stroke-width="0.746094" stroke-linecap="round" stroke-linejoin="round"/>
<path d="M14.6816 68.7917L20.0691 67.5952" stroke="#1A2E35" stroke-width="0.746094" stroke-linecap="round" stroke-linejoin="round"/>
<path d="M17.2516 72.5302L40.0414 67.4675" stroke="#1A2E35" stroke-width="0.746094" stroke-linecap="round" stroke-linejoin="round"/>
<path d="M17.5899 74.0535L40.3798 68.9909" stroke="#1A2E35" stroke-width="0.746094" stroke-linecap="round" stroke-linejoin="round"/>
<path d="M17.9833 75.8269L37.4206 71.5087" stroke="#1A2E35" stroke-width="0.746094" stroke-linecap="round" stroke-linejoin="round"/>
<path d="M20.4408 78.6485L18.5857 79.0607L18.1735 77.2056L20.0286 76.7934L20.4408 78.6485Z" stroke="#1A2E35" stroke-width="0.373047" stroke-linecap="round" stroke-linejoin="round"/>
<path d="M23.8002 77.9024L21.9451 78.3146L21.5329 76.4595L23.388 76.0473L23.8002 77.9024Z" stroke="#1A2E35" stroke-width="0.373047" stroke-linecap="round" stroke-linejoin="round"/>
<path d="M27.1588 77.1563L25.3037 77.5685L24.8915 75.7134L26.7466 75.3012L27.1588 77.1563Z" stroke="#1A2E35" stroke-width="0.373047" stroke-linecap="round" stroke-linejoin="round"/>
<path d="M30.5189 76.4102L28.6638 76.8224L28.2517 74.9673L30.1067 74.5551L30.5189 76.4102Z" stroke="#1A2E35" stroke-width="0.373047" stroke-linecap="round" stroke-linejoin="round"/>
<path d="M15.991 72.1342C16.0478 72.3905 15.8865 72.6443 15.6303 72.7011C15.374 72.7578 15.1203 72.5966 15.0635 72.3403C15.0067 72.0841 15.1679 71.8303 15.4242 71.7735C15.6805 71.7167 15.9342 71.878 15.991 72.1342Z" fill="#1A2E35"/>
<path d="M18.7711 81.496L41.561 76.4333" stroke="#1A2E35" stroke-width="0.746094" stroke-linecap="round" stroke-linejoin="round"/>
<path d="M19.1095 83.0191L41.8993 77.9564" stroke="#1A2E35" stroke-width="0.746094" stroke-linecap="round" stroke-linejoin="round"/>
<path d="M19.5031 84.7912L38.9404 80.4731" stroke="#1A2E35" stroke-width="0.746094" stroke-linecap="round" stroke-linejoin="round"/>
<path d="M21.9615 87.6073L20.1065 88.0195L19.6943 86.1644L21.5493 85.7522L21.9615 87.6073Z" stroke="#1A2E35" stroke-width="0.373047" stroke-linecap="round" stroke-linejoin="round"/>
<path d="M25.3212 86.8612L23.4661 87.2734L23.0539 85.4183L24.909 85.0061L25.3212 86.8612Z" stroke="#1A2E35" stroke-width="0.373047" stroke-linecap="round" stroke-linejoin="round"/>
<path d="M28.6803 86.1151L26.8252 86.5273L26.413 84.6722L28.2681 84.26L28.6803 86.1151Z" stroke="#1A2E35" stroke-width="0.373047" stroke-linecap="round" stroke-linejoin="round"/>
<path d="M32.0404 85.369L30.1853 85.7812L29.7731 83.9261L31.6282 83.5139L32.0404 85.369Z" stroke="#1A2E35" stroke-width="0.373047" stroke-linecap="round" stroke-linejoin="round"/>
<path d="M17.5108 81.1055C17.5676 81.3618 17.4063 81.6156 17.1501 81.6723C16.8938 81.7291 16.64 81.5679 16.5833 81.3116C16.5265 81.0554 16.6877 80.8016 16.944 80.7448C17.2002 80.688 17.454 80.8493 17.5108 81.1055Z" fill="#1A2E35"/>
<path d="M20.2931 90.4612L43.0829 85.3985" stroke="#1A2E35" stroke-width="0.746094" stroke-linecap="round" stroke-linejoin="round"/>
<path d="M20.6302 91.9843L43.4201 86.9216" stroke="#1A2E35" stroke-width="0.746094" stroke-linecap="round" stroke-linejoin="round"/>
<path d="M21.0251 93.7525L40.4624 89.4344" stroke="#1A2E35" stroke-width="0.746094" stroke-linecap="round" stroke-linejoin="round"/>
<path d="M23.4828 96.5789L21.6277 96.9911L21.2155 95.1361L23.0706 94.7239L23.4828 96.5789Z" stroke="#1A2E35" stroke-width="0.373047" stroke-linecap="round" stroke-linejoin="round"/>
<path d="M26.8426 95.8328L24.9876 96.245L24.5754 94.39L26.4304 93.9778L26.8426 95.8328Z" stroke="#1A2E35" stroke-width="0.373047" stroke-linecap="round" stroke-linejoin="round"/>
<path d="M30.2015 95.0868L28.3465 95.4989L27.9343 93.6439L29.7893 93.2317L30.2015 95.0868Z" stroke="#1A2E35" stroke-width="0.373047" stroke-linecap="round" stroke-linejoin="round"/>
<path d="M33.5619 94.3407L31.7068 94.7528L31.2946 92.8978L33.1497 92.4856L33.5619 94.3407Z" stroke="#1A2E35" stroke-width="0.373047" stroke-linecap="round" stroke-linejoin="round"/>
<path d="M19.032 90.053C19.0888 90.3092 18.9276 90.563 18.6713 90.6198C18.4151 90.6766 18.1613 90.5153 18.1045 90.2591C18.0477 90.0028 18.209 89.749 18.4652 89.6923C18.7215 89.6355 18.9752 89.7967 19.032 90.053Z" fill="#1A2E35"/>
<path d="M21.858 99.6712L44.6479 94.6085" stroke="#1A2E35" stroke-width="0.746094" stroke-linecap="round" stroke-linejoin="round"/>
<path d="M22.1959 101.194L44.9858 96.1316" stroke="#1A2E35" stroke-width="0.746094" stroke-linecap="round" stroke-linejoin="round"/>
<path d="M22.5893 102.968L42.0266 98.6494" stroke="#1A2E35" stroke-width="0.746094" stroke-linecap="round" stroke-linejoin="round"/>
<path d="M25.0465 105.789L23.1914 106.201L22.7792 104.346L24.6343 103.934L25.0465 105.789Z" stroke="#1A2E35" stroke-width="0.373047" stroke-linecap="round" stroke-linejoin="round"/>
<path d="M28.4066 105.043L26.5515 105.455L26.1393 103.6L27.9944 103.188L28.4066 105.043Z" stroke="#1A2E35" stroke-width="0.373047" stroke-linecap="round" stroke-linejoin="round"/>
<path d="M31.7652 104.297L29.9102 104.709L29.498 102.854L31.3531 102.442L31.7652 104.297Z" stroke="#1A2E35" stroke-width="0.373047" stroke-linecap="round" stroke-linejoin="round"/>
<path d="M35.1258 103.551L33.2708 103.963L32.8586 102.108L34.7137 101.696L35.1258 103.551Z" stroke="#1A2E35" stroke-width="0.373047" stroke-linecap="round" stroke-linejoin="round"/>
<path d="M20.5977 99.2811C20.6545 99.5374 20.4932 99.7912 20.237 99.8479C19.9807 99.9047 19.727 99.7435 19.6702 99.4872C19.6134 99.231 19.7746 98.9772 20.0309 98.9204C20.2871 98.8636 20.5409 99.0249 20.5977 99.2811Z" fill="#1A2E35"/>
<path d="M22.1708 77.0054L22.5218 77.3485L23.1962 76.0024" stroke="#1A2E35" stroke-width="0.746094" stroke-linecap="round" stroke-linejoin="round"/>
<path d="M20.2718 86.6314L20.6229 86.9744L21.2972 85.6284" stroke="#1A2E35" stroke-width="0.746094" stroke-linecap="round" stroke-linejoin="round"/>
<path d="M21.8007 95.5108L22.1517 95.8539L22.826 94.5078" stroke="#1A2E35" stroke-width="0.746094" stroke-linecap="round" stroke-linejoin="round"/>
<path d="M30.1515 103.504L30.5026 103.847L31.1769 102.501" stroke="#1A2E35" stroke-width="0.746094" stroke-linecap="round" stroke-linejoin="round"/>
<path d="M55.844 98.2732L24.657 98.199L24.7681 51.3259L55.9552 51.3997L55.844 98.2732Z" fill="white"/>
<path d="M55.844 98.2732L24.657 98.199L24.7681 51.3259L55.9552 51.3997L55.844 98.2732Z" stroke="#1A2E35" stroke-width="0.373047" stroke-linecap="round" stroke-linejoin="round"/>
<path d="M27.1222 54.4035L35.2381 54.4228" stroke="#1A2E35" stroke-width="0.746094" stroke-linecap="round" stroke-linejoin="round"/>
<path d="M27.1197 55.9726L32.6384 55.9859" stroke="#1A2E35" stroke-width="0.746094" stroke-linecap="round" stroke-linejoin="round"/>
<path d="M29.0889 59.6557L52.4344 59.7109" stroke="#1A2E35" stroke-width="0.746094" stroke-linecap="round" stroke-linejoin="round"/>
<path d="M29.085 61.2101L52.4305 61.2654" stroke="#1A2E35" stroke-width="0.746094" stroke-linecap="round" stroke-linejoin="round"/>
<path d="M29.0803 63.0287L48.9915 63.0757" stroke="#1A2E35" stroke-width="0.746094" stroke-linecap="round" stroke-linejoin="round"/>
<path d="M31.0727 66.5889L29.1722 66.5844L29.1768 64.684L31.0772 64.6885L31.0727 66.5889Z" stroke="#1A2E35" stroke-width="0.373047" stroke-linecap="round" stroke-linejoin="round"/>
<path d="M34.5146 66.5988L32.6141 66.5943L32.6187 64.6939L34.5191 64.6984L34.5146 66.5988Z" stroke="#1A2E35" stroke-width="0.373047" stroke-linecap="round" stroke-linejoin="round"/>
<path d="M37.9555 66.6049L36.0551 66.6003L36.0596 64.6999L37.96 64.7044L37.9555 66.6049Z" stroke="#1A2E35" stroke-width="0.373047" stroke-linecap="round" stroke-linejoin="round"/>
<path d="M41.3966 66.6148L39.4962 66.6103L39.5008 64.7099L41.4012 64.7144L41.3966 66.6148Z" stroke="#1A2E35" stroke-width="0.373047" stroke-linecap="round" stroke-linejoin="round"/>
<path d="M27.8459 59.6422C27.8452 59.9045 27.632 60.1171 27.3697 60.1164C27.1073 60.1157 26.8948 59.9024 26.8955 59.6401C26.8962 59.3778 27.1094 59.1652 27.3718 59.166C27.6341 59.1667 27.8466 59.3799 27.8459 59.6422Z" fill="#1A2E35"/>
<path d="M29.0662 68.7431L52.4117 68.7983" stroke="#1A2E35" stroke-width="0.746094" stroke-linecap="round" stroke-linejoin="round"/>
<path d="M29.0628 70.2969L52.4083 70.3522" stroke="#1A2E35" stroke-width="0.746094" stroke-linecap="round" stroke-linejoin="round"/>
<path d="M29.0586 72.1159L48.9697 72.1629" stroke="#1A2E35" stroke-width="0.746094" stroke-linecap="round" stroke-linejoin="round"/>
<path d="M31.0507 75.676L29.1503 75.6715L29.1548 73.7711L31.0552 73.7756L31.0507 75.676Z" stroke="#1A2E35" stroke-width="0.373047" stroke-linecap="round" stroke-linejoin="round"/>
<path d="M34.4923 75.686L32.5919 75.6814L32.5965 73.781L34.4969 73.7856L34.4923 75.686Z" stroke="#1A2E35" stroke-width="0.373047" stroke-linecap="round" stroke-linejoin="round"/>
<path d="M37.9335 75.692L36.0331 75.6875L36.0376 73.7871L37.938 73.7916L37.9335 75.692Z" stroke="#1A2E35" stroke-width="0.373047" stroke-linecap="round" stroke-linejoin="round"/>
<path d="M41.3751 75.702L39.4747 75.6974L39.4793 73.797L41.3797 73.8016L41.3751 75.702Z" stroke="#1A2E35" stroke-width="0.373047" stroke-linecap="round" stroke-linejoin="round"/>
<path d="M27.8247 68.7408C27.824 69.0032 27.6107 69.2157 27.3484 69.215C27.0861 69.2143 26.8736 69.0011 26.8743 68.7387C26.875 68.4764 27.0882 68.2639 27.3505 68.2646C27.6128 68.2653 27.8254 68.4785 27.8247 68.7408Z" fill="#1A2E35"/>
<path d="M29.0457 77.8303L52.3912 77.8855" stroke="#1A2E35" stroke-width="0.746094" stroke-linecap="round" stroke-linejoin="round"/>
<path d="M29.0418 79.3843L52.3873 79.4396" stroke="#1A2E35" stroke-width="0.746094" stroke-linecap="round" stroke-linejoin="round"/>
<path d="M29.0381 81.2031L48.9492 81.2501" stroke="#1A2E35" stroke-width="0.746094" stroke-linecap="round" stroke-linejoin="round"/>
<path d="M31.0297 84.7693L29.1293 84.7647L29.1338 82.8643L31.0342 82.8688L31.0297 84.7693Z" stroke="#1A2E35" stroke-width="0.373047" stroke-linecap="round" stroke-linejoin="round"/>
<path d="M34.4716 84.7803L32.5712 84.7757L32.5757 82.8753L34.4761 82.8799L34.4716 84.7803Z" stroke="#1A2E35" stroke-width="0.373047" stroke-linecap="round" stroke-linejoin="round"/>
<path d="M37.912 84.7902L36.0116 84.7856L36.0161 82.8852L37.9166 82.8897L37.912 84.7902Z" stroke="#1A2E35" stroke-width="0.373047" stroke-linecap="round" stroke-linejoin="round"/>
<path d="M41.3537 84.8002L39.4532 84.7956L39.4578 82.8952L41.3582 82.8998L41.3537 84.8002Z" stroke="#1A2E35" stroke-width="0.373047" stroke-linecap="round" stroke-linejoin="round"/>
<path d="M27.8037 77.8203C27.803 78.0826 27.5897 78.2951 27.3274 78.2944C27.0651 78.2937 26.8526 78.0805 26.8533 77.8182C26.854 77.5558 27.0672 77.3433 27.3295 77.344C27.5918 77.3447 27.8044 77.5579 27.8037 77.8203Z" fill="#1A2E35"/>
<path d="M29.023 87.1801L52.3685 87.2353" stroke="#1A2E35" stroke-width="0.746094" stroke-linecap="round" stroke-linejoin="round"/>
<path d="M29.0191 88.7341L52.3646 88.7894" stroke="#1A2E35" stroke-width="0.746094" stroke-linecap="round" stroke-linejoin="round"/>
<path d="M29.0158 90.554L48.927 90.601" stroke="#1A2E35" stroke-width="0.746094" stroke-linecap="round" stroke-linejoin="round"/>
<path d="M31.007 94.1081L29.1066 94.1035L29.1111 92.2031L31.0115 92.2077L31.007 94.1081Z" stroke="#1A2E35" stroke-width="0.373047" stroke-linecap="round" stroke-linejoin="round"/>
<path d="M34.4481 94.1191L32.5477 94.1145L32.5523 92.2141L34.4527 92.2187L34.4481 94.1191Z" stroke="#1A2E35" stroke-width="0.373047" stroke-linecap="round" stroke-linejoin="round"/>
<path d="M37.8898 94.129L35.9894 94.1245L35.9939 92.2241L37.8943 92.2286L37.8898 94.129Z" stroke="#1A2E35" stroke-width="0.373047" stroke-linecap="round" stroke-linejoin="round"/>
<path d="M41.3314 94.139L39.431 94.1344L39.4356 92.234L41.336 92.2386L41.3314 94.139Z" stroke="#1A2E35" stroke-width="0.373047" stroke-linecap="round" stroke-linejoin="round"/>
<path d="M27.7815 87.1811C27.7808 87.4434 27.5675 87.6559 27.3052 87.6552C27.0429 87.6545 26.8303 87.4413 26.831 87.179C26.8318 86.9166 27.045 86.7041 27.3073 86.7048C27.5696 86.7055 27.7822 86.9187 27.7815 87.1811Z" fill="#1A2E35"/>
<path d="M29.8565 65.442L30.1237 65.8533L31.0769 64.6884" stroke="#1A2E35" stroke-width="0.746094" stroke-linecap="round" stroke-linejoin="round"/>
<path d="M36.718 74.4369L36.9853 74.8482L37.9385 73.6833" stroke="#1A2E35" stroke-width="0.746094" stroke-linecap="round" stroke-linejoin="round"/>
<path d="M33.2559 83.7087L33.5231 84.12L34.4764 82.9551" stroke="#1A2E35" stroke-width="0.746094" stroke-linecap="round" stroke-linejoin="round"/>
<path d="M40.0733 92.9915L40.3405 93.4027L41.2937 92.2378" stroke="#1A2E35" stroke-width="0.746094" stroke-linecap="round" stroke-linejoin="round"/>
<path d="M118.71 127.327C118.71 127.327 114.087 130.055 110.803 135.54C107.519 141.024 104.915 148.739 108.959 149.702L112.804 149.556L120.206 147.014L119.43 145.512C119.43 145.512 112.948 148.947 111.84 148.947C110.732 148.947 109.292 149.224 108.682 148.78C108.073 148.337 110.813 138.365 116.673 135.042C122.532 131.718 118.71 127.327 118.71 127.327Z" fill="#8956BC"/>
<path d="M118.71 127.327C118.71 127.327 114.087 130.055 110.803 135.54C107.519 141.024 104.915 148.739 108.959 149.702L112.804 149.556L120.206 147.014L119.43 145.512C119.43 145.512 112.948 148.947 111.84 148.947C110.732 148.947 109.292 149.224 108.682 148.78C108.073 148.337 110.813 138.365 116.673 135.042C122.532 131.718 118.71 127.327 118.71 127.327Z" stroke="#025C60" stroke-width="0.373047" stroke-linecap="round" stroke-linejoin="round"/>
<g opacity="0.1">
<path d="M118.71 127.327C118.71 127.327 114.087 130.055 110.803 135.54C107.519 141.024 104.915 148.739 108.959 149.702L112.804 149.556L120.206 147.014L119.43 145.512C119.43 145.512 112.948 148.947 111.84 148.947C110.732 148.947 109.292 149.224 108.682 148.78C108.073 148.337 110.813 138.365 116.673 135.042C122.532 131.718 118.71 127.327 118.71 127.327ZM118.71 127.327C118.71 127.327 114.087 130.055 110.803 135.54C107.519 141.024 104.915 148.739 108.959 149.702L112.804 149.556L120.206 147.014L119.43 145.512C119.43 145.512 112.948 148.947 111.84 148.947C110.732 148.947 109.292 149.224 108.682 148.78C108.073 148.337 110.813 138.365 116.673 135.042C122.532 131.718 118.71 127.327 118.71 127.327Z" fill="black"/>
</g>
<path d="M122.921 123.74C122.921 123.74 122.921 122.134 125.358 121.912C127.796 121.69 128.14 124.04 128.14 124.04H127.3C127.3 124.04 127.321 122.633 125.53 122.525C123.74 122.417 123.807 124.04 123.807 124.04L122.921 123.74Z" fill="#8956BC"/>
<path d="M122.921 123.74C122.921 123.74 122.921 122.134 125.358 121.912C127.796 121.69 128.14 124.04 128.14 124.04H127.3C127.3 124.04 127.321 122.633 125.53 122.525C123.74 122.417 123.807 124.04 123.807 124.04L122.921 123.74Z" stroke="#025C60" stroke-width="0.373047" stroke-linecap="round" stroke-linejoin="round"/>
<path d="M119.319 149.694C114.167 149.694 115.145 126.59 115.736 125.438C116.328 124.286 131.276 123.721 132.749 124.206C134.223 124.69 140.133 147.72 136.872 149.549L119.319 149.694Z" fill="#8956BC"/>
<path d="M119.319 149.694C114.167 149.694 115.145 126.59 115.736 125.438C116.328 124.286 131.276 123.721 132.749 124.206C134.223 124.69 140.133 147.72 136.872 149.549L119.319 149.694Z" stroke="#025C60" stroke-width="0.373047" stroke-linecap="round" stroke-linejoin="round"/>
<g opacity="0.1">
<path d="M119.319 149.694C114.167 149.694 115.145 126.59 115.736 125.438C116.328 124.286 131.276 123.721 132.749 124.206C134.223 124.69 140.133 147.72 136.872 149.549L119.319 149.694ZM119.319 149.694C114.167 149.694 115.145 126.59 115.736 125.438C116.328 124.286 131.276 123.721 132.749 124.206C134.223 124.69 140.133 147.72 136.872 149.549L119.319 149.694Z" fill="#038477"/>
</g>
<path d="M115.736 125.438C117.602 125.837 118.676 133.399 121.186 135.324C123.696 137.25 135.534 136.834 136.872 135.324C138.211 133.815 135.594 125.328 133.689 124.032C131.784 122.735 130.434 123.995 125.082 123.4C117.145 122.517 115.736 125.438 115.736 125.438Z" fill="#038477"/>
<path d="M115.736 125.438C117.602 125.837 118.676 133.399 121.186 135.324C123.696 137.25 135.534 136.834 136.872 135.324C138.211 133.815 135.594 125.328 133.689 124.032C131.784 122.735 130.434 123.995 125.082 123.4C117.145 122.517 115.736 125.438 115.736 125.438Z" fill="#038477" stroke="#025C60" stroke-width="0.373047" stroke-linecap="round" stroke-linejoin="round"/>
<path d="M129.322 129.788L131.515 131.58C131.645 131.686 131.659 131.88 131.545 132.003L129.839 133.846C129.729 133.965 129.543 133.971 129.425 133.859L127.248 131.794C127.126 131.679 127.127 131.484 127.25 131.37L128.939 129.8C129.046 129.701 129.209 129.696 129.322 129.788Z" fill="#8956BC"/>
<path d="M129.322 129.788L131.515 131.58C131.645 131.686 131.659 131.88 131.545 132.003L129.839 133.846C129.729 133.965 129.543 133.971 129.425 133.859L127.248 131.794C127.126 131.679 127.127 131.484 127.25 131.37L128.939 129.8C129.046 129.701 129.209 129.696 129.322 129.788Z" stroke="#025C60" stroke-width="0.373047" stroke-linecap="round" stroke-linejoin="round"/>
<g opacity="0.1">
<path d="M129.322 129.788L131.515 131.58C131.645 131.686 131.659 131.88 131.545 132.003L129.839 133.846C129.729 133.965 129.543 133.971 129.425 133.859L127.248 131.794C127.126 131.679 127.127 131.484 127.25 131.37L128.939 129.8C129.046 129.701 129.209 129.696 129.322 129.788ZM129.322 129.788L131.515 131.58C131.645 131.686 131.659 131.88 131.545 132.003L129.839 133.846C129.729 133.965 129.543 133.971 129.425 133.859L127.248 131.794C127.126 131.679 127.127 131.484 127.25 131.37L128.939 129.8C129.046 129.701 129.209 129.696 129.322 129.788Z" fill="black"/>
</g>
<path d="M122.088 139.191C122.088 139.191 132.002 140.007 136.871 138.748C136.871 138.748 137.822 139.412 138.265 140.742C138.708 142.071 139.633 146.614 136.871 147.778C134.11 148.941 124.193 148.719 122.864 147.39C121.534 146.06 122.088 139.191 122.088 139.191Z" fill="#8956BC"/>
<path d="M122.088 139.191C122.088 139.191 132.002 140.007 136.871 138.748C136.871 138.748 137.822 139.412 138.265 140.742C138.708 142.071 139.633 146.614 136.871 147.778C134.11 148.941 124.193 148.719 122.864 147.39C121.534 146.06 122.088 139.191 122.088 139.191Z" stroke="#025C60" stroke-width="0.373047" stroke-linecap="round" stroke-linejoin="round"/>
<g opacity="0.1">
<path d="M122.088 139.191C122.088 139.191 132.002 140.007 136.871 138.748C136.871 138.748 137.822 139.412 138.265 140.742C138.708 142.071 139.633 146.614 136.871 147.778C134.11 148.941 124.193 148.719 122.864 147.39C121.534 146.06 122.088 139.191 122.088 139.191ZM122.088 139.191C122.088 139.191 132.002 140.007 136.871 138.748C136.871 138.748 137.822 139.412 138.265 140.742C138.708 142.071 139.633 146.614 136.871 147.778C134.11 148.941 124.193 148.719 122.864 147.39C121.534 146.06 122.088 139.191 122.088 139.191Z" fill="black"/>
</g>
<path d="M122.089 139.191C122.089 139.191 123.252 142.33 123.862 142.81C124.471 143.291 137.35 143.291 138.777 142.127C140.205 140.963 138.249 138.858 136.872 138.748C136.872 138.748 127.851 139.8 122.089 139.191Z" fill="#8956BC"/>
<path d="M122.089 139.191C122.089 139.191 123.252 142.33 123.862 142.81C124.471 143.291 137.35 143.291 138.777 142.127C140.205 140.963 138.249 138.858 136.872 138.748C136.872 138.748 127.851 139.8 122.089 139.191Z" stroke="#025C60" stroke-width="0.373047" stroke-linecap="round" stroke-linejoin="round"/>
<path d="M117.935 138.527C117.935 138.527 118.267 145.119 118.932 146.615C118.932 146.615 117.417 147.501 115.737 146.615C114.057 145.728 114.334 140.049 114.666 140.063C114.998 140.077 117.935 138.527 117.935 138.527Z" fill="#8956BC"/>
<path d="M117.935 138.527C117.935 138.527 118.267 145.119 118.932 146.615C118.932 146.615 117.417 147.501 115.737 146.615C114.057 145.728 114.334 140.049 114.666 140.063C114.998 140.077 117.935 138.527 117.935 138.527Z" stroke="#025C60" stroke-width="0.373047" stroke-linecap="round" stroke-linejoin="round"/>
<g opacity="0.1">
<path d="M117.935 138.527C117.935 138.527 118.267 145.119 118.932 146.615C118.932 146.615 117.417 147.501 115.737 146.615C114.057 145.728 114.334 140.049 114.666 140.063C114.998 140.077 117.935 138.527 117.935 138.527ZM117.935 138.527C117.935 138.527 118.267 145.119 118.932 146.615C118.932 146.615 117.417 147.501 115.737 146.615C114.057 145.728 114.334 140.049 114.666 140.063C114.998 140.077 117.935 138.527 117.935 138.527Z" fill="black"/>
</g>
<path d="M117.933 138.521L115.437 139.02C115.437 139.02 113.058 140.848 114.111 141.457C115.164 142.067 117.878 140.571 117.933 138.521Z" fill="#8956BC"/>
<path d="M117.933 138.521L115.437 139.02C115.437 139.02 113.058 140.848 114.111 141.457C115.164 142.067 117.878 140.571 117.933 138.521Z" stroke="#025C60" stroke-width="0.373047" stroke-linecap="round" stroke-linejoin="round"/>
<path d="M-5.71143 149.698H145.213" stroke="#1A2E35" stroke-width="0.373047" stroke-linecap="round" stroke-linejoin="round"/>
</g>
</g>
</g>
<defs>
<clipPath id="clip0_1_760">
<rect width="160" height="160" rx="80" fill="white"/>
</clipPath>
<clipPath id="clip1_1_760">
<rect width="191" height="191" fill="white" transform="translate(-26 -26)"/>
</clipPath>
</defs>
</svg>
