<svg width="160" height="160" viewBox="0 0 160 160" fill="none" xmlns="http://www.w3.org/2000/svg">
<g clip-path="url(#clip0_1_1495)">
<rect width="160" height="160" rx="80" fill="white"/>
<g clip-path="url(#clip1_1_1495)">
<mask id="mask0_1_1495" style="mask-type:luminance" maskUnits="userSpaceOnUse" x="-41" y="-52" width="241" height="241">
<path d="M200 -52H-41V189H200V-52Z" fill="white"/>
</mask>
<g mask="url(#mask0_1_1495)">
<mask id="mask1_1_1495" style="mask-type:luminance" maskUnits="userSpaceOnUse" x="31" y="58" width="39" height="53">
<path d="M31.8861 58.7763H69.8213V110.621H31.8861V58.7763Z" fill="white"/>
</mask>
<g mask="url(#mask1_1_1495)">
<path d="M62.0792 73.2178C64.8119 70.8924 66.4377 74.4056 66.4377 74.4056C71.5811 77.1186 65.4548 107.066 65.4548 107.066L57.7399 107.583L58.8645 90.2712C58.8645 90.2712 59.347 75.5432 62.0792 73.2178Z" fill="#34002F"/>
<path d="M63.6155 74.8807C63.5155 72.8753 64.6065 69.8681 65.589 67.6056C66.3649 65.8193 67.0716 64.497 67.0716 64.497C67.0716 64.497 62.3864 58.3738 59.861 58.7882C59.2853 58.8825 58.8218 59.3172 58.5518 60.2422C57.0984 65.2217 51.2102 66.5247 51.2102 66.5247C51.2102 66.5247 60.6201 85.7494 63.156 85.9283C65.6923 86.108 63.7322 77.2066 63.6155 74.8807Z" fill="#FDBD96"/>
<path d="M58.6243 110.613C58.6243 110.613 60.7679 108.981 62.1717 104.824C63.1056 102.059 63.7119 98.1782 63.1446 92.9168C62.2159 84.3008 61.4525 76.292 59.2643 71.3839C59.1639 71.1581 59.0599 70.9387 58.9532 70.7267C57.8321 68.4966 56.3616 67.0171 54.362 66.5679C54.362 66.5679 52.0624 66.2992 49.0249 67.2226C48.5182 67.3768 47.9909 67.564 47.4499 67.7912C43.853 69.3024 39.6688 72.5822 37.0338 79.6281C31.6292 94.0794 31.8876 109.579 31.8876 109.579L43.5163 110.029L58.6243 110.613Z" fill="#B4D0FC"/>
<path d="M69.2785 77.5007C67.9785 73.1531 64.1995 72.4216 64.1995 72.4216C64.1995 72.4216 65.4185 73.8029 65.7048 80.2648C66.2515 92.6207 62.3464 110.618 62.3464 110.618L68.288 109.584C68.288 109.584 68.288 109.584 67.3836 105.451C66.4791 101.318 71.3978 84.5861 69.2785 77.5007Z" fill="#90B3DA"/>
<path d="M55.546 76.1192C55.0298 73.1252 58.1314 71.8736 59.2648 71.3898L58.953 70.7322L49.0245 67.2278L47.6216 66.7327L47.4495 67.7966L45.5494 79.5728L34.8633 103.221C34.8633 103.221 40.6256 107.821 43.5163 110.034L58.6243 110.618C58.6243 110.618 60.7679 108.987 62.1717 104.829C58.3614 104.191 57.6724 103.786 55.9113 100.824C54.1234 97.8168 49.0854 99.6044 48.5164 96.0289C47.9478 92.4534 56.5618 82.0112 55.546 76.1192Z" fill="#90B3DA"/>
</g>
<path d="M68.9554 105.502C66.4568 105.768 55.1833 105.502 55.1833 105.502C55.1833 105.502 49.0483 110.837 51.7151 110.836C54.3824 110.836 57.0499 110.97 60.384 111.503C63.7181 112.037 67.5861 110.036 68.3861 110.703C69.1865 111.37 72.1204 112.437 72.5206 111.637C72.9208 110.836 70.6536 109.37 70.6536 109.37C70.6536 109.37 72.5206 110.836 74.7881 112.037C77.0556 113.237 77.1888 111.636 77.1888 111.636C77.1888 111.636 78.6554 112.703 79.5893 112.037C80.5231 111.37 79.1897 110.303 77.589 108.703C75.9884 107.103 71.454 105.235 68.9554 105.502Z" fill="#F9AE8F"/>
<path d="M172.776 114.475V112.661C172.776 112.176 172.265 111.783 171.637 111.783H-15.7608C-16.3903 111.783 -16.9004 112.176 -16.9004 112.661V114.475C-16.9004 114.959 -16.3903 115.353 -15.7608 115.353H171.636C172.265 115.353 172.776 114.959 172.776 114.475Z" fill="white"/>
<mask id="mask2_1_1495" style="mask-type:luminance" maskUnits="userSpaceOnUse" x="70" y="44" width="12" height="22">
<path d="M70.8724 44.5503H81.4348V65.2287H70.8724V44.5503Z" fill="white"/>
</mask>
<g mask="url(#mask2_1_1495)">
<path d="M80.6924 53.2796C81.4864 46.9311 75.9215 44.5514 75.9215 44.5514L70.8726 63.39C70.8726 63.39 79.8991 59.6282 80.6924 53.2796Z" fill="#230021"/>
<path d="M73.8298 55.5604C74.6028 52.5488 75.3843 49.5251 76.1754 46.4959C76.1472 46.4874 76.1211 46.4772 76.124 46.4796L76.1287 46.4821L76.1481 46.4905L76.1883 46.5086L76.2702 46.5477C76.3255 46.5738 76.38 46.603 76.4353 46.6311C76.5453 46.6896 76.6551 46.7505 76.7631 46.8143C76.9798 46.9415 77.1907 47.0808 77.396 47.2269C77.8075 47.5193 78.194 47.8473 78.5483 48.2059C79.2588 48.9217 79.8372 49.7657 80.2186 50.6962C80.4091 51.161 80.5569 51.6444 80.6506 52.1407C80.7421 52.6374 80.7872 53.1426 80.7939 53.6511C80.7858 54.6727 80.6457 55.6858 80.2543 56.6282C80.0762 57.1048 79.8305 57.556 79.5723 57.9978C79.4329 58.2132 79.3014 58.4337 79.1461 58.6398C79.07 58.7436 78.9991 58.8514 78.9185 58.9522L78.6784 59.2555C78.6008 59.3588 78.5128 59.4537 78.4289 59.5523C78.3428 59.6494 78.2616 59.75 78.1721 59.8437C77.994 60.0323 77.8197 60.2235 77.6316 60.4032C77.265 60.7709 76.874 61.1152 76.4739 61.4491C76.0738 61.7829 75.6556 62.0962 75.2319 62.4015C74.8061 62.7038 74.369 62.9919 73.9247 63.2682C73.0361 63.8178 72.1089 64.3236 71.1621 64.7494L71.4131 64.9688L73.8298 55.5604ZM76.4735 45.6995C76.4759 45.6995 76.4315 45.6834 76.3945 45.6734L76.2816 46.082C75.4267 49.1942 74.5604 52.3111 73.6857 55.4424L71.0534 64.8726L70.9506 65.2408L71.3045 65.0922C71.8016 64.8831 72.277 64.6526 72.7518 64.4102C73.2247 64.1663 73.6904 63.9097 74.1476 63.6372C74.6048 63.3648 75.0547 63.0807 75.4952 62.7801C75.9332 62.4769 76.3668 62.1651 76.7834 61.8304C77.1996 61.4961 77.6082 61.15 77.9945 60.7776C78.1917 60.5962 78.3765 60.4014 78.5646 60.2095C78.6594 60.1142 78.746 60.0109 78.8371 59.9118C78.9261 59.8114 79.0189 59.7136 79.1028 59.6079L79.3599 59.2955C79.446 59.1917 79.5228 59.0801 79.6047 58.9726C79.7714 58.7592 79.9151 58.5292 80.0666 58.3045C80.3496 57.8416 80.6196 57.3661 80.8215 56.8571L80.9014 56.6681C80.9282 56.6052 80.9472 56.5391 80.9706 56.4749L81.1038 56.0857C81.1429 55.9543 81.1748 55.8204 81.21 55.6876L81.262 55.4881C81.2783 55.4214 81.2872 55.3529 81.3002 55.2853L81.3716 54.878C81.3897 54.7428 81.401 54.6073 81.4162 54.4717L81.4376 54.2684C81.4434 54.2008 81.4448 54.1322 81.4486 54.0642L81.4669 53.6545C81.4707 53.1073 81.4318 52.5577 81.3423 52.0143C81.25 51.471 81.0991 50.9372 80.8992 50.422C80.4991 49.3899 79.8789 48.4478 79.118 47.6516C78.738 47.2519 78.3236 46.8869 77.8807 46.5597C77.6593 46.3955 77.4321 46.2397 77.1965 46.0949C77.0784 46.0226 76.9586 45.9525 76.8368 45.8849C76.775 45.8521 76.714 45.8182 76.6507 45.7863L76.5549 45.7381L76.5054 45.7144L76.4797 45.7024L76.4735 45.6995Z" fill="#34002F"/>
</g>
<mask id="mask3_1_1495" style="mask-type:luminance" maskUnits="userSpaceOnUse" x="60" y="43" width="19" height="25">
<path d="M60.3147 43.3542H78.9104V67.603H60.3147V43.3542Z" fill="white"/>
</mask>
<g mask="url(#mask3_1_1495)">
<path d="M65.59 67.6115C66.3659 65.8252 67.0731 64.5028 67.0731 64.5028C67.0731 64.5028 62.8402 54.1465 60.3148 54.5609C60.5621 58.0911 63.6527 65.9038 65.59 67.6115Z" fill="#FB9B77"/>
<path d="M72.0573 66.4986C75.0399 65.4522 79.0517 59.7225 78.9013 53.7124C78.8874 53.1401 78.837 52.5679 78.7455 52.0022C78.5322 50.6682 77.9129 48.9192 77.1944 47.7138C76.9215 47.2552 76.6205 46.8263 76.2971 46.4307C71.9797 41.1407 63.6049 41.7057 61.8958 55.9136C61.8048 56.6678 61.7329 57.4609 61.6816 58.2932C61.6787 58.3441 61.6753 58.3956 61.6724 58.447C61.6557 58.7359 61.8659 59.2519 62.1649 59.8162C62.2912 60.0547 62.4334 60.3029 62.5811 60.5452C62.6331 60.6305 62.6853 60.715 62.7378 60.7983C63.1401 61.4365 63.554 62.0086 63.7765 62.2525C65.3843 64.019 69.0705 67.5463 72.0573 66.4986Z" fill="#FDBD96"/>
<path d="M75.1969 63.1767C75.1969 63.1767 77.3581 63.9738 77.3443 63.2028C77.3132 61.4573 77.6631 59.2249 77.6631 59.2249" fill="#FDBD96"/>
<path d="M72.3864 61.9264C72.8588 62.5713 73.9029 63.987 74.3219 64.4951C74.4043 64.5946 74.367 64.7461 74.2465 64.7932C73.7837 64.9762 72.7809 65.24 72.1708 64.4275C71.596 63.6628 71.8211 62.5673 72.003 61.9896C72.0568 61.8191 72.2806 61.7821 72.3864 61.9264Z" fill="#FFF4F3"/>
</g>
<path d="M78.1048 50.7772C78.2353 50.531 78.1278 50.2251 77.8721 50.1142L77.5552 49.9765C77.4989 50.1137 77.43 50.2666 77.3628 50.4114C77.2948 50.558 77.2238 50.7037 77.1504 50.849C77.0047 51.1395 76.8494 51.4261 76.688 51.709C76.3638 52.2743 76.0103 52.8239 75.6265 53.3512C75.2427 53.8778 74.8279 54.3828 74.3764 54.8518C73.9259 55.3218 73.4399 55.7576 72.9126 56.1381C72.3868 56.521 71.8192 56.8454 71.2171 57.092C70.9165 57.2168 70.6061 57.3167 70.2904 57.3962C69.9742 57.4747 69.6522 57.5354 69.3264 57.5644C68.6748 57.6287 68.0127 57.5925 67.3645 57.4683C66.7153 57.346 66.0831 57.132 65.4746 56.8653C66.068 57.1639 66.691 57.4134 67.3415 57.5725C67.9911 57.7334 68.6665 57.8079 69.3413 57.7773C69.6789 57.7655 70.0155 57.7211 70.3479 57.6568C70.68 57.5917 71.0096 57.5049 71.3296 57.3915C71.9707 57.1677 72.583 56.8604 73.1525 56.4904C73.7244 56.1227 74.2559 55.6958 74.7507 55.2319C75.2465 54.7684 75.7057 54.2674 76.1333 53.7421C76.5608 53.2168 76.9576 52.6668 77.3258 52.0977C77.5092 51.813 77.6864 51.5234 77.8549 51.2286C77.9397 51.0815 78.022 50.9322 78.1026 50.7818C78.1035 50.7798 78.1039 50.7785 78.1048 50.7772Z" fill="#11181E"/>
<mask id="mask4_1_1495" style="mask-type:luminance" maskUnits="userSpaceOnUse" x="21" y="39" width="58" height="69">
<path d="M21.5293 39.4736H78.4321V107.013H21.5293V39.4736Z" fill="white"/>
</mask>
<g mask="url(#mask4_1_1495)">
<path d="M21.5305 95.2659C21.3899 80.6647 35.477 80.9385 35.477 80.9385C48.1233 85.3269 39.7193 93.7044 37.5543 101.565C35.3884 109.425 21.671 109.867 21.5305 95.2659Z" fill="#34002F"/>
<path d="M64.254 56.8906C70.9502 57.3798 75.5529 53.7418 77.5436 51.7502C78.2969 50.9968 78.6062 49.9105 78.3686 48.8709C78.1267 47.8145 77.7884 46.8563 77.3698 45.9925C72.9193 36.8135 59.3537 38.2787 54.9923 44.6021C48.5497 53.9419 54.9302 52.7526 40.2223 63.8941C25.5139 75.0355 32.6859 87.9839 32.6859 87.9839C33.7026 86.4847 34.8618 84.5835 36.1338 82.5843C40.3446 75.9651 45.7914 68.2602 51.4089 70.4123C64.4082 75.3927 61.1543 56.6635 64.254 56.8906Z" fill="#34002F"/>
<path d="M64.2538 56.8873C70.95 57.3764 75.5529 53.7384 77.5436 51.7468C78.297 50.9935 78.606 49.9072 78.3679 48.868C78.126 47.8116 77.788 46.8534 77.3693 45.9896C77.1484 46.2605 76.9717 46.5983 76.844 47.0078C76.844 47.0078 70.9643 56.0873 65.4358 56.0658C59.9073 56.0444 61.0969 59.1745 56.2807 64.0412C51.4641 68.9074 39.354 67.3799 36.2804 81.5851C36.2032 81.9412 36.1548 82.2728 36.1338 82.581C40.3446 75.9617 45.7914 68.2569 51.4089 70.4089C64.4082 75.3894 61.1541 56.6601 64.2538 56.8873Z" fill="#230021"/>
</g>
<path d="M74.0905 45.3688L74.169 45.4344L75.6134 43.9361L75.5472 43.8824L75.4885 43.8362L75.3738 43.748C75.2977 43.6905 75.2218 43.6344 75.1462 43.5791C74.9947 43.4686 74.8422 43.362 74.6889 43.2571C74.3823 43.048 74.0704 42.8481 73.7537 42.6562C73.1204 42.2723 72.4659 41.9193 71.7916 41.5993C70.4433 40.9616 69.01 40.4526 67.5065 40.1502C66.0063 39.8469 64.4304 39.7593 62.8822 39.9654C61.3344 40.1678 59.8315 40.6706 58.4975 41.4045C57.1584 42.1356 55.9865 43.0815 54.9687 44.1249C54.7138 44.3865 54.4693 44.6545 54.2325 44.9278C54.1125 45.0655 54.0009 45.1987 53.8871 45.3335C53.7733 45.4674 53.6619 45.6035 53.5494 45.7387C53.1014 46.2812 52.6656 46.8335 52.2418 47.3936C51.818 47.9537 51.4075 48.5238 51.0111 49.1005C50.6144 49.6766 50.233 50.261 49.8601 50.8444C49.1119 52.0116 48.4106 53.1738 47.58 54.2181C45.9374 56.3206 43.6444 57.9385 41.2643 59.4161C40.6671 59.7852 40.0622 60.1425 39.4492 60.4973C38.8257 60.8588 38.2143 61.2384 37.6138 61.6336C36.4195 62.4327 35.2732 63.3016 34.2213 64.2669C33.1673 65.2294 32.202 66.2824 31.3714 67.4249C30.9561 67.996 30.5746 68.5889 30.2323 69.2007C29.8908 69.8133 29.5914 70.4466 29.3332 71.0933C28.8213 72.3886 28.4899 73.7458 28.367 75.1189C28.3065 75.805 28.2964 76.4952 28.3426 77.1825C28.3654 77.526 28.404 77.8687 28.4573 78.2101C28.4846 78.3806 28.516 78.5511 28.5522 78.7211C28.5702 78.8064 28.5901 78.8912 28.6111 78.9764L28.6446 79.1045C28.6568 79.1487 28.668 79.188 28.6836 79.2379L28.8436 78.9235C28.7206 78.9744 28.6111 79.0244 28.4973 79.0768C28.3844 79.1293 28.273 79.1828 28.1626 79.2375C27.9416 79.3471 27.7236 79.4609 27.5078 79.5785C27.0769 79.8141 26.6563 80.0652 26.2462 80.3309C25.4265 80.8625 24.65 81.4529 23.9379 82.1076C23.227 82.7619 22.5783 83.4802 22.0349 84.265C21.762 84.6564 21.5168 85.0646 21.3025 85.4865C21.0868 85.9081 20.9047 86.3441 20.7576 86.79C20.6099 87.2351 20.4976 87.691 20.4258 88.1516C20.4077 88.2668 20.3894 88.3819 20.3776 88.4977L20.3575 88.6711L20.3432 88.844L20.3142 89.1892C20.3033 89.3044 20.3004 89.4198 20.2932 89.5349C20.2642 89.9959 20.2633 90.4578 20.27 90.9189C20.2852 91.3799 20.3147 91.8409 20.37 92.299C20.4847 93.2139 20.688 94.1224 21.0343 94.9844C21.2073 95.4149 21.4128 95.8341 21.6638 96.2289C21.7894 96.4262 21.9249 96.6181 22.074 96.7999C22.2235 96.9814 22.3826 97.1572 22.5673 97.3076C22.3864 97.1534 22.2322 96.9738 22.0878 96.7899C21.9439 96.6051 21.814 96.4112 21.6939 96.2122C21.4538 95.8141 21.2599 95.3925 21.099 94.9616C20.777 94.0987 20.5987 93.1939 20.5077 92.2848C20.4644 91.8295 20.4468 91.3723 20.4434 90.9155C20.4485 90.4583 20.461 90.0011 20.5014 89.5454C20.5115 89.4311 20.5171 89.3173 20.5304 89.2035L20.5677 88.8621L20.5862 88.6916L20.6099 88.5225C20.6242 88.4096 20.6451 88.2978 20.6652 88.1857C20.7471 87.7381 20.8678 87.2976 21.022 86.8676C21.1762 86.4376 21.363 86.0181 21.583 85.6137C21.8017 85.2085 22.0496 84.8178 22.3239 84.4436C22.8702 83.6936 23.5179 83.0096 24.2256 82.3877C24.9343 81.7658 25.7057 81.207 26.5166 80.7065C26.9223 80.4566 27.338 80.2209 27.7629 80.0013C27.9753 79.8918 28.1898 79.7856 28.4065 79.6851C28.5151 79.6352 28.6236 79.5854 28.7327 79.5379C28.8407 79.4908 28.9536 79.4426 29.0569 79.4026L29.2832 79.3145L29.2169 79.0884C29.2078 79.0574 29.1971 79.015 29.1875 78.9773L29.1594 78.8593C29.1417 78.7803 29.125 78.7004 29.1098 78.6198C29.0792 78.4589 29.0531 78.2965 29.0313 78.1336C28.9884 77.8078 28.9587 77.4791 28.9445 77.1495C28.915 76.4903 28.9398 75.8289 29.0132 75.1722C29.1614 73.8587 29.5084 72.5663 30.0261 71.3376C30.2871 70.7242 30.5871 70.1246 30.9271 69.5455C31.2681 68.9664 31.6457 68.407 32.0558 67.8679C32.8759 66.7892 33.8254 65.7975 34.8603 64.8913C35.8937 63.9827 37.0193 63.1655 38.1928 62.4155C38.7833 62.0444 39.3845 61.6882 39.9974 61.3497C40.6218 61.0059 41.248 60.6542 41.8652 60.2909C43.0996 59.5632 44.3149 58.7922 45.4679 57.9226C46.0441 57.4873 46.6028 57.0253 47.1333 56.5311C47.6628 56.0368 48.162 55.5077 48.621 54.9543C49.0805 54.4009 49.5007 53.8256 49.8983 53.249C50.2959 52.6724 50.6749 52.0944 51.0573 51.5259C51.8198 50.3871 52.608 49.2819 53.4575 48.2123C53.8813 47.6774 54.3169 47.1504 54.7654 46.6322C54.8783 46.5032 54.9892 46.3727 55.1035 46.2446C55.2173 46.1165 55.3311 45.9853 55.4431 45.8639C55.6682 45.6173 55.8999 45.3763 56.1384 45.1434C57.0928 44.2128 58.1619 43.4006 59.3386 42.7952C60.5126 42.1871 61.7932 41.7961 63.1076 41.6551C64.4219 41.5123 65.7655 41.6161 67.0689 41.9122C68.3739 42.2074 69.6404 42.6894 70.8401 43.2937C71.4397 43.5961 72.0234 43.9303 72.5864 44.2909C72.8678 44.4715 73.1441 44.6587 73.4128 44.8515C73.5471 44.9481 73.6794 45.0463 73.8084 45.1454C73.8727 45.1949 73.9365 45.2449 73.999 45.2944L74.0905 45.3688Z" fill="#34002F"/>
<mask id="mask5_1_1495" style="mask-type:luminance" maskUnits="userSpaceOnUse" x="21" y="70" width="36" height="43">
<path d="M21.6761 70.0308H56.5616V112.206H21.6761V70.0308Z" fill="white"/>
</mask>
<g mask="url(#mask5_1_1495)">
<path d="M56.0137 107.008C56.3736 105.921 56.562 105.074 56.562 105.074C56.562 105.074 41.967 103.396 38.3504 103.008C36.1408 102.771 52.0414 87.121 53.5916 80.2752C55.0642 73.7709 53.0382 70.5308 50.1732 70.1142C50.0233 70.0923 49.8706 70.078 49.7165 70.0713C49.7165 70.0713 44.4209 68.7798 35.7668 81.4376C27.1131 94.0955 17.9424 108.174 23.2381 110.886C28.5339 113.599 49.587 111.274 52.2996 111.662C54.0665 111.914 55.3402 109.041 56.0132 107.008L56.0137 107.008Z" fill="#B4D0FC"/>
<path d="M52.3001 111.662C54.067 111.915 55.3407 109.042 56.0137 107.009C52.7805 112.696 27.4729 110.465 24.6293 108.556C21.7848 106.646 28.7328 95.228 37.5355 81.7802C43.3188 72.9447 47.7883 70.6498 50.1737 70.1149C50.0238 70.0931 49.8714 70.0788 49.7172 70.0721C49.7172 70.0721 44.4214 68.7805 35.7673 81.4384C27.1136 94.0962 17.9429 108.175 23.2386 110.887C28.5344 113.6 49.5875 111.275 52.3001 111.662Z" fill="#90B3DA"/>
</g>
<mask id="mask6_1_1495" style="mask-type:luminance" maskUnits="userSpaceOnUse" x="91" y="30" width="39" height="21">
<path d="M91.1987 30.2509H129.952V50.8549H91.1987V30.2509Z" fill="white"/>
</mask>
<g mask="url(#mask6_1_1495)">
<path d="M94.3711 46.688H126.78C128.532 46.688 129.953 45.2678 129.952 43.5152V33.4205C129.952 31.6683 128.532 30.2477 126.78 30.2477H94.3711C92.6189 30.2477 91.1986 31.6683 91.1986 33.4205V43.5152C91.1986 45.2674 92.6189 46.688 94.3711 46.688Z" fill="#B4D0FC"/>
<path d="M96.3234 50.849V44.6428L105.552 45.4972L96.3234 50.849Z" fill="#B4D0FC"/>
<path d="M95.183 33.845C94.8911 33.845 94.5997 33.845 94.3083 33.845C93.9669 33.845 93.7134 33.6464 93.6986 33.4112C93.6839 33.1769 93.9892 32.9774 94.3083 32.9774C94.3268 32.9774 94.3449 32.9774 94.3634 32.9774C94.7838 32.9732 95.2053 32.9774 95.6264 32.9774C96.517 32.9774 97.408 32.9774 98.2986 32.9774C99.5377 32.9774 100.776 32.9774 102.016 32.9774C103.477 32.9774 104.937 32.9774 106.398 32.9774C107.976 32.9774 109.554 32.9774 111.131 32.9774C112.684 32.9774 114.236 32.9774 115.788 32.9774C117.21 32.9774 118.633 32.9774 120.055 32.9774C121.22 32.9774 122.386 32.9774 123.552 32.9774C124.338 32.9774 125.124 32.9774 125.911 32.9774C126.202 32.9774 126.494 32.9774 126.785 32.9774C127.127 32.9774 127.38 33.176 127.395 33.4112C127.41 33.6455 127.104 33.845 126.785 33.845C126.767 33.845 126.749 33.845 126.73 33.845C126.31 33.8493 125.888 33.845 125.467 33.845C124.577 33.845 123.686 33.845 122.795 33.845C121.556 33.845 120.317 33.845 119.078 33.845C117.617 33.845 116.156 33.845 114.695 33.845C113.118 33.845 111.54 33.845 109.962 33.845C108.41 33.845 106.858 33.845 105.305 33.845C103.883 33.845 102.461 33.845 101.039 33.845C99.8736 33.845 98.7076 33.845 97.5419 33.845C96.7558 33.845 95.9692 33.845 95.183 33.845Z" fill="white"/>
<path d="M94.7204 38.2549C94.5827 38.2549 94.4457 38.2549 94.308 38.2549C93.9666 38.2549 93.7131 38.0558 93.6984 37.8211C93.6837 37.5867 93.9889 37.3873 94.308 37.3873C94.3172 37.3873 94.3257 37.3873 94.3341 37.3873C94.5327 37.3859 94.7309 37.3873 94.9295 37.3873C95.3495 37.3873 95.7692 37.3873 96.1892 37.3873C96.7729 37.3873 97.3569 37.3873 97.9407 37.3873C98.6288 37.3873 99.3175 37.3873 100.006 37.3873C100.75 37.3873 101.494 37.3873 102.237 37.3873C102.969 37.3873 103.7 37.3873 104.432 37.3873C105.102 37.3873 105.772 37.3873 106.442 37.3873C106.992 37.3873 107.541 37.3873 108.091 37.3873C108.461 37.3873 108.832 37.3873 109.202 37.3873C109.34 37.3873 109.477 37.3873 109.615 37.3873C109.957 37.3873 110.21 37.5859 110.224 37.8211C110.239 38.0554 109.934 38.2549 109.615 38.2549C109.606 38.2549 109.597 38.2549 109.589 38.2549C109.39 38.2562 109.192 38.2549 108.993 38.2549C108.573 38.2549 108.153 38.2549 107.734 38.2549C107.15 38.2549 106.566 38.2549 105.982 38.2549C105.294 38.2549 104.605 38.2549 103.917 38.2549C103.173 38.2549 102.429 38.2549 101.686 38.2549C100.954 38.2549 100.222 38.2549 99.4909 38.2549C98.8208 38.2549 98.1504 38.2549 97.4803 38.2549C96.9307 38.2549 96.3815 38.2549 95.8319 38.2549C95.4615 38.2549 95.0908 38.2549 94.7204 38.2549Z" fill="white"/>
<path d="M113.557 38.269C113.436 38.269 113.316 38.2694 113.195 38.2694C113.03 38.2699 112.884 38.2206 112.764 38.1425C112.645 38.0644 112.593 37.9481 112.586 37.8356C112.579 37.7276 112.659 37.6042 112.764 37.529C112.875 37.45 113.039 37.4018 113.195 37.4018C113.203 37.4018 113.211 37.4018 113.218 37.4018C113.392 37.4009 113.566 37.4014 113.74 37.4014C114.11 37.4009 114.48 37.4003 114.849 37.3998C115.36 37.3989 115.871 37.3985 116.381 37.398C116.99 37.3976 117.598 37.3965 118.206 37.396C118.855 37.3951 119.502 37.3947 120.15 37.3938C120.796 37.3929 121.443 37.3922 122.089 37.3913C122.675 37.3909 123.261 37.3898 123.847 37.3893C124.331 37.3889 124.814 37.3884 125.298 37.388C125.623 37.388 125.949 37.3876 126.273 37.3871C126.394 37.3871 126.514 37.3867 126.635 37.3867C126.799 37.3867 126.946 37.4355 127.066 37.5136C127.185 37.5917 127.237 37.708 127.244 37.8205C127.251 37.9285 127.171 38.0519 127.066 38.1271C126.955 38.2061 126.791 38.2543 126.635 38.2543C126.627 38.2543 126.619 38.2543 126.612 38.2543C126.438 38.2552 126.264 38.2547 126.09 38.2547C125.72 38.2552 125.35 38.2558 124.981 38.2563C124.47 38.2572 123.959 38.2576 123.449 38.2581C122.84 38.2585 122.232 38.2596 121.624 38.2601C120.975 38.261 120.328 38.2614 119.68 38.2623C119.034 38.2632 118.387 38.2639 117.741 38.2647C117.155 38.2652 116.569 38.2663 115.983 38.2668C115.499 38.2672 115.016 38.2676 114.532 38.2681C114.207 38.2681 113.882 38.2685 113.557 38.269Z" fill="white"/>
<path d="M94.5887 42.6979C94.4949 42.6979 94.4014 42.6979 94.3082 42.6979C94.1428 42.6979 93.9962 42.6488 93.877 42.5707C93.7574 42.4926 93.7057 42.3766 93.6985 42.2641C93.6918 42.1561 93.7713 42.0327 93.877 41.9575C93.9875 41.879 94.152 41.8303 94.3082 41.8303C94.314 41.8303 94.32 41.8303 94.3258 41.8303C94.4606 41.8299 94.5958 41.8303 94.7306 41.8303C95.0173 41.8303 95.3038 41.8303 95.5906 41.8303C95.9869 41.8303 96.3825 41.8303 96.7789 41.8303C97.2508 41.8303 97.7223 41.8303 98.1943 41.8303C98.6973 41.8303 99.1993 41.8303 99.7019 41.8303C100.203 41.8303 100.704 41.8303 101.206 41.8303C101.66 41.8303 102.115 41.8303 102.569 41.8303C102.945 41.8303 103.319 41.8303 103.695 41.8303C103.947 41.8303 104.199 41.8303 104.451 41.8303C104.545 41.8303 104.638 41.8303 104.731 41.8303C104.897 41.8303 105.043 41.8794 105.163 41.9575C105.282 42.0356 105.334 42.1517 105.341 42.2641C105.348 42.3721 105.268 42.4955 105.163 42.5707C105.052 42.6493 104.888 42.6979 104.731 42.6979C104.726 42.6979 104.72 42.6979 104.714 42.6979C104.579 42.6984 104.444 42.6979 104.309 42.6979C104.022 42.6979 103.736 42.6979 103.449 42.6979C103.053 42.6979 102.657 42.6979 102.261 42.6979C101.789 42.6979 101.317 42.6979 100.845 42.6979C100.342 42.6979 99.8402 42.6979 99.3377 42.6979C98.8363 42.6979 98.3351 42.6979 97.8337 42.6979C97.3793 42.6979 96.9246 42.6979 96.4702 42.6979C96.0949 42.6979 95.7202 42.6979 95.3449 42.6979C95.0925 42.6979 94.8406 42.6979 94.5887 42.6979Z" fill="white"/>
<path d="M109.049 42.6976C108.886 42.6976 108.724 42.6976 108.562 42.6976C108.22 42.6976 107.967 42.499 107.953 42.2638C107.938 42.0295 108.243 41.83 108.562 41.83C108.572 41.83 108.582 41.83 108.593 41.83C108.827 41.8286 109.062 41.83 109.296 41.83C109.792 41.83 110.287 41.83 110.783 41.83C111.472 41.83 112.162 41.83 112.852 41.83C113.664 41.83 114.477 41.83 115.29 41.83C116.168 41.83 117.046 41.83 117.924 41.83C118.788 41.83 119.652 41.83 120.516 41.83C121.307 41.83 122.099 41.83 122.89 41.83C123.539 41.83 124.187 41.83 124.836 41.83C125.273 41.83 125.711 41.83 126.148 41.83C126.311 41.83 126.473 41.83 126.635 41.83C126.977 41.83 127.23 42.0286 127.245 42.2638C127.259 42.4981 126.954 42.6976 126.635 42.6976C126.625 42.6976 126.614 42.6976 126.604 42.6976C126.37 42.6989 126.136 42.6976 125.901 42.6976C125.405 42.6976 124.91 42.6976 124.414 42.6976C123.725 42.6976 123.035 42.6976 122.346 42.6976C121.533 42.6976 120.72 42.6976 119.907 42.6976C119.029 42.6976 118.151 42.6976 117.273 42.6976C116.409 42.6976 115.545 42.6976 114.682 42.6976C113.89 42.6976 113.099 42.6976 112.307 42.6976C111.658 42.6976 111.01 42.6976 110.361 42.6976C109.924 42.6976 109.486 42.6976 109.049 42.6976Z" fill="white"/>
</g>
<path d="M12.2581 72.3774C12.9644 72.3774 13.5368 71.805 13.5368 71.0987C13.5368 70.3925 12.9644 69.8201 12.2581 69.8201C11.5519 69.8201 10.9795 70.3925 10.9795 71.0987C10.9795 71.805 11.5519 72.3774 12.2581 72.3774Z" fill="#FFFEFB"/>
<path d="M156.641 84.6786C157.855 84.6786 158.839 83.6943 158.839 82.48C158.839 81.2656 157.855 80.2813 156.641 80.2813C155.426 80.2813 154.442 81.2656 154.442 82.48C154.442 83.6943 155.426 84.6786 156.641 84.6786Z" fill="white"/>
<path d="M139.046 70.3965C140.075 70.3965 140.909 69.5621 140.909 68.5329C140.909 67.5038 140.075 66.6694 139.046 66.6694C138.016 66.6694 137.182 67.5038 137.182 68.5329C137.182 69.5621 138.016 70.3965 139.046 70.3965Z" fill="white"/>
<path d="M143.117 83.8661C143.873 83.8661 144.486 83.2531 144.486 82.4973C144.486 81.7415 143.873 81.1285 143.117 81.1285C142.361 81.1285 141.748 81.7415 141.748 82.4973C141.748 83.2531 142.361 83.8661 143.117 83.8661Z" fill="#FFFEFB"/>
<path d="M18.5845 61.2076C19.3403 61.2076 19.9533 60.5946 19.9533 59.8388C19.9533 59.083 19.3403 58.47 18.5845 58.47C17.8287 58.47 17.2157 59.083 17.2157 59.8388C17.2157 60.5946 17.8287 61.2076 18.5845 61.2076Z" fill="#FFFEFB"/>
<path d="M2.26662 80.6391C3.02242 80.6391 3.63541 80.0261 3.63541 79.2703C3.63541 78.5145 3.02242 77.9015 2.26662 77.9015C1.51082 77.9015 0.897827 78.5145 0.897827 79.2703C0.897827 80.0261 1.51082 80.6391 2.26662 80.6391Z" fill="white"/>
<mask id="mask7_1_1495" style="mask-type:luminance" maskUnits="userSpaceOnUse" x="59" y="84" width="83" height="29">
<path d="M59.1188 84.8186H141.535V112.191H59.1188V84.8186Z" fill="white"/>
</mask>
<g mask="url(#mask7_1_1495)">
<path d="M132.356 111.582L130.556 96.0562H141.043L138.782 111.582H132.356Z" fill="#B4D0FC"/>
<path d="M141.043 98.889H130.247L131.122 105.11H140.22L141.043 98.889Z" fill="#FFFEFB"/>
<path d="M129.991 96.7269H141.506H141.505V95.9646C141.505 95.2784 140.949 94.7221 140.263 94.7221H131.233C130.547 94.7221 129.991 95.2784 129.991 95.9646V96.7269Z" fill="#34002F"/>
<path d="M131.173 94.7276H140.323V93.6672C140.323 93.1457 139.901 92.7228 139.379 92.7228H132.117C131.595 92.7228 131.173 93.1457 131.173 93.6672V94.7276Z" fill="#34002F"/>
<path d="M60.2936 109.839H83.5693C84.218 109.839 84.7438 110.366 84.7442 111.014C84.7442 111.663 84.218 112.189 83.5693 112.189H60.2936C59.6445 112.189 59.1188 111.663 59.1188 111.014C59.1188 110.365 59.645 109.839 60.2936 109.839Z" fill="#80808E"/>
<path d="M80.9994 112.194H116.345C116.952 112.194 117.49 111.804 117.679 111.227L125.721 86.6626C126.018 85.7544 125.341 84.8212 124.386 84.8212H89.0405C88.4334 84.8212 87.8947 85.2115 87.7057 85.7887L79.6645 110.353C79.3669 111.261 80.0437 112.194 80.9994 112.194Z" fill="#80808E"/>
<path d="M81.9745 112.195H117.833C118.334 112.195 118.78 111.872 118.936 111.395L127.136 86.3437C127.382 85.5926 126.823 84.8212 126.033 84.8212H90.1747C89.6729 84.8212 89.2277 85.1443 89.0715 85.6214L80.8712 110.673C80.6256 111.424 81.1843 112.195 81.9745 112.195Z" fill="#292929"/>
<path d="M104.585 101.569C106.335 101.569 107.754 100.15 107.754 98.4C107.754 96.6499 106.335 95.2311 104.585 95.2311C102.835 95.2311 101.416 96.6499 101.416 98.4C101.416 100.15 102.835 101.569 104.585 101.569Z" fill="#FFFEFB"/>
</g>
<path d="M76.4854 56.6855C76.5433 56.6979 76.8773 56.791 76.6182 56.7122C77.2195 56.8954 77.6314 55.995 77.0243 55.8109C76.135 55.5402 75.1005 55.4939 74.2505 55.9121C73.6833 56.1911 74.0297 57.118 74.6017 56.8367C75.0352 56.6236 75.4995 56.5636 75.9779 56.6083C76.1483 56.6241 76.3177 56.65 76.4854 56.6855Z" fill="#34002F"/>
<path d="M75.2591 59.191C75.5568 59.3019 75.9513 58.9824 76.1403 58.4772C76.3293 57.972 76.2418 57.4717 75.9446 57.3603C75.6469 57.2494 75.2524 57.5689 75.0634 58.0742C74.8744 58.5798 74.9618 59.0797 75.2591 59.191Z" fill="#34002F"/>
<mask id="mask8_1_1495" style="mask-type:luminance" maskUnits="userSpaceOnUse" x="59" y="43" width="20" height="23">
<path d="M59.7356 43.3133H78.0337V65.2562H59.7356V43.3133Z" fill="white"/>
</mask>
<g mask="url(#mask8_1_1495)">
<path d="M61.6555 58.3692C63.0881 59.2216 64.9181 58.9835 66.4193 57.92C58.8476 58.319 64.2543 49.6983 65.0021 48.5574C63.3695 48.6631 61.6798 49.7195 60.6397 51.4677C59.1121 54.037 59.5662 57.1267 61.6555 58.3692Z" fill="#B4D0FC"/>
<path d="M66.4193 57.9187C67.1066 57.432 67.7247 56.7729 68.2047 55.9662C69.733 53.3973 69.278 50.3069 67.1894 49.064C66.5212 48.6672 65.7683 48.5068 65.0021 48.5559C63.3695 48.6617 61.6798 49.718 60.6397 51.4662C59.1121 54.0355 59.5662 57.1252 61.6555 58.3677C63.0881 59.2201 64.9181 58.9823 66.4193 57.9187Z" fill="#C5DBF9"/>
<path d="M77.0516 46.0863C77.6655 45.8448 78.0446 45.71 78.0446 45.71C76.9764 43.7974 75.5942 43.3489 75.5942 43.3489C71.6191 42.9626 68.1393 45.7326 66.3664 47.4841C65.5706 48.2702 65.1181 48.8517 65.1181 48.8517L64.479 48.9428C64.479 48.9428 66.4387 55.3159 67.6622 52.1403C68.6365 49.6105 74.6468 47.0306 77.0516 46.0863Z" fill="#C5DBF9"/>
<path d="M64.6471 55.5228C64.6252 55.4543 64.6038 55.3854 64.5848 55.3158C64.55 55.191 64.627 55.0694 64.7466 55.0303C64.8658 54.9922 64.999 55.0756 65.0313 55.1924C65.0327 55.1966 65.0338 55.2008 65.0351 55.2051C65.065 55.305 65.0952 55.4052 65.1271 55.5043C65.196 55.7181 65.2706 55.9301 65.3487 56.141C65.4011 56.2824 65.4551 56.4235 65.5109 56.5634C65.5415 56.6401 65.5725 56.7169 65.6039 56.793C65.6207 56.8334 65.6372 56.8736 65.6544 56.9139C65.6687 56.9483 65.6267 56.8488 65.6481 56.8997C65.6528 56.9101 65.6573 56.92 65.6615 56.9305C65.67 56.9499 65.6783 56.9702 65.6867 56.9896C65.8438 57.3549 66.0114 57.7153 66.191 58.0696C66.3943 58.4724 66.613 58.8674 66.8473 59.2532C67.1002 59.6689 67.3713 60.0733 67.6636 60.4618C67.6821 60.4865 67.7013 60.5118 67.7203 60.5365C67.7299 60.5488 67.7392 60.5615 67.7488 60.5738C67.7531 60.5796 67.7573 60.5845 67.7616 60.5903C67.7792 60.6131 67.7232 60.5403 67.748 60.5722C67.7866 60.6222 67.8249 60.6718 67.8644 60.7209C67.9425 60.8179 68.0218 60.9148 68.1028 61.0101C68.267 61.204 68.4375 61.3921 68.6142 61.5744C68.7938 61.7596 68.9804 61.9381 69.1732 62.1095C69.2703 62.1956 69.3691 62.2802 69.4695 62.3621C69.52 62.4036 69.5704 62.444 69.6217 62.4839C69.6302 62.4906 69.6391 62.4971 69.6476 62.5038C69.6476 62.5038 69.5985 62.4663 69.6266 62.4877C69.638 62.4962 69.6494 62.5054 69.6608 62.5138C69.6864 62.5333 69.7128 62.5531 69.7389 62.5725C70.1575 62.8845 70.6047 63.1587 71.0767 63.383C71.1367 63.4116 71.1972 63.4392 71.2581 63.4665C71.2904 63.4807 71.323 63.4944 71.3554 63.5082C71.3826 63.52 71.2967 63.4839 71.3357 63.5002C71.3424 63.5031 71.3496 63.506 71.3563 63.5089C71.3701 63.5147 71.3839 63.52 71.3978 63.5258C71.5225 63.5767 71.6486 63.6245 71.7762 63.6682C72.0362 63.7577 72.3015 63.8318 72.5702 63.8898C72.6969 63.9174 72.759 64.0578 72.7322 64.1745C72.7036 64.3013 72.5653 64.3622 72.4472 64.3365C72.3158 64.308 72.1848 64.2758 72.0554 64.2397C71.5205 64.0911 71.0015 63.8788 70.5128 63.616C70.035 63.3594 69.588 63.0505 69.167 62.7095C68.766 62.3842 68.3926 62.0256 68.045 61.6442C67.694 61.2595 67.3697 60.8503 67.0669 60.427C66.786 60.0336 66.5249 59.6265 66.2821 59.2088C66.0592 58.8254 65.8516 58.4329 65.6577 58.0344C65.483 57.6744 65.3199 57.3087 65.1666 56.9387C65.0508 56.6591 64.9414 56.3766 64.839 56.0914C64.7714 55.9033 64.7071 55.7139 64.6471 55.5228Z" fill="#1B2630"/>
<path d="M65.5881 56.1652C65.9891 55.8814 66.3501 55.4966 66.6302 55.0256C67.5221 53.526 67.2568 51.7219 66.0377 50.9971C65.6477 50.7652 65.2081 50.672 64.7609 50.7005C63.808 50.7619 62.8217 51.3787 62.2145 52.3991C61.3226 53.8987 61.5877 55.7024 62.8074 56.4276C63.6438 56.9252 64.7118 56.7858 65.5881 56.1652Z" fill="#1B2630"/>
<path d="M65.6726 54.0886C65.8445 53.9567 65.9991 53.7782 66.1192 53.5595C66.5005 52.8628 66.3836 52.0222 65.8574 51.6826C65.6894 51.5746 65.4997 51.5298 65.3073 51.5427C64.8974 51.5699 64.4734 51.8551 64.2139 52.3295C63.8326 53.0262 63.9495 53.8666 64.4757 54.2062C64.8367 54.4392 65.2964 54.3762 65.6726 54.0886Z" fill="#415C7B"/>
<path d="M77.0511 46.0877C77.665 45.8462 78.0441 45.7114 78.0441 45.7114C76.9759 43.7988 75.5939 43.3496 75.5939 43.3496C71.6188 42.9634 68.1388 45.7333 66.3658 47.4848C69.219 46.1948 73.8389 44.6189 77.0511 46.0877Z" fill="#B4D0FC"/>
<path d="M71.5626 64.9692C71.7422 65.0906 71.9607 65.1807 72.2064 65.2245C72.9883 65.3644 73.7481 64.9857 73.9018 64.379C73.9514 64.1846 73.9333 63.9913 73.8599 63.8128C73.7037 63.4333 73.2985 63.1222 72.766 63.0269C71.9841 62.887 71.2243 63.2657 71.0701 63.8724C70.9639 64.2886 71.1701 64.7043 71.5626 64.9692Z" fill="#415C7B"/>
</g>
</g>
</g>
</g>
<defs>
<clipPath id="clip0_1_1495">
<rect width="160" height="160" rx="80" fill="white"/>
</clipPath>
<clipPath id="clip1_1_1495">
<rect width="241" height="241" fill="white" transform="translate(-41 -52)"/>
</clipPath>
</defs>
</svg>
