<svg width="153" height="43" viewBox="0 0 153 43" fill="none" xmlns="http://www.w3.org/2000/svg">
<path d="M4.42067 5.58257H0.367199C0.16524 5.58257 0 5.41937 0 5.21537V3.55889C0 3.35693 0.16524 3.19169 0.367199 3.19169H11.1037C11.3057 3.19169 11.4709 3.35489 11.4709 3.55889V5.21537C11.4709 5.41733 11.3077 5.58257 11.1037 5.58257H7.04818V16.7679C7.04818 16.9698 6.88498 17.1351 6.68099 17.1351H4.78583C4.58387 17.1351 4.41863 16.9719 4.41863 16.7679V5.58257H4.42067Z" fill="#767676"/>
<path d="M27.9867 3.55889V14.7034H34.7901C34.9921 14.7034 35.1573 14.8666 35.1573 15.0706V16.7679C35.1573 16.9698 34.9941 17.1351 34.7901 17.1351H25.7244C25.5224 17.1351 25.3572 16.9719 25.3572 16.7679V3.55889C25.3572 3.35693 25.5204 3.19169 25.7244 3.19169H27.6195C27.8215 3.19169 27.9867 3.35489 27.9867 3.55889Z" fill="#767676"/>
<path d="M47.0257 17.133H37.3235C37.1215 17.133 36.9563 16.9698 36.9563 16.7658V3.55889C36.9563 3.35693 37.1195 3.19169 37.3235 3.19169H47.0257C47.2277 3.19169 47.3929 3.35489 47.3929 3.55889V5.37449C47.3929 5.57645 47.2277 5.74169 47.0257 5.74169H39.5655V8.94856H46.7462C46.9482 8.94856 47.1134 9.11176 47.1134 9.31576V11.0314C47.1134 11.2334 46.9502 11.3986 46.7462 11.3986H39.5655V14.5443H47.0257C47.2277 14.5443 47.3929 14.7075 47.3929 14.9115V16.7679C47.3929 16.9698 47.2277 17.1351 47.0257 17.1351" fill="#767676"/>
<path d="M152.633 17.133H142.93C142.728 17.133 142.563 16.9698 142.563 16.7658V3.55889C142.563 3.35693 142.726 3.19169 142.93 3.19169H152.633C152.835 3.19169 153 3.35489 153 3.55889V5.37449C153 5.57645 152.835 5.74169 152.633 5.74169H145.172V8.94856H152.353C152.555 8.94856 152.72 9.11176 152.72 9.31576V11.0314C152.72 11.2334 152.557 11.3986 152.353 11.3986H145.172V14.5443H152.633C152.835 14.5443 153 14.7075 153 14.9115V16.7679C153 16.9698 152.835 17.1351 152.633 17.1351" fill="#767676"/>
<path d="M58.7346 12.5736V3.55889C58.7346 3.35693 58.8978 3.19169 59.1018 3.19169H60.9969C61.1989 3.19169 61.3641 3.35489 61.3641 3.55889V16.7658C61.3641 16.9678 61.2009 17.133 60.9969 17.133H59.4098C59.2976 17.133 59.1936 17.082 59.1242 16.9963L51.8251 7.85308V16.7679C51.8251 16.9698 51.6619 17.1351 51.4579 17.1351H49.5628C49.3608 17.1351 49.1956 16.9719 49.1956 16.7679V3.55889C49.1956 3.35693 49.3588 3.19169 49.5628 3.19169H51.1499C51.2621 3.19169 51.3682 3.24269 51.4375 3.33041L58.7366 12.5716L58.7346 12.5736Z" fill="#767676"/>
<path d="M67.5873 5.58257H63.5317C63.3298 5.58257 63.1646 5.41937 63.1646 5.21537V3.55889C63.1646 3.35693 63.3298 3.19169 63.5317 3.19169H74.2703C74.4722 3.19169 74.6375 3.35489 74.6375 3.55889V5.21537C74.6375 5.41733 74.4743 5.58257 74.2703 5.58257H70.2148V16.7679C70.2148 16.9698 70.0516 17.1351 69.8476 17.1351H67.9524C67.7505 17.1351 67.5852 16.9719 67.5852 16.7679V5.58257H67.5873Z" fill="#767676"/>
<path d="M89.4789 6.40806C89.3218 6.48966 89.1341 6.44274 89.0239 6.3081C88.4466 5.60838 87.2491 5.00046 85.8926 5.00046C83.9403 5.00046 83.006 5.81646 83.006 6.85278C83.006 8.06862 84.4401 8.40522 86.1129 8.60514C89.0199 8.96418 91.729 9.72101 91.729 13.0462C91.729 16.1531 88.9811 17.4873 85.8742 17.4873C83.1528 17.4873 81.0312 16.6876 79.9439 14.3906C79.8582 14.211 79.9296 13.9948 80.1051 13.903L81.6534 13.1013C81.8309 13.0095 82.0472 13.0788 82.143 13.2543C82.8468 14.5578 84.3462 15.1372 85.913 15.1372C87.5653 15.1372 89.1198 14.5599 89.1198 13.0462C89.1198 11.7324 87.7469 11.1939 85.8926 10.994C83.0447 10.6553 80.4152 9.89849 80.4152 6.77118C80.4152 3.90295 83.2426 2.72791 85.813 2.70955C87.8632 2.70955 89.9827 3.26035 91.1007 5.13102C91.2108 5.31462 91.1435 5.5533 90.9538 5.64918L89.4789 6.40806Z" fill="#767676"/>
<path d="M105.499 15.1076C105.65 15.2606 105.635 15.5054 105.474 15.6461C104.085 16.8742 102.345 17.4474 100.466 17.4474C95.2884 17.4474 93.0974 13.8836 93.077 10.2585C93.0566 6.61303 95.4271 2.91044 100.466 2.91044C102.23 2.91044 103.909 3.53468 105.29 4.76683C105.452 4.91167 105.462 5.15851 105.307 5.30947L104.077 6.49675C103.944 6.62527 103.734 6.63547 103.591 6.51715C102.706 5.77051 101.578 5.41963 100.466 5.41963C97.0999 5.41963 95.6454 7.92883 95.6658 10.2585C95.6862 12.5678 97.0203 14.9791 100.466 14.9791C101.576 14.9791 102.82 14.5629 103.726 13.7897C103.871 13.6673 104.085 13.6796 104.217 13.8142L105.497 15.1076H105.499Z" fill="#767676"/>
<path d="M124.303 17.523C120.294 21.5317 113.795 21.5317 109.786 17.523C105.778 13.5145 105.778 7.01503 109.786 3.00644C113.795 -1.00215 120.294 -1.00215 124.303 3.00644C128.311 7.01503 128.311 13.5145 124.303 17.523ZM123.364 5.68291L124.011 5.03623C124.146 4.90159 124.154 4.68943 124.034 4.54051C123.846 4.31203 123.648 4.08764 123.434 3.87548C123.22 3.66128 122.997 3.46136 122.769 3.27572C122.622 3.15536 122.408 3.16352 122.273 3.29816L121.626 3.94484C121.955 4.18352 122.269 4.44871 122.565 4.74451C122.861 5.04031 123.128 5.35447 123.366 5.68291L117.883 11.1664C117.432 11.6173 116.72 11.6438 116.237 11.2501C116.204 11.2235 116.173 11.195 116.143 11.1664C116.112 11.1358 116.086 11.1052 116.059 11.0726C115.665 10.5891 115.694 9.87714 116.143 9.4263L121.626 3.9428C118.45 1.63353 113.925 2.01705 111.196 5.09335C108.607 8.01055 108.599 12.4843 111.175 15.4117C114.182 18.8286 119.397 18.9531 122.565 15.785C125.317 13.033 125.584 8.73679 123.366 5.68291" fill="#60C4B0"/>
<path d="M141.069 16.5209L137.236 12.192C139.884 11.6534 140.761 9.72156 140.761 7.81008C140.761 5.40085 139.029 3.20989 135.743 3.18949C133.656 3.18949 131.567 3.17113 129.478 3.16909C129.276 3.16909 129.111 3.33433 129.111 3.53629V16.7636C129.111 16.9656 129.276 17.1308 129.478 17.1308H131.373C131.575 17.1308 131.74 16.9676 131.74 16.7636V12.4694H134.409L138.342 17.0023C138.411 17.0819 138.513 17.1288 138.619 17.1288H140.796C141.112 17.1288 141.279 16.7555 141.069 16.5188M131.738 10.099V5.63952H135.741C137.393 5.63952 138.132 6.7554 138.132 7.86924C138.132 8.98308 137.414 10.099 135.741 10.099H131.738Z" fill="#767676"/>
<path d="M23.5291 16.6353L18.4883 3.42833C18.4332 3.28553 18.2986 3.19169 18.1456 3.19169H15.8363C15.6853 3.19169 15.5486 3.28553 15.4936 3.42833L10.4527 16.6353C10.3609 16.876 10.5384 17.133 10.7954 17.133H12.8252C12.9762 17.133 13.1129 17.0392 13.168 16.8964L16.993 6.87796L20.8179 16.8964C20.873 17.0392 21.0077 17.133 21.1607 17.133H23.1905C23.4475 17.133 23.625 16.876 23.5332 16.6353" fill="#767676"/>
<path d="M19.2386 31.8931C19.179 31.3894 18.937 30.9983 18.5128 30.7199C18.0885 30.4414 17.5682 30.3022 16.9517 30.3022C16.5009 30.3022 16.1065 30.3752 15.7685 30.521C15.4337 30.6668 15.1719 30.8673 14.983 31.1225C14.7973 31.3778 14.7045 31.6678 14.7045 31.9926C14.7045 32.2644 14.7692 32.498 14.8984 32.6936C15.031 32.8858 15.2 33.0466 15.4055 33.1758C15.611 33.3018 15.8265 33.4062 16.0518 33.489C16.2772 33.5686 16.4844 33.6332 16.6733 33.6829L17.7074 33.9613C17.9725 34.0309 18.2675 34.127 18.5923 34.2497C18.9205 34.3723 19.2337 34.5397 19.532 34.7518C19.8336 34.9606 20.0821 35.2291 20.2777 35.5572C20.4732 35.8853 20.571 36.288 20.571 36.7653C20.571 37.3155 20.4268 37.8127 20.1385 38.2568C19.8535 38.7009 19.4358 39.0539 18.8857 39.3157C18.3388 39.5776 17.6742 39.7085 16.892 39.7085C16.1629 39.7085 15.5315 39.5908 14.9979 39.3555C14.4676 39.1202 14.05 38.7921 13.745 38.3711C13.4434 37.9502 13.2727 37.4613 13.233 36.9045H14.5057C14.5388 37.289 14.6681 37.6072 14.8935 37.8591C15.1222 38.1076 15.4105 38.2932 15.7585 38.4159C16.1098 38.5352 16.4877 38.5949 16.892 38.5949C17.3627 38.5949 17.7853 38.5186 18.1598 38.3662C18.5343 38.2104 18.831 37.9949 19.0497 37.7199C19.2685 37.4414 19.3778 37.1166 19.3778 36.7454C19.3778 36.4074 19.2834 36.1323 19.0945 35.9201C18.9055 35.708 18.657 35.5357 18.3487 35.4031C18.0405 35.2705 17.7074 35.1545 17.3494 35.0551L16.0966 34.6971C15.3011 34.4684 14.6714 34.142 14.2074 33.7177C13.7434 33.2935 13.5114 32.7383 13.5114 32.0522C13.5114 31.4822 13.6655 30.985 13.9737 30.5608C14.2853 30.1332 14.7029 29.8018 15.2266 29.5664C15.7536 29.3278 16.3419 29.2085 16.9915 29.2085C17.6477 29.2085 18.2311 29.3261 18.7415 29.5615C19.2519 29.7935 19.6563 30.1117 19.9545 30.516C20.2562 30.9204 20.4152 31.3794 20.4318 31.8931H19.2386ZM27.2516 36.4074V31.8931H28.4249V39.5295H27.2516V38.2369H27.1721C26.9931 38.6247 26.7147 38.9545 26.3368 39.2262C25.959 39.4947 25.4817 39.6289 24.905 39.6289C24.4277 39.6289 24.0035 39.5245 23.6323 39.3157C23.2611 39.1036 22.9694 38.7854 22.7573 38.3612C22.5452 37.9336 22.4391 37.395 22.4391 36.7454V31.8931H23.6124V36.6659C23.6124 37.2227 23.7682 37.6668 24.0797 37.9983C24.3946 38.3297 24.7956 38.4954 25.2828 38.4954C25.5745 38.4954 25.8712 38.4208 26.1728 38.2717C26.4777 38.1226 26.7329 37.8939 26.9384 37.5856C27.1472 37.2774 27.2516 36.8846 27.2516 36.4074ZM31.7472 34.9358V39.5295H30.5739V31.8931H31.7074V33.0863H31.8068C31.9858 32.6985 32.2576 32.387 32.6222 32.1517C32.9867 31.913 33.4574 31.7937 34.0341 31.7937C34.5511 31.7937 35.0036 31.8998 35.3913 32.1119C35.7791 32.3207 36.0807 32.6389 36.2962 33.0664C36.5116 33.4907 36.6193 34.0276 36.6193 34.6772V39.5295H35.446V34.7568C35.446 34.1569 35.2902 33.6895 34.9787 33.3548C34.6671 33.0167 34.2396 32.8477 33.696 32.8477C33.3215 32.8477 32.9867 32.9289 32.6918 33.0913C32.4001 33.2537 32.1697 33.4907 32.0007 33.8022C31.8317 34.1138 31.7472 34.4916 31.7472 34.9358ZM38.7633 39.5295V31.8931H39.9366V39.5295H38.7633ZM39.3599 30.6204C39.1312 30.6204 38.934 30.5425 38.7683 30.3868C38.6059 30.231 38.5247 30.0437 38.5247 29.825C38.5247 29.6062 38.6059 29.419 38.7683 29.2632C38.934 29.1074 39.1312 29.0295 39.3599 29.0295C39.5886 29.0295 39.7842 29.1074 39.9466 29.2632C40.1123 29.419 40.1951 29.6062 40.1951 29.825C40.1951 30.0437 40.1123 30.231 39.9466 30.3868C39.7842 30.5425 39.5886 30.6204 39.3599 30.6204ZM46.0231 39.5295V31.8931H47.1964V39.5295H46.0231ZM46.6197 30.6204C46.391 30.6204 46.1938 30.5425 46.0281 30.3868C45.8656 30.231 45.7844 30.0437 45.7844 29.825C45.7844 29.6062 45.8656 29.419 46.0281 29.2632C46.1938 29.1074 46.391 29.0295 46.6197 29.0295C46.8484 29.0295 47.0439 29.1074 47.2063 29.2632C47.372 29.419 47.4549 29.6062 47.4549 29.825C47.4549 30.0437 47.372 30.231 47.2063 30.3868C47.0439 30.5425 46.8484 30.6204 46.6197 30.6204ZM50.5186 34.9358V39.5295H49.3453V31.8931H50.4789V33.0863H50.5783C50.7573 32.6985 51.0291 32.387 51.3936 32.1517C51.7582 31.913 52.2289 31.7937 52.8056 31.7937C53.3226 31.7937 53.775 31.8998 54.1628 32.1119C54.5506 32.3207 54.8522 32.6389 55.0676 33.0664C55.2831 33.4907 55.3908 34.0276 55.3908 34.6772V39.5295H54.2175V34.7568C54.2175 34.1569 54.0617 33.6895 53.7502 33.3548C53.4386 33.0167 53.0111 32.8477 52.4675 32.8477C52.093 32.8477 51.7582 32.9289 51.4632 33.0913C51.1716 33.2537 50.9412 33.4907 50.7722 33.8022C50.6032 34.1138 50.5186 34.4916 50.5186 34.9358ZM60.8558 31.8931V32.8875H56.8984V31.8931H60.8558ZM58.0518 30.0636H59.2251V37.342C59.2251 37.6734 59.2732 37.922 59.3693 38.0877C59.4688 38.2502 59.5947 38.3595 59.7472 38.4159C59.9029 38.4689 60.067 38.4954 60.2393 38.4954C60.3686 38.4954 60.4747 38.4888 60.5575 38.4755C60.6404 38.459 60.7067 38.4457 60.7564 38.4358L60.995 39.4897C60.9155 39.5196 60.8045 39.5494 60.6619 39.5792C60.5194 39.6124 60.3388 39.6289 60.12 39.6289C59.7886 39.6289 59.4638 39.5577 59.1456 39.4152C58.8307 39.2726 58.5689 39.0556 58.3601 38.7639C58.1546 38.4722 58.0518 38.1043 58.0518 37.6602V30.0636ZM65.7404 39.6886C65.0046 39.6886 64.3699 39.5262 63.8363 39.2014C63.306 38.8733 62.8967 38.4159 62.6083 37.8292C62.3233 37.2393 62.1808 36.5532 62.1808 35.771C62.1808 34.9888 62.3233 34.2994 62.6083 33.7028C62.8967 33.1029 63.2977 32.6356 63.8114 32.3008C64.3285 31.9627 64.9317 31.7937 65.6211 31.7937C66.0188 31.7937 66.4116 31.86 66.7994 31.9926C67.1871 32.1252 67.5401 32.3406 67.8583 32.6389C68.1765 32.9339 68.43 33.325 68.619 33.8122C68.8079 34.2994 68.9023 34.8993 68.9023 35.6119V36.1091H63.016V35.0949H67.7092C67.7092 34.664 67.623 34.2795 67.4506 33.9414C67.2816 33.6034 67.0397 33.3366 66.7248 33.141C66.4132 32.9455 66.0453 32.8477 65.6211 32.8477C65.1538 32.8477 64.7494 32.9637 64.408 33.1957C64.07 33.4244 63.8098 33.7227 63.6275 34.0906C63.4452 34.4585 63.354 34.8529 63.354 35.2738V35.95C63.354 36.5267 63.4535 37.0155 63.6523 37.4166C63.8545 37.8143 64.1346 38.1176 64.4925 38.3264C64.8505 38.5319 65.2665 38.6346 65.7404 38.6346C66.0487 38.6346 66.3271 38.5915 66.5756 38.5054C66.8275 38.4159 67.0446 38.2833 67.2269 38.1076C67.4092 37.9287 67.5501 37.7066 67.6495 37.4414L68.783 37.7596C68.6637 38.1441 68.4632 38.4822 68.1815 38.7738C67.8997 39.0622 67.5517 39.2876 67.1374 39.45C66.7231 39.6091 66.2575 39.6886 65.7404 39.6886ZM71.8604 29.3477V39.5295H70.6871V29.3477H71.8604ZM77.2111 39.6886C76.4753 39.6886 75.8406 39.5262 75.307 39.2014C74.7767 38.8733 74.3674 38.4159 74.079 37.8292C73.794 37.2393 73.6515 36.5532 73.6515 35.771C73.6515 34.9888 73.794 34.2994 74.079 33.7028C74.3674 33.1029 74.7684 32.6356 75.2821 32.3008C75.7992 31.9627 76.4024 31.7937 77.0918 31.7937C77.4895 31.7937 77.8823 31.86 78.2701 31.9926C78.6578 32.1252 79.0108 32.3406 79.329 32.6389C79.6472 32.9339 79.9007 33.325 80.0897 33.8122C80.2786 34.2994 80.373 34.8993 80.373 35.6119V36.1091H74.4867V35.0949H79.1799C79.1799 34.664 79.0937 34.2795 78.9213 33.9414C78.7523 33.6034 78.5104 33.3366 78.1955 33.141C77.8839 32.9455 77.516 32.8477 77.0918 32.8477C76.6245 32.8477 76.2201 32.9637 75.8787 33.1957C75.5407 33.4244 75.2805 33.7227 75.0982 34.0906C74.9159 34.4585 74.8248 34.8529 74.8248 35.2738V35.95C74.8248 36.5267 74.9242 37.0155 75.123 37.4166C75.3252 37.8143 75.6053 38.1176 75.9632 38.3264C76.3212 38.5319 76.7372 38.6346 77.2111 38.6346C77.5194 38.6346 77.7978 38.5915 78.0463 38.5054C78.2982 38.4159 78.5153 38.2833 78.6976 38.1076C78.8799 37.9287 79.0208 37.7066 79.1202 37.4414L80.2537 37.7596C80.1344 38.1441 79.9339 38.4822 79.6522 38.7738C79.3704 39.0622 79.0224 39.2876 78.6081 39.45C78.1938 39.6091 77.7282 39.6886 77.2111 39.6886ZM83.2516 36.7454L83.2317 35.2937H83.4703L86.8113 31.8931H88.263L84.7033 35.4926H84.6039L83.2516 36.7454ZM82.1578 39.5295V29.3477H83.3311V39.5295H82.1578ZM87.0101 39.5295L84.0272 35.7511L84.8624 34.9358L88.5016 39.5295H87.0101ZM93.0941 31.8931V32.8875H89.1367V31.8931H93.0941ZM90.2901 30.0636H91.4634V37.342C91.4634 37.6734 91.5115 37.922 91.6076 38.0877C91.707 38.2502 91.833 38.3595 91.9854 38.4159C92.1412 38.4689 92.3053 38.4954 92.4776 38.4954C92.6069 38.4954 92.713 38.4888 92.7958 38.4755C92.8787 38.459 92.945 38.4457 92.9947 38.4358L93.2333 39.4897C93.1538 39.5196 93.0427 39.5494 92.9002 39.5792C92.7577 39.6124 92.5771 39.6289 92.3583 39.6289C92.0269 39.6289 91.7021 39.5577 91.3839 39.4152C91.069 39.2726 90.8072 39.0556 90.5984 38.7639C90.3929 38.4722 90.2901 38.1043 90.2901 37.6602V30.0636ZM104.206 33.6034L103.152 33.9017C103.085 33.726 102.988 33.5553 102.858 33.3896C102.732 33.2206 102.56 33.0814 102.341 32.972C102.123 32.8626 101.842 32.8079 101.501 32.8079C101.034 32.8079 100.644 32.9156 100.333 33.1311C100.025 33.3432 99.8704 33.6133 99.8704 33.9414C99.8704 34.2331 99.9764 34.4635 100.189 34.6325C100.401 34.8015 100.732 34.9424 101.183 35.0551L102.316 35.3335C102.999 35.4992 103.508 35.7528 103.843 36.0941C104.177 36.4322 104.345 36.8681 104.345 37.4017C104.345 37.8392 104.219 38.2303 103.967 38.575C103.718 38.9197 103.37 39.1914 102.923 39.3903C102.475 39.5892 101.955 39.6886 101.362 39.6886C100.583 39.6886 99.9383 39.5196 99.4279 39.1815C98.9175 38.8434 98.5943 38.3496 98.4585 37.7L99.5721 37.4216C99.6781 37.8325 99.8787 38.1408 100.174 38.3463C100.472 38.5518 100.861 38.6545 101.342 38.6545C101.889 38.6545 102.323 38.5385 102.645 38.3065C102.969 38.0712 103.132 37.7895 103.132 37.4613C103.132 37.1962 103.039 36.9741 102.853 36.7951C102.668 36.6128 102.383 36.477 101.998 36.3875L100.725 36.0892C100.026 35.9234 99.5124 35.6666 99.1843 35.3186C98.8595 34.9672 98.6971 34.5281 98.6971 34.0011C98.6971 33.5702 98.8181 33.1891 99.06 32.8576C99.3053 32.5262 99.6384 32.266 100.059 32.0771C100.484 31.8882 100.964 31.7937 101.501 31.7937C102.257 31.7937 102.85 31.9594 103.281 32.2909C103.715 32.6223 104.023 33.0598 104.206 33.6034ZM106.111 39.5295V31.8931H107.284V39.5295H106.111ZM106.708 30.6204C106.479 30.6204 106.282 30.5425 106.116 30.3868C105.954 30.231 105.872 30.0437 105.872 29.825C105.872 29.6062 105.954 29.419 106.116 29.2632C106.282 29.1074 106.479 29.0295 106.708 29.0295C106.936 29.0295 107.132 29.1074 107.294 29.2632C107.46 29.419 107.543 29.6062 107.543 29.825C107.543 30.0437 107.46 30.231 107.294 30.3868C107.132 30.5425 106.936 30.6204 106.708 30.6204ZM114.842 33.6034L113.788 33.9017C113.722 33.726 113.624 33.5553 113.495 33.3896C113.369 33.2206 113.197 33.0814 112.978 32.972C112.759 32.8626 112.479 32.8079 112.138 32.8079C111.67 32.8079 111.281 32.9156 110.969 33.1311C110.661 33.3432 110.507 33.6133 110.507 33.9414C110.507 34.2331 110.613 34.4635 110.825 34.6325C111.037 34.8015 111.369 34.9424 111.82 35.0551L112.953 35.3335C113.636 35.4992 114.145 35.7528 114.479 36.0941C114.814 36.4322 114.982 36.8681 114.982 37.4017C114.982 37.8392 114.856 38.2303 114.604 38.575C114.355 38.9197 114.007 39.1914 113.56 39.3903C113.112 39.5892 112.592 39.6886 111.999 39.6886C111.22 39.6886 110.575 39.5196 110.065 39.1815C109.554 38.8434 109.231 38.3496 109.095 37.7L110.209 37.4216C110.315 37.8325 110.515 38.1408 110.81 38.3463C111.109 38.5518 111.498 38.6545 111.979 38.6545C112.526 38.6545 112.96 38.5385 113.281 38.3065C113.606 38.0712 113.768 37.7895 113.768 37.4613C113.768 37.1962 113.676 36.9741 113.49 36.7951C113.304 36.6128 113.019 36.477 112.635 36.3875L111.362 36.0892C110.663 35.9234 110.149 35.6666 109.821 35.3186C109.496 34.9672 109.334 34.5281 109.334 34.0011C109.334 33.5702 109.455 33.1891 109.697 32.8576C109.942 32.5262 110.275 32.266 110.696 32.0771C111.12 31.8882 111.601 31.7937 112.138 31.7937C112.893 31.7937 113.487 31.9594 113.918 32.2909C114.352 32.6223 114.66 33.0598 114.842 33.6034ZM120.069 31.8931V32.8875H116.111V31.8931H120.069ZM117.265 30.0636H118.438V37.342C118.438 37.6734 118.486 37.922 118.582 38.0877C118.682 38.2502 118.808 38.3595 118.96 38.4159C119.116 38.4689 119.28 38.4954 119.452 38.4954C119.581 38.4954 119.688 38.4888 119.77 38.4755C119.853 38.459 119.92 38.4457 119.969 38.4358L120.208 39.4897C120.128 39.5196 120.017 39.5494 119.875 39.5792C119.732 39.6124 119.552 39.6289 119.333 39.6289C119.001 39.6289 118.677 39.5577 118.358 39.4152C118.044 39.2726 117.782 39.0556 117.573 38.7639C117.367 38.4722 117.265 38.1043 117.265 37.6602V30.0636ZM124.953 39.6886C124.218 39.6886 123.583 39.5262 123.049 39.2014C122.519 38.8733 122.11 38.4159 121.821 37.8292C121.536 37.2393 121.394 36.5532 121.394 35.771C121.394 34.9888 121.536 34.2994 121.821 33.7028C122.11 33.1029 122.511 32.6356 123.024 32.3008C123.541 31.9627 124.145 31.7937 124.834 31.7937C125.232 31.7937 125.624 31.86 126.012 31.9926C126.4 32.1252 126.753 32.3406 127.071 32.6389C127.389 32.9339 127.643 33.325 127.832 33.8122C128.021 34.2994 128.115 34.8993 128.115 35.6119V36.1091H122.229V35.0949H126.922C126.922 34.664 126.836 34.2795 126.664 33.9414C126.494 33.6034 126.253 33.3366 125.938 33.141C125.626 32.9455 125.258 32.8477 124.834 32.8477C124.367 32.8477 123.962 32.9637 123.621 33.1957C123.283 33.4244 123.023 33.7227 122.84 34.0906C122.658 34.4585 122.567 34.8529 122.567 35.2738V35.95C122.567 36.5267 122.666 37.0155 122.865 37.4166C123.067 37.8143 123.347 38.1176 123.705 38.3264C124.063 38.5319 124.479 38.6346 124.953 38.6346C125.262 38.6346 125.54 38.5915 125.789 38.5054C126.04 38.4159 126.258 38.2833 126.44 38.1076C126.622 37.9287 126.763 37.7066 126.862 37.4414L127.996 37.7596C127.877 38.1441 127.676 38.4822 127.394 38.7738C127.113 39.0622 126.765 39.2876 126.35 39.45C125.936 39.6091 125.47 39.6886 124.953 39.6886ZM129.9 39.5295V31.8931H131.034V33.0863H131.133C131.292 32.6787 131.549 32.3621 131.904 32.1368C132.258 31.9081 132.684 31.7937 133.181 31.7937C133.685 31.7937 134.104 31.9081 134.439 32.1368C134.777 32.3621 135.041 32.6787 135.23 33.0863H135.309C135.505 32.6919 135.798 32.3787 136.189 32.1467C136.58 31.9114 137.049 31.7937 137.596 31.7937C138.279 31.7937 138.837 32.0075 139.271 32.435C139.706 32.8593 139.923 33.5205 139.923 34.4187V39.5295H138.749V34.4187C138.749 33.8553 138.595 33.4526 138.287 33.2106C137.979 32.9687 137.616 32.8477 137.198 32.8477C136.661 32.8477 136.245 33.0101 135.95 33.3349C135.655 33.6564 135.508 34.0641 135.508 34.5579V39.5295H134.315V34.2994C134.315 33.8652 134.174 33.5155 133.892 33.2504C133.61 32.9819 133.248 32.8477 132.803 32.8477C132.499 32.8477 132.213 32.9289 131.948 33.0913C131.686 33.2537 131.474 33.4791 131.312 33.7674C131.153 34.0525 131.073 34.3823 131.073 34.7568V39.5295H129.9ZM142.068 39.5295V31.8931H143.241V39.5295H142.068ZM142.665 30.6204C142.436 30.6204 142.239 30.5425 142.073 30.3868C141.911 30.231 141.829 30.0437 141.829 29.825C141.829 29.6062 141.911 29.419 142.073 29.2632C142.239 29.1074 142.436 29.0295 142.665 29.0295C142.893 29.0295 143.089 29.1074 143.251 29.2632C143.417 29.419 143.5 29.6062 143.5 29.825C143.5 30.0437 143.417 30.231 143.251 30.3868C143.089 30.5425 142.893 30.6204 142.665 30.6204Z" fill="#767676"/>
</svg>
