<svg width="160" height="160" viewBox="0 0 160 160" fill="none" xmlns="http://www.w3.org/2000/svg">
<rect width="160" height="160" rx="80" fill="white"/>
<g clip-path="url(#clip0_1_634)">
<mask id="mask0_1_634" style="mask-type:luminance" maskUnits="userSpaceOnUse" x="2" y="0" width="156" height="156">
<path d="M157.431 0H2V155.431H157.431V0Z" fill="white"/>
</mask>
<g mask="url(#mask0_1_634)">
<path d="M120.594 130.773C120.594 133.873 118.288 136.203 115.229 136.203L45.2123 136.203C42.1528 136.203 39.6323 133.873 39.6323 130.773L39.6321 31.1511C39.6321 28.0513 42.1525 25.7678 45.2121 25.7678L115.229 25.7677C118.288 25.7677 120.594 28.0511 120.594 31.1509L120.594 130.773Z" fill="#082A80"/>
<path d="M119.849 28.2781C118.214 30.4995 116.688 32.6973 114.912 34.8951L114.913 124.529C114.913 127.629 112.53 129.806 109.471 129.806L45.798 129.806C44.8867 132.291 43.9436 133.739 42.9567 135.631C43.6462 135.943 44.4082 136.198 45.2122 136.198L115.229 136.197C118.288 136.197 120.594 133.867 120.594 130.768L120.594 31.1455C120.594 30.0963 120.343 29.1181 119.849 28.2781Z" fill="#082A80"/>
<path d="M116.904 130.912L44.938 132.243L43.0571 30.5304L115.023 29.1994L116.904 130.912Z" fill="#EDEDED"/>
<path d="M116.63 131.314L44.6528 130.892L45.2491 29.1645L117.227 29.5865L116.63 131.314Z" fill="white"/>
<path d="M99.1248 115.708C102.25 115.708 104.787 118.245 104.787 121.37C104.787 124.495 102.25 127.033 99.1248 127.033C95.9999 127.033 93.4626 124.495 93.4626 121.37C93.4626 118.245 95.9999 115.708 99.1248 115.708Z" stroke="#B0B0B0" stroke-width="0.899946"/>
<path d="M94.0144 117.071L99.9045 122.294L105.906 110.069" stroke="#2BBD12" stroke-width="2.22267" stroke-linecap="round"/>
<path d="M53.1563 101.147C55.0345 101.147 56.5595 102.672 56.5595 104.55C56.5595 106.428 55.0345 107.953 53.1563 107.953C51.2781 107.953 49.7532 106.428 49.7532 104.55C49.7532 102.672 51.2781 101.147 53.1563 101.147Z" stroke="#B0B0B0" stroke-width="0.5409"/>
<path d="M49.7954 101.572L53.9143 105.224L58.111 96.6755" stroke="#2BBD12" stroke-width="1.24345" stroke-linecap="round"/>
<path d="M98.2228 107.442H59.8723V105.666H98.2228V107.442Z" fill="#B0B0B0"/>
<path d="M104.614 104.6H59.8721V103.89H104.614V104.6Z" fill="#B0B0B0"/>
<path d="M92.1859 102.464H59.8721V101.399H92.1859V102.464Z" fill="#B0B0B0"/>
<path d="M53.3114 87.6261C55.1896 87.6261 56.7145 89.1511 56.7145 91.0293C56.7145 92.9075 55.1896 94.4325 53.3114 94.4325C51.4332 94.4325 49.9082 92.9075 49.9082 91.0293C49.9082 89.1511 51.4332 87.6261 53.3114 87.6261Z" stroke="#B0B0B0" stroke-width="0.5409"/>
<path d="M49.8728 88.2858L53.9917 91.9384L58.1884 83.3897" stroke="#2BBD12" stroke-width="1.24345" stroke-linecap="round"/>
<path d="M98.5782 93.5906H60.2278V92.8802H98.5782V93.5906Z" fill="#B0B0B0"/>
<path d="M104.97 91.4592H60.2278V90.3939H104.97V91.4592Z" fill="#B0B0B0"/>
<path d="M92.5406 88.9719H60.2268V87.9066H92.5406V88.9719Z" fill="#B0B0B0"/>
<path d="M53.3114 73.1619C55.1896 73.1619 56.7145 74.6869 56.7145 76.5651C56.7145 78.4433 55.1896 79.9682 53.3114 79.9682C51.4332 79.9682 49.9082 78.4433 49.9082 76.5651C49.9082 74.6869 51.4332 73.1619 53.3114 73.1619Z" stroke="#B0B0B0" stroke-width="0.5409"/>
<path d="M49.406 73.5148L53.5249 77.1674L57.7216 68.6187" stroke="#2BBD12" stroke-width="1.24345" stroke-linecap="round"/>
<path d="M98.5782 79.3859H60.2278V78.3206H98.5782V79.3859Z" fill="#B0B0B0"/>
<path d="M106.034 76.5447H60.2271V75.8344H106.034V76.5447Z" fill="#B0B0B0"/>
<path d="M92.5406 74.4176H60.2268V73.7073H92.5406V74.4176Z" fill="#B0B0B0"/>
<path d="M53.0777 59.3346C54.9559 59.3346 56.4809 60.8596 56.4809 62.7378C56.4809 64.616 54.9559 66.141 53.0777 66.141C51.1995 66.141 49.6746 64.616 49.6746 62.7378C49.6746 60.8596 51.1995 59.3346 53.0777 59.3346Z" stroke="#B0B0B0" stroke-width="0.5409"/>
<path d="M49.406 59.6797L53.5249 63.3323L57.7216 54.7836" stroke="#2BBD12" stroke-width="1.24345" stroke-linecap="round"/>
<path d="M83.6636 65.1822H59.8721V64.4719H83.6636V65.1822Z" fill="#B0B0B0"/>
<path d="M96.4469 63.0528H59.8721V61.9875H96.4469V63.0528Z" fill="#B0B0B0"/>
<path d="M106.39 60.9205H59.8721V59.5002H106.39V60.9205Z" fill="#B0B0B0"/>
<path d="M50.6404 49.5616H108.166" stroke="#2E2E2E" stroke-width="0.310862" stroke-linecap="round" stroke-linejoin="round"/>
<path d="M55.9893 47.2217L54.4567 44.8452C54.9432 44.7628 55.3131 44.5747 55.5712 44.2825C55.8276 43.9903 55.9551 43.6142 55.9551 43.1572C55.9551 42.6209 55.7825 42.1904 55.4375 41.8656C55.0924 41.5391 54.5873 41.3759 53.9189 41.3759H51.8579V47.2217H52.8014V44.8871H53.4713L54.9292 47.2217H55.9893ZM52.8014 42.1873H53.8443C54.236 42.1873 54.5251 42.2774 54.7101 42.4562C54.895 42.6365 54.9867 42.8867 54.9867 43.2069C54.9867 43.8799 54.6059 44.2157 53.8443 44.2157H52.8014V42.1873Z" fill="#2E2E2E"/>
<path d="M60.1454 42.1376V41.3759H56.8005V47.2217H60.1454V46.4523H57.744V44.6384H59.8967V43.9095H57.744V42.1376H60.1454Z" fill="#2E2E2E"/>
<path d="M63.7296 41.3262C63.1607 41.3262 62.6602 41.4521 62.2266 41.7039C61.7929 41.9541 61.4587 42.3054 61.2209 42.7546C60.9831 43.2053 60.865 43.7198 60.865 44.2996C60.865 44.8793 60.9831 45.3938 61.2209 45.843C61.4587 46.2938 61.7945 46.645 62.2312 46.8984C62.6664 47.1533 63.17 47.2792 63.7374 47.2792C64.2456 47.2792 64.6964 47.175 65.0912 46.9652C65.486 46.7554 65.803 46.4756 66.044 46.1243C66.2833 45.7746 66.4372 45.3829 66.5025 44.9524V44.0509H63.5648V44.7457H65.7082C65.6367 45.271 65.4269 45.6829 65.0787 45.9844C64.7321 46.2844 64.314 46.4352 63.8291 46.4352C63.4312 46.4352 63.083 46.3513 62.7815 46.1834C62.4815 46.014 62.2483 45.7699 62.082 45.4498C61.9173 45.1296 61.8333 44.7457 61.8333 44.2996C61.8333 43.8737 61.9157 43.5038 62.0774 43.1898C62.2406 42.8743 62.4675 42.6318 62.7566 42.4608C63.0472 42.2898 63.3736 42.2044 63.7374 42.2044C64.1353 42.2044 64.4788 42.2976 64.7694 42.4857C65.0585 42.6738 65.2668 42.924 65.3943 43.2395H66.3875C66.2382 42.6489 65.932 42.1826 65.4689 41.8406C65.0041 41.4987 64.4244 41.3262 63.7296 41.3262Z" fill="#2E2E2E"/>
<path d="M67.448 41.3759V47.2217H68.3915V41.3759H67.448Z" fill="#2E2E2E"/>
<path d="M73.3666 45.6643C73.3666 45.2944 73.2858 44.996 73.1226 44.7691C72.9594 44.5437 72.7604 44.3712 72.5257 44.2515C72.2926 44.1333 71.9895 44.0168 71.6196 43.9002C71.3273 43.8007 71.0973 43.7137 70.9279 43.6391C70.76 43.5645 70.6201 43.4634 70.5098 43.3329C70.3994 43.2039 70.345 43.0391 70.345 42.8402C70.345 42.5868 70.4243 42.3925 70.5844 42.2573C70.7445 42.1221 70.9574 42.0537 71.2232 42.0537C71.5154 42.0537 71.7455 42.1329 71.9133 42.2899C72.0827 42.4469 72.1853 42.6365 72.2242 42.8573H73.2423C73.1925 42.3941 72.9936 42.0179 72.6423 41.7304C72.2926 41.4444 71.8185 41.2998 71.2232 41.2998C70.8471 41.2998 70.516 41.3651 70.2284 41.4957C69.9425 41.6247 69.7217 41.8081 69.5663 42.0459C69.4124 42.2837 69.3347 42.5588 69.3347 42.8728C69.3347 43.2318 69.414 43.5225 69.5756 43.7432C69.7342 43.9639 69.93 44.1318 70.1585 44.2484C70.387 44.3634 70.6839 44.48 71.0491 44.595C71.346 44.6945 71.5807 44.783 71.7517 44.8608C71.9226 44.9385 72.0672 45.0442 72.1822 45.1794C72.2988 45.3146 72.3563 45.4872 72.3563 45.697C72.3563 45.9395 72.2786 46.1384 72.12 46.2923C71.9631 46.4477 71.7408 46.5254 71.4548 46.5254C71.1346 46.5254 70.8781 46.4337 70.6885 46.2519C70.4973 46.07 70.3885 45.8509 70.3621 45.5975H69.3518C69.3782 45.9286 69.487 46.2208 69.6736 46.4757C69.8616 46.729 70.1134 46.9264 70.4274 47.0663C70.7429 47.2078 71.0989 47.2777 71.4952 47.2777C71.904 47.2777 72.2491 47.2031 72.5304 47.0539C72.8117 46.9062 73.0215 46.7088 73.1599 46.4633C73.2982 46.2177 73.3666 45.9503 73.3666 45.6643Z" fill="#2E2E2E"/>
<path d="M73.8555 41.3759V42.1376H75.4782V47.2217H76.4294V42.1376H78.0614V41.3759H73.8555Z" fill="#2E2E2E"/>
<path d="M82.8889 47.2217L81.3564 44.8452C81.8429 44.7628 82.2128 44.5747 82.4708 44.2825C82.7273 43.9903 82.8547 43.6142 82.8547 43.1572C82.8547 42.6209 82.6822 42.1904 82.3371 41.8656C81.9921 41.5391 81.4869 41.3759 80.8186 41.3759H78.7576V47.2217H79.701V44.8871H80.3709L81.8289 47.2217H82.8889ZM79.701 42.1873H80.744C81.1357 42.1873 81.4248 42.2774 81.6097 42.4562C81.7947 42.6365 81.8864 42.8867 81.8864 43.2069C81.8864 43.8799 81.5056 44.2157 80.744 44.2157H79.701V42.1873Z" fill="#2E2E2E"/>
<path d="M87.6325 47.2207H88.6428L86.4979 41.4667H85.413L83.2603 47.2207H84.2706L84.7182 45.954H87.1849L87.6325 47.2207ZM84.9824 45.225L85.9508 42.4925L86.9207 45.225H84.9824Z" fill="#2E2E2E"/>
<path d="M88.8909 41.3759V42.1376H90.5136V47.2217H91.4648V42.1376H93.0968V41.3759H88.8909Z" fill="#2E2E2E"/>
<path d="M93.7925 41.3759V47.2217H94.7359V41.3759H93.7925Z" fill="#2E2E2E"/>
<path d="M98.5769 41.2998C98.0314 41.2998 97.5386 41.4273 97.1003 41.6806C96.6605 41.9355 96.3138 42.2899 96.0605 42.7453C95.8071 43.2008 95.6797 43.7152 95.6797 44.2888C95.6797 44.8639 95.8071 45.3783 96.0605 45.8338C96.3138 46.2892 96.6605 46.6451 97.1003 46.9016C97.5386 47.158 98.0314 47.287 98.5769 47.287C99.1178 47.287 99.609 47.158 100.047 46.9016C100.486 46.6451 100.831 46.2892 101.082 45.8338C101.333 45.3783 101.459 44.8639 101.459 44.2888C101.459 43.7152 101.333 43.2008 101.082 42.7453C100.831 42.2899 100.486 41.9355 100.047 41.6806C99.609 41.4273 99.1178 41.2998 98.5769 41.2998ZM98.5769 42.178C98.9469 42.178 99.2764 42.2635 99.567 42.4345C99.8561 42.6055 100.083 42.851 100.246 43.1712C100.408 43.4914 100.49 43.8644 100.49 44.2888C100.49 44.7147 100.408 45.0877 100.246 45.4063C100.083 45.7265 99.8561 45.9721 99.567 46.1446C99.2764 46.3156 98.9469 46.4011 98.5769 46.4011C98.2023 46.4011 97.8682 46.3156 97.5759 46.1446C97.2837 45.9721 97.0553 45.7265 96.8921 45.4063C96.7304 45.0877 96.648 44.7147 96.648 44.2888C96.648 43.8644 96.7304 43.4914 96.8921 43.1712C97.0553 42.851 97.2837 42.6055 97.5759 42.4345C97.8682 42.2635 98.2023 42.178 98.5769 42.178Z" fill="#2E2E2E"/>
<path d="M107.13 41.3847H106.186V45.715L103.347 41.3847H102.403V47.2211H103.347V42.9079L106.186 47.2211H107.13V41.3847Z" fill="#2E2E2E"/>
<path d="M95.829 23.2787L88.1987 23.2787C88.215 23.2787 88.2312 22.7854 88.2312 22.6037C88.2312 18.7407 84.4893 15.5407 79.8736 15.5407C75.2579 15.5407 71.5163 18.7751 71.5163 22.638C71.5163 22.8197 71.5323 23.2787 71.5486 23.2787L64.9314 23.2787C61.5746 23.2787 58.8533 26.8299 58.8533 31.8012L101.907 31.8011C101.907 26.8298 99.1858 23.2787 95.829 23.2787ZM79.6204 25.6949C78.2217 25.6949 77.0879 24.4905 77.0878 23.0047C77.0878 21.5189 78.2217 20.3145 79.6204 20.3145C81.0192 20.3145 82.153 21.5189 82.153 23.0047C82.153 24.4904 81.0192 25.6949 79.6204 25.6949Z" fill="#EECA2F"/>
<g style="mix-blend-mode:multiply" opacity="0.4">
<path d="M101.747 31.7985C101.747 27.1822 99.4157 23.704 96.4086 23.1877C97.5305 24.751 98.2277 26.8271 98.2277 29.3127L58.9336 29.3128C58.7799 30.3781 58.6929 31.0885 58.6929 31.7986L101.747 31.7985Z" fill="#EECA2F"/>
</g>
<path d="M91.5198 138.747C91.5198 138.747 94.7381 139.607 95.028 139.167C95.028 139.167 95.5022 138.773 92.4023 136.528L91.5198 138.747Z" fill="#4D4D4D"/>
<path d="M50.1103 122.996C49.6173 123.173 49.0744 122.917 48.8977 122.424C48.0448 120.047 43.9803 119.466 40.7144 119C39.1599 118.778 37.6914 118.568 36.6491 118.183C34.5391 117.402 31.8511 116.228 29.7725 114.068C26.8084 110.987 25.6695 107.71 25.1835 106.311C25.1174 106.121 25.0694 105.975 25.0307 105.883C24.7879 105.522 24.82 105.028 25.1328 104.7C25.4948 104.322 26.0946 104.308 26.4734 104.67C26.6935 104.88 26.7757 105.117 26.9744 105.689C27.4197 106.97 28.463 109.972 31.1389 112.753C32.9506 114.636 35.3873 115.694 37.3075 116.404C38.1599 116.72 39.5309 116.915 40.9825 117.123C44.7522 117.661 49.4437 118.331 50.6825 121.784C50.8592 122.277 50.6032 122.819 50.1103 122.996Z" fill="#808080"/>
<path d="M92.1923 139.117C92.1923 139.117 59.4322 128.265 26.2426 107.941C26.2426 107.941 22.0911 102.612 28.7458 103.146C28.7458 103.146 56.4376 112.456 93.3549 136.85L92.1923 139.117Z" fill="#CC600E"/>
<g opacity="0.1">
<path d="M27.9828 104.752C27.9828 104.752 55.65 114.055 92.5423 138.424L93.3549 136.839C56.4376 112.446 28.7458 103.135 28.7458 103.135C25.5806 102.881 24.8617 103.954 24.9765 105.149C25.5512 104.807 26.4959 104.633 27.9828 104.752Z" fill="white"/>
</g>
<g style="mix-blend-mode:multiply" opacity="0.3">
<path d="M92.1476 137.121C92.1476 137.121 59.3875 126.269 26.1979 105.946C26.1979 105.946 25.5392 105.098 25.1673 104.114C24.3653 105.529 26.2433 107.944 26.2433 107.944C59.4329 128.267 92.193 139.12 92.193 139.12L93.3556 136.852C93.0862 136.675 92.8223 136.505 92.5541 136.329L92.1476 137.121Z" fill="#CC600E"/>
</g>
</g>
</g>
<defs>
<clipPath id="clip0_1_634">
<rect width="155.431" height="155.431" fill="white" transform="translate(2)"/>
</clipPath>
</defs>
</svg>
