<svg width="149" height="132" viewBox="0 0 149 132" fill="none" xmlns="http://www.w3.org/2000/svg">
<path d="M145.068 46.0938H34.4715C32.6876 46.0938 31.2423 47.5412 31.2423 49.3241V115.67C31.2423 117.45 32.6876 118.898 34.4715 118.898H78.7363V124.17H56.4996C55.0426 124.17 53.864 125.347 53.864 126.806V128.783C53.864 130.237 55.0426 131.416 56.4996 131.416H123.041C124.498 131.416 125.677 130.237 125.677 128.783V126.806C125.677 125.347 124.498 124.17 123.041 124.17H100.804V118.898H145.068C146.85 118.898 148.296 117.45 148.296 115.67V49.3241C148.296 47.5412 146.85 46.0938 145.068 46.0938Z" fill="#A6A6A6"/>
<path d="M141.401 112.411H38.4777V51.668H141.401V112.411Z" fill="#FEFEFE"/>
<path d="M123.979 106.678H116.163V61.1289H123.979V106.678Z" fill="#103557"/>
<path d="M111.952 106.681H104.136V65.7461H111.952V106.681Z" fill="#0D2235"/>
<path d="M99.9268 106.669H92.11V69.8398H99.9268V106.669Z" fill="#038477"/>
<path d="M87.898 106.675H80.0824V79.4258H87.898V106.675Z" fill="#ACC7E2"/>
<path d="M75.8742 106.676H68.0574V73.9727H75.8742V106.676Z" fill="#A6A6A6"/>
<path d="M63.8469 106.674H56.0312V73.7539H63.8469V106.674Z" fill="#ACC7E2"/>
<path d="M19.4606 64.0552L20.1583 61.0011C21.0608 60.9531 21.9329 60.8212 22.7545 60.5726L24.4233 63.2008C24.7798 63.7655 25.5305 63.937 26.0971 63.5832L29.7856 61.2872C30.3555 60.9065 30.5215 60.1797 30.1734 59.5895L28.5012 56.9631C29.1106 56.3124 29.6086 55.5842 30.0444 54.7894L33.0985 55.487C33.7544 55.6369 34.3849 55.2204 34.5341 54.5672L35.5033 50.3246C35.6531 49.6687 35.2606 49.0433 34.6047 48.8935L31.5506 48.1958C31.5026 47.293 31.3702 46.4208 31.1043 45.5679L33.7564 43.9042C34.3208 43.5477 34.4923 42.797 34.1388 42.2304L31.8126 38.5627C31.4618 37.972 30.7111 37.8005 30.1388 38.1804L27.4948 39.8211C26.8621 39.2429 26.1337 38.7455 25.3421 38.3079L26.0398 35.2538C26.1891 34.6003 25.7762 33.943 25.1224 33.7936L20.8794 32.8244C20.2239 32.6746 19.569 33.0881 19.4197 33.7415L18.7275 36.7718C17.8425 36.8515 16.9707 36.9834 16.1234 37.2236L14.4538 34.5974C14.105 34.0072 13.3522 33.8352 12.7821 34.2155L9.09474 36.5095C8.52756 36.8658 8.35608 37.6165 8.71239 38.1834L10.3763 40.833C9.79249 41.4917 9.27118 42.2146 8.83386 43.0066L5.80327 42.3143C5.14981 42.165 4.50053 42.5524 4.3507 43.2083L3.38153 47.451C3.23233 48.1042 3.64363 48.7586 4.29709 48.9079L7.32768 49.6001C7.40075 50.5112 7.53291 51.3834 7.77876 52.2043L5.12936 53.8687C4.55679 54.2485 4.39076 54.9753 4.74155 55.5664L7.06659 59.236C7.42097 59.8002 8.17379 59.9722 8.73831 59.6179L11.3831 57.9751C12.0415 58.5617 12.7696 59.0591 13.5382 59.4888L12.8405 62.543C12.6907 63.1986 13.1017 63.8532 13.7573 64.003L18.0003 64.9722C18.654 65.1215 19.3109 64.7108 19.4606 64.0552ZM12.299 47.2684C13.1962 43.3406 17.1338 40.8471 21.0854 41.7497C25.0131 42.647 27.4753 46.6024 26.578 50.5302C25.6808 54.4579 21.7514 56.9257 17.8236 56.0285C13.872 55.1258 11.4018 51.1961 12.299 47.2684Z" fill="#B16848"/>
<path d="M39.1022 43.8666L42.4311 41.5977C43.3624 42.3469 44.349 43.0003 45.3768 43.5338L44.6426 47.4934C44.4788 48.3574 45.0397 49.1803 45.9175 49.3639L51.5158 50.424C52.3996 50.574 53.2225 50.0131 53.386 49.1493L54.1518 45.1975C55.3023 45.0745 56.4591 44.827 57.6013 44.4717L59.8704 47.8009C60.3737 48.5394 61.3625 48.7092 62.0807 48.2197L66.8066 44.9987C67.5473 44.4938 67.7505 43.5115 67.2472 42.7731L64.9782 39.4439C65.7414 38.5327 66.3795 37.5247 66.9146 36.4987L70.8531 37.2443C71.7369 37.3943 72.5595 36.8336 72.7231 35.9698L73.8034 30.3577C73.9532 29.4737 73.3924 28.6508 72.5285 28.4872L68.555 27.7363C68.4542 26.571 68.2063 25.4141 67.8494 24.2734L71.1783 22.0045C71.8988 21.5134 72.0884 20.5112 71.5987 19.7927L68.3776 15.0668C67.873 14.3263 66.8708 14.1363 66.1503 14.6274L62.8214 16.8963C61.8901 16.1471 60.9054 15.4954 59.8576 14.9755L60.6237 11.0204C60.7737 10.1366 60.2142 9.3158 59.3504 9.15222L53.7181 8.08566C52.8543 7.92209 52.0317 8.48277 51.8481 9.36019L51.1157 13.3185C49.9515 13.4215 48.7936 13.6668 47.6528 14.0241L45.3837 10.6949C44.8941 9.97649 43.8919 9.78649 43.1512 10.2913L38.4253 13.5124C37.707 14.0019 37.5172 15.0043 38.0069 15.7228L40.276 19.052C39.5263 19.9831 38.8744 20.9714 38.3529 22.0173L34.3811 21.2652C33.5173 21.1016 32.6944 21.6625 32.5108 22.5399L31.4645 28.1584C31.3007 29.0224 31.8601 29.8432 32.7378 30.0266L36.6795 30.773C36.8002 31.9247 37.0462 33.0799 37.4031 34.2206L34.0742 36.4895C33.334 36.994 33.1641 37.9828 33.6688 38.7233L36.8898 43.4492C37.3795 44.1677 38.362 44.3711 39.1022 43.8666ZM47.2089 21.2772C51.5857 18.2941 57.5993 19.4329 60.596 23.8297C63.5805 28.2085 62.4402 34.2198 58.0634 37.2029C53.6663 40.1998 47.6548 39.063 44.6703 34.6841C41.6736 30.2874 42.8119 24.2741 47.2089 21.2772Z" fill="#B16848"/>
<path d="M52.3968 68.5467L51.1684 66.6849C51.5608 66.2001 51.9264 65.6644 52.2147 65.1084L54.41 65.5541C54.8774 65.6616 55.3363 65.3425 55.4459 64.8765L56.0516 61.8262C56.1452 61.3786 55.8399 60.8995 55.3587 60.8122L53.1972 60.3604C53.1488 59.7247 53.0182 59.1237 52.8314 58.5139L54.6915 57.2874C55.0897 57.015 55.2055 56.4914 54.9338 56.0971L53.2241 53.4838C52.9724 53.1031 52.4154 52.9934 52.0189 53.2639L50.171 54.4725C49.6861 54.0797 49.1726 53.7293 48.5965 53.4272L49.0621 51.2459C49.1496 50.7645 48.8507 50.3194 48.3693 50.2319L45.334 49.6042C44.8666 49.4967 44.4077 49.8158 44.3121 50.262L43.8682 52.4586C43.2327 52.5067 42.6116 52.6239 42.0222 52.8243L40.7933 50.9626C40.5228 50.5665 39.9994 50.4504 39.583 50.7073L36.992 52.4315C36.6091 52.6821 36.4794 53.2255 36.7499 53.622L37.9784 55.4838C37.5678 55.9563 37.2175 56.4695 36.9134 57.0442L34.754 56.5938C34.2707 56.5051 33.8256 56.804 33.7167 57.2735L33.0925 60.308C33.005 60.7895 33.3018 61.2332 33.7701 61.3443L35.9448 61.7724C36.0132 62.4218 36.132 63.0444 36.3102 63.619L34.4488 64.8474C34.0523 65.1179 33.9582 65.6563 34.1953 66.0589L35.9196 68.6503C36.1902 69.0468 36.7136 69.1629 37.1301 68.906L38.9698 67.6621C39.4643 68.0881 39.9778 68.4386 40.5325 68.7286L40.1017 70.9022C39.9928 71.3717 40.312 71.8303 40.7595 71.9242L43.8161 72.5635C44.2762 72.6394 44.7411 72.3544 44.8298 71.8711L45.2807 69.7113C45.9301 69.643 46.5324 69.5099 47.1268 69.3456L48.3554 71.2071C48.6257 71.6035 49.1646 71.6975 49.5588 71.4254L52.1372 69.7245C52.5546 69.4656 52.6485 68.9274 52.3968 68.5467ZM43.5264 66.1942C40.6969 65.6184 38.886 62.8479 39.4481 60.0383C40.0223 57.2107 42.8081 55.3779 45.6378 55.9535C48.43 56.5361 50.2766 59.3021 49.6823 62.1159C49.1046 64.9438 46.3539 66.7686 43.5264 66.1942Z" fill="#B16848"/>
</svg>
