<svg width="125" height="128" viewBox="0 0 125 128" fill="none" xmlns="http://www.w3.org/2000/svg">
<path d="M46.6253 88.7395C42.4421 85.1772 41.2761 80.5055 43.3993 75.8213C45.3785 71.4558 49.8288 69.1021 54.8942 69.7421C59.4653 70.3197 63.209 74.1242 63.8249 79.1713C64.3035 83.0931 62.8111 86.3208 59.6151 88.7087C58.9392 85.3262 57.9397 84.2409 54.9409 83.6374C56.0553 82.7635 57.2031 81.9112 57.0166 80.2425C57.0258 79.7447 57.0358 79.2454 57.0449 78.7476C57.367 75.2395 56.062 73.5374 53.1123 73.609C51.1855 73.6556 49.7098 74.4097 49.1414 76.3531C48.4888 78.5812 49.6357 82.2192 51.2388 83.2904C48.6711 84.235 46.9907 85.9304 46.6253 88.7395Z" fill="#B6C0CF"/>
<path d="M9.05763 81.6481C5.46873 79.1346 3.97724 74.6601 5.33057 70.4711C6.70387 66.2205 10.6582 63.3274 15.0977 63.3266C19.5963 63.3258 23.6329 66.352 24.9463 70.7091C26.1848 74.8199 24.6775 79.1604 21.1518 81.6348C20.8863 78.8582 19.5322 77.0729 16.6433 76.6868C17.3049 74.9406 19.3957 73.7662 18.7248 71.4865L18.8139 71.3725L18.6591 71.2734C18.5659 71.1969 18.5501 71.1078 18.6117 71.0038C18.6291 68.5718 17.2367 67.6296 15.0036 67.6729C12.8779 67.7145 11.5845 68.6791 11.6444 70.9788C10.6898 73.4 12.654 74.8732 13.5046 76.7076C10.4501 77.4275 9.51124 78.4704 9.05763 81.6481Z" fill="#026A60"/>
<path d="M78.4252 88.846C74.8679 85.9953 73.3647 82.4189 74.5749 77.8953C75.6419 73.9078 79.2758 70.6942 83.5255 70.3763C87.9001 70.0492 91.1985 72.085 93.3958 75.8171C95.8936 80.0602 94.7017 85.436 90.6967 88.4348C90.0982 85.8563 88.6575 84.1118 85.9467 83.6191C86.8797 81.9511 88.6226 80.5279 87.5564 78.2599C88.6492 76.9423 87.5414 76.006 86.7291 75.5049C85.6304 74.8275 84.109 73.1695 83.2509 74.0426C82.3778 74.9298 80.4352 75.8437 81.1252 77.8354C80.6249 80.1617 81.4256 82.0427 83.106 83.6224C79.8442 84.3149 78.8163 85.4626 78.4252 88.846Z" fill="#5E8ACC"/>
<path d="M4.57733 52.6828C0.848604 49.7648 -0.478089 45.6465 0.960966 41.4567C2.35508 37.3992 6.18118 34.7017 10.4784 34.7492C14.7473 34.7966 18.4818 37.5723 19.8193 41.6922C21.1352 45.7464 19.7827 49.9154 16.3128 52.4997C15.865 49.8522 14.6307 47.9686 11.6919 47.7414C12.7514 46.0494 14.4243 44.6303 14.0956 42.3223C13.8958 39.7163 12.8338 38.5653 10.6007 38.5395C8.26444 38.512 6.83121 39.9477 6.64311 42.5054C6.12292 44.8841 8.17039 46.0693 9.09341 47.7772C6.03636 48.2466 4.94021 49.4377 4.57733 52.6828Z" fill="#6EA1CC"/>
<path d="M19.9557 111.889C16.5199 109.402 15.1999 105.315 16.4117 101.32C17.4047 98.0481 20.9911 94.3085 25.8292 94.6231C30.2613 94.9111 33.7495 97.1908 35.0187 101.299C36.273 105.361 34.9372 109.376 31.5131 111.836C31.0728 109.325 29.9417 107.461 27.1393 107.158C27.5788 105.431 29.8784 104.504 29.2284 102.308C30.3761 100.081 28.9188 98.9062 27.2816 98.1172C24.2287 96.6465 21.5329 99.1584 21.701 103.183C21.6186 105.103 24.1938 105.307 24.2504 107.137C21.5579 107.581 20.2187 109.249 19.9557 111.889Z" fill="#38689F"/>
<path d="M48.5967 124.888C43.8309 121.138 43.3549 114.585 47.5297 110.2C51.4349 106.096 58.1274 106.178 62.0043 110.376C66.0244 114.729 65.3985 121.305 60.6094 125.054C60.5012 122.369 58.9598 120.851 56.5352 120.052C56.5511 118.897 58.0966 118.777 58.1591 117.652C59.5174 115.96 59.2619 114.304 58.0475 112.669L58.0675 112.703C57.4708 110.932 56.0342 110.477 54.4187 110.589C52.8015 110.701 51.4082 111.306 51.1161 113.197L51.1319 113.162C50.2089 113.842 50.5701 114.841 50.5951 115.692C50.665 118.034 50.4944 120.325 49.6513 122.532C48.9355 123.155 49.0204 124.135 48.5967 124.888Z" fill="#A0C3DA"/>
<path d="M58.1823 55.8007C53.7245 52.136 53.2676 45.8471 57.1636 41.7564C61.0613 37.6639 67.6207 37.7829 71.3269 42.0135C75.1355 46.3615 74.3906 52.5622 69.6249 56.181C69.7505 53.5268 68.5104 51.9346 65.9103 51.3994C65.7954 51.0349 65.6781 50.672 65.5616 50.3091C67.2653 49.2629 67.763 47.6899 67.5366 45.798C67.3144 42.2715 67.3152 42.2541 63.9777 42.2749C62.7434 42.2824 61.1861 41.9569 60.3638 42.5712C59.4608 43.2453 61.162 44.5679 60.7192 45.7431C60.7034 46.0552 60.6884 46.3673 60.6743 46.6794C60.6884 47.034 60.7026 47.3877 60.7167 47.7423C60.6085 48.4289 60.9056 48.9167 61.4658 49.2771L61.5532 49.3694C61.936 49.992 62.3181 50.6146 62.7009 51.2371C59.9901 51.5659 59.0363 53.6333 58.1823 55.8007Z" fill="#3486D2"/>
<path d="M29.6242 36.7414C25.119 33.2124 24.5879 27.3263 28.4041 23.2231C32.0304 19.3237 38.0571 19.2547 41.7484 23.0699C45.6702 27.1233 45.1925 33.0842 40.6456 36.8221C40.3734 34.2869 39.1574 32.6281 36.4749 32.3327C37.9489 30.5157 38.9785 28.6622 38.0779 26.1445C37.5153 24.5706 36.4533 24.1228 35.0617 24.1852C33.7167 24.246 32.7903 24.6721 32.266 26.3218C31.4703 28.8237 32.3633 30.5316 33.8656 32.2378C31.2614 32.6173 30.0046 34.2669 29.6242 36.7414Z" fill="#439C95"/>
<path d="M82.8804 119.217C79.4064 116.862 77.8674 112.627 79.0152 108.577C80.1613 104.534 84.2021 101.359 88.3611 101.237C92.5451 101.114 96.6251 104.009 98.0333 108.1C99.4416 112.195 98.1191 116.383 94.5618 119.092C94.516 118.788 94.4711 118.483 94.4261 118.179C94.5826 114.466 92.9871 111.067 92.4586 107.465C92.1698 105.497 90.332 104.54 88.2762 104.717C86.2321 104.893 84.8338 106.073 84.5642 108.123C84.292 110.192 83.7884 112.181 83.2624 114.188C82.9137 115.519 82.4959 116.918 83.0094 118.335C82.9661 118.629 82.9237 118.923 82.8804 119.217Z" fill="#61ADA8"/>
<path d="M54.9397 83.6403C57.9385 84.2437 58.9381 85.3291 59.6139 88.7116C56.7 91.8477 49.8985 91.955 46.625 88.7415C46.9904 85.9333 48.67 84.2379 51.236 83.2924C52.3421 84.7598 53.6405 84.2105 54.9397 83.6403Z" fill="#39218B"/>
<path d="M85.9463 83.6167C88.6572 84.1094 90.0979 85.8539 90.6963 88.4324C87.7167 91.6751 82.3133 91.8557 78.4248 88.8436C78.816 85.4603 79.8439 84.3125 83.1057 83.62C84.0537 84.5722 85 84.037 85.9463 83.6167Z" fill="#7D3B99"/>
<path d="M9.05811 81.6453C9.51171 78.4675 10.4506 77.4247 13.5051 76.7047C14.5613 78.1729 15.6075 78.2719 16.6429 76.6839C19.5318 77.0701 20.886 78.8554 21.1515 81.6319C17.1231 84.3719 13.0923 84.3677 9.05811 81.6453Z" fill="#BCCCD1"/>
<path d="M27.138 107.157C29.9404 107.46 31.0706 109.324 31.5109 111.835C27.7339 114.87 23.758 114.887 19.9552 111.887C20.2182 109.248 21.5566 107.58 24.2474 107.137C25.207 107.647 26.1675 108.09 27.138 107.157Z" fill="#FB8F13"/>
<path d="M4.57715 52.6816C4.94003 49.4365 6.03701 48.2454 9.09407 47.776C9.24721 48.3412 9.05412 49.1576 10.0304 49.1402C10.9501 49.1235 11.4953 48.63 11.6925 47.7402C14.6314 47.9675 15.8649 49.8501 16.3126 52.4977C12.5731 55.4108 8.60467 55.4732 4.57715 52.6816Z" fill="#E01619"/>
<path d="M29.623 36.737C30.0034 34.2626 31.2602 32.613 33.8645 32.2326C34.7201 32.6404 35.5724 33.1398 36.4737 32.3283C39.1563 32.6238 40.3723 34.2826 40.6444 36.8178C36.939 39.5236 33.1096 39.4953 29.623 36.737Z" fill="#1A1B1B"/>
<path d="M48.5969 124.894C49.0206 124.141 48.9365 123.16 49.6515 122.539C49.8371 123.063 49.9844 123.603 50.2208 124.103C50.463 124.614 50.2515 125.62 51.2303 125.423C51.9478 125.278 52.1384 124.541 52.0868 123.854C51.9886 122.554 52.5371 121.492 53.2428 120.475C54.6403 122.699 55.5275 120.902 56.5354 120.057C58.96 120.856 60.5022 122.374 60.6104 125.059C56.5912 127.954 52.3914 127.897 48.5969 124.894Z" fill="#3DA96D"/>
<path d="M82.8813 119.21C82.9246 118.916 82.9671 118.622 83.0104 118.327C86.8157 118.275 90.6209 118.224 94.4262 118.172C94.4712 118.476 94.5161 118.781 94.5619 119.085C90.7258 121.883 86.6933 121.925 82.8813 119.21Z" fill="#FA3234"/>
<path d="M57.045 78.7468C57.0358 79.2445 57.0258 79.7422 57.0167 80.2407C56.4491 80.706 55.9314 81.2586 55.303 81.6182C53.6159 82.5828 51.9713 82.4622 50.4648 81.1821C49.2371 80.1392 49.049 78.8832 49.7823 77.4825C50.6937 75.7421 52.2309 75.4433 54.0154 75.6239C55.933 75.8179 56.3342 77.4176 57.045 78.7468Z" fill="#F2C150"/>
<path d="M57.0445 78.7461C56.3337 77.4169 55.9325 75.8172 54.0149 75.6233C52.2304 75.4427 50.6931 75.7415 49.7818 77.4818C49.0485 78.8826 49.2366 80.1394 50.4643 81.1822C51.9707 82.4623 53.6154 82.5822 55.3025 81.6175C55.9308 81.258 56.4494 80.7062 57.017 80.2409C57.2034 81.9097 56.0549 82.7619 54.9404 83.6359C53.6403 84.206 52.3428 84.7553 51.2366 83.288C49.6353 82.2176 48.4884 78.5796 49.1409 76.3515C49.7094 74.4081 51.1859 73.6532 53.1127 73.6066C56.0623 73.535 57.3666 75.2379 57.0445 78.7461Z" fill="#1A1B1B"/>
<path d="M16.6426 76.6822C15.6072 78.2702 14.561 78.172 13.5048 76.7038C12.6534 74.8694 10.6891 73.3963 11.6438 70.9743C14.1274 68.3134 16.0525 68.3209 18.611 71.0001C18.5494 71.1041 18.5644 71.1932 18.6576 71.2689L18.7242 71.4828C19.395 73.7625 17.3043 74.936 16.6426 76.6822Z" fill="#F2C150"/>
<path d="M18.6135 71.007C16.055 68.3278 14.1299 68.3211 11.6463 70.982C11.5864 68.6832 12.8798 67.7177 15.0055 67.6761C17.2385 67.6328 18.631 68.575 18.6135 71.007Z" fill="#1A1B1B"/>
<path d="M18.725 71.4853L18.6584 71.2714L18.8141 71.3712L18.725 71.4853Z" fill="#1A1B1B"/>
<path d="M85.9467 83.6226C85.0004 84.043 84.0533 84.579 83.1053 83.6268C81.4248 82.0463 80.625 80.1652 81.1244 77.839C83.3192 77.2039 85.5306 76.33 87.5564 78.2634C88.6226 80.5315 86.8798 81.9547 85.9467 83.6226Z" fill="#F2C150"/>
<path d="M87.5569 78.2578C85.531 76.3244 83.3196 77.1983 81.1248 77.8333C80.4348 75.8416 82.3783 74.9278 83.2514 74.0405C84.1095 73.1674 85.6309 74.8254 86.7296 75.5029C87.5419 76.0039 88.6497 76.9403 87.5569 78.2578Z" fill="#1A1B1B"/>
<path d="M11.6926 47.7412C11.4954 48.6309 10.951 49.1245 10.0313 49.1411C9.05504 49.1586 9.2473 48.3421 9.09415 47.777C8.1703 46.0691 6.12449 44.8839 6.64385 42.5052C9.09832 41.2234 11.5586 40.218 14.0963 42.3221C14.4251 44.6301 12.7521 46.0491 11.6926 47.7412Z" fill="#F2C150"/>
<path d="M14.0956 42.3257C11.5579 40.2216 9.09766 41.2278 6.64319 42.5096C6.83129 39.9528 8.26452 38.5162 10.6008 38.5437C12.8339 38.5695 13.8959 39.7197 14.0956 42.3257Z" fill="#1A1B1B"/>
<path d="M27.139 107.156C26.1686 108.089 25.2073 107.645 24.2476 107.135C24.1919 105.305 21.6175 105.1 21.6999 103.181C24.5514 100.457 27.1415 100.156 29.2273 102.305C29.8773 104.502 27.5785 105.429 27.139 107.156Z" fill="#F2C150"/>
<path d="M29.227 102.309C27.1412 100.159 24.5511 100.461 21.6996 103.185C21.5315 99.1597 24.2281 96.6478 27.281 98.1185C28.9182 98.9075 30.3747 100.083 29.227 102.309Z" fill="#E01619"/>
<path d="M56.5345 120.058C55.5266 120.903 54.6402 122.7 53.2419 120.477C52.1191 118.162 50.4121 116.014 51.1312 113.168L51.1162 113.203C53.2818 110.908 55.6115 110.927 58.0668 112.708L58.0468 112.675C58.0842 114.336 58.1217 115.997 58.1591 117.658C58.0967 118.783 56.5503 118.903 56.5345 120.058Z" fill="#F2C150"/>
<path d="M51.1323 113.166C50.4132 116.013 52.1194 118.16 53.2422 120.476C52.5364 121.491 51.9887 122.553 52.0869 123.853C52.1385 124.541 51.9479 125.277 51.2305 125.422C50.2517 125.619 50.4631 124.614 50.2209 124.102C49.9845 123.603 49.8372 123.063 49.6516 122.538C50.4956 120.33 50.6654 118.04 50.5954 115.697C50.5705 114.846 50.2093 113.846 51.1323 113.166Z" fill="#1A1B1B"/>
<path d="M58.0681 112.706C55.6128 110.925 53.2824 110.906 51.1167 113.2C51.4088 111.309 52.8021 110.704 54.4193 110.593C56.0348 110.48 57.4713 110.935 58.0681 112.706Z" fill="#1A1B1B"/>
<path d="M58.1593 117.653C58.1218 115.991 58.0852 114.332 58.0477 112.671C59.2621 114.305 59.5176 115.961 58.1593 117.653Z" fill="#1A1B1B"/>
<path d="M60.7213 45.74C61.1632 44.564 59.462 43.2423 60.3651 42.5681C61.1874 41.9539 62.7446 42.2793 63.9789 42.2718C67.3165 42.251 67.3165 42.2685 67.5387 45.795C65.7534 45.0168 63.9356 46.0913 62.1437 45.7018C62.053 45.5053 61.9614 45.3106 61.8707 45.1142C61.7467 45.2856 61.6218 45.4562 61.497 45.6285C61.2373 45.666 60.9801 45.7034 60.7213 45.74Z" fill="#1A1B1B"/>
<path d="M62.1439 45.6992C63.9359 46.0888 65.7528 45.0134 67.5381 45.7916C67.7645 47.6835 67.2651 49.2565 65.5622 50.3027C64.6533 48.1662 62.9446 49.4438 61.5538 49.363L61.4673 49.2707C61.563 48.5898 61.2492 48.1096 60.7174 47.7359C60.7032 47.3813 60.6899 47.0268 60.6749 46.6739C61.0961 46.4408 61.3924 46.1096 61.4972 45.626C61.7136 45.6501 61.9284 45.6751 62.1439 45.6992Z" fill="#F2C150"/>
<path d="M61.5535 49.3623C62.9442 49.4431 64.653 48.1655 65.5618 50.302C65.6784 50.6649 65.7949 51.0278 65.9097 51.3923C65.4353 52.2771 65 52.9679 63.69 52.8089C62.4291 52.6558 63.0524 51.7228 62.7004 51.23C62.3184 50.6075 61.9363 49.9849 61.5535 49.3623Z" fill="#AC9347"/>
<path d="M61.4956 45.6263C61.3915 46.109 61.0961 46.4403 60.6749 46.6733C60.6899 46.3604 60.7041 46.0483 60.7199 45.7361C60.9796 45.6995 61.2367 45.6629 61.4956 45.6263Z" fill="#AC9347"/>
<path d="M36.4751 32.3358C35.5737 33.1473 34.7215 32.6479 33.8659 32.2401C32.3636 30.5347 31.4705 28.8268 32.2662 26.3249C32.7905 24.6753 33.7169 24.2492 35.0619 24.1884C36.4535 24.126 37.5155 24.5738 38.0782 26.1476C38.9787 28.6654 37.9491 30.5189 36.4751 32.3358Z" fill="#F2C150"/>
<path d="M94.4252 118.173C90.6199 118.225 86.8146 118.276 83.0093 118.328C82.4949 116.912 82.9128 115.513 83.2615 114.181C83.7875 112.175 84.291 110.185 84.5632 108.117C84.8329 106.066 86.2311 104.887 88.2753 104.711C90.3311 104.533 92.1688 105.49 92.4576 107.459C92.9861 111.061 94.5817 114.46 94.4252 118.173ZM92.0939 109.48C91.8725 108.111 90.0739 107.682 88.6315 107.189C87.4513 106.786 85.0426 109.142 85.0901 110.302C85.1691 112.222 86.7738 113.744 88.6823 113.708C90.6257 113.672 92.1339 112.11 92.0939 109.48Z" fill="#1A1B1B"/>
<path d="M92.095 109.48C92.1349 112.109 90.6268 113.671 88.6834 113.707C86.7749 113.743 85.1702 112.222 85.0911 110.301C85.0437 109.141 87.4524 106.786 88.6326 107.189C90.075 107.681 91.8736 108.111 92.095 109.48Z" fill="#F2C150"/>
<path d="M44.2438 72.8617C29.6377 68.2769 21.305 58.1502 18.4651 43.3483C14.9464 25.0057 28.6278 5.93246 47.1118 1.74109C61.2244 -1.45886 79.8199 5.74102 87.3473 20.7484C87.616 21.2841 87.7679 21.8786 87.9743 22.4459C87.0426 23.1985 85.4215 23.4558 85.8861 25.2305C86.8468 28.9029 86.2215 32.6411 86.3497 36.3469C86.3778 37.167 86.8556 38.3762 85.3574 38.6063C84.8279 29.7266 82.3015 21.7232 75.2922 15.6886C65.0548 5.07802 46.6464 4.79878 34.8591 15.0765C22.04 26.2535 20.9774 47.09 32.6541 58.3021C32.9166 58.6385 33.1485 59.0055 33.447 59.3067C39.4623 65.3791 46.9168 67.9828 55.2943 68.3551C55.0721 69.6363 54.0561 69.3527 53.2315 69.3658C51.398 69.3948 49.5636 69.3685 47.73 69.379C44.6987 69.3957 44.3149 69.7847 44.2438 72.8617Z" fill="#242E41"/>
<path d="M92.4642 71.0693C93.5321 71.2072 93.9571 70.2983 94.5832 69.7416C96.0655 68.4252 98.8255 68.3023 100.176 69.6467C108.109 77.5403 116.013 85.4629 123.929 93.3741C124.429 93.8746 124.904 94.3848 124.891 95.1602C122.799 94.7967 121.053 95.6617 119.702 97.057C115.615 101.283 109.262 101.033 104.342 96.0437C99.045 90.6729 93.6752 85.3734 88.3414 80.0378C87.667 79.3625 86.8547 78.7645 86.8521 77.6633C87.1462 76.8633 88.2746 76.5322 88.0858 75.4609C89.9238 74.3746 91.3982 72.9248 92.4642 71.0693Z" fill="#038477"/>
<path d="M85.3577 38.5975C86.8558 38.3674 86.379 37.1573 86.3509 36.3371C86.2227 32.6314 86.847 28.894 85.8863 25.2216C85.4218 23.4469 87.0437 23.1887 87.9754 22.4362C91.7365 28.9484 92.0544 36.0166 91.2114 43.227C90.6371 48.1376 88.7895 52.6354 86.2745 56.8689C85.6088 57.9894 84.7948 59.0432 84.5955 60.3876C82.1973 62.7911 79.7999 65.1955 77.4017 67.5989C75.6797 67.8255 74.4178 68.9978 72.9724 69.7811C63.8116 74.7461 54.2759 76.0888 44.244 72.852C44.3151 69.775 44.6998 69.386 47.7311 69.3693C49.5647 69.3587 51.3991 69.3851 53.2327 69.3561C54.0572 69.3429 55.0733 69.6266 55.2954 68.3454C70.1746 68.0433 84.8141 54.0115 85.3577 38.5975Z" fill="#151C2E"/>
<path d="M86.851 77.6625C86.8536 78.7637 87.6659 79.3617 88.3403 80.037C93.6741 85.3726 99.0431 90.6722 104.34 96.0429C109.26 101.032 115.614 101.282 119.701 97.0563C121.052 95.6609 122.798 94.7959 124.89 95.1595L124.874 95.156C124.882 95.7329 124.891 96.3099 124.901 96.8868C124.971 97.4716 124.654 97.8791 124.274 98.2593C121.306 101.233 118.356 104.225 115.363 107.173C113.796 108.717 112.137 108.73 110.563 107.16C102.51 99.1217 94.4478 91.0928 86.4391 83.0095C84.6266 81.1804 84.8339 79.6559 86.851 77.6625Z" fill="#026A60"/>
<path d="M77.4019 67.5967C79.8001 65.1933 82.1974 62.7889 84.5956 60.3854C84.6333 62.5167 85.4869 64.1931 87.0992 65.6394C88.9872 67.3342 90.6837 69.2415 92.4637 71.0566C91.3977 72.9121 89.9241 74.3628 88.0862 75.4491C86.2702 73.6673 84.3673 71.9637 82.6654 70.0792C81.2156 68.4731 79.5436 67.6046 77.4019 67.5967Z" fill="#232E41"/>
<g opacity="0.2">
<path d="M32.6549 58.3001C20.9782 47.088 22.0408 26.2515 34.8599 15.0745C46.6472 4.79672 65.0556 5.07597 75.293 15.6865C76.1378 17.8617 76.9553 20.0483 77.8334 22.2103C81.7772 31.9155 80.1667 41.0666 74.6221 49.5485C67.5715 60.3339 54.1219 65.2392 42.3996 61.9233C39.0758 60.9828 35.8987 59.5225 32.6549 58.3001ZM52.759 13.0012C50.482 12.8949 48.4737 13.2146 46.6182 13.9549C36.2421 18.0962 30.5473 25.7817 29.5304 36.9112C29.4066 38.2627 30.1179 39.1513 31.4334 39.2796C32.8419 39.4174 33.2713 38.4111 33.1396 37.2229C32.8893 34.9679 33.6665 32.9104 34.2223 30.8064C36.178 23.3993 45.0077 16.3768 52.608 16.1476C54.02 16.1045 56.1346 16.5752 56.1846 14.5836C56.2496 12.0168 53.8242 13.4078 52.759 13.0012Z" fill="#DBF1F3"/>
</g>
<g opacity="0.21">
<path d="M32.6543 58.3012C35.8981 59.5235 39.0753 60.9839 42.399 61.9244C54.1213 65.2402 67.5709 60.3349 74.6215 49.5496C80.1661 41.0676 81.7766 31.9165 77.8329 22.2113C76.9547 20.0493 76.1372 17.8628 75.2924 15.6876C82.3017 21.7222 84.8273 29.7256 85.3568 38.6053C84.8132 54.0193 70.1737 68.0512 55.2945 68.3532C46.9171 67.9809 39.4625 65.3781 33.4473 59.3058C33.1487 59.0046 32.9169 58.6375 32.6543 58.3012Z" fill="#CAEBED"/>
</g>
</svg>
