<svg width="122" height="122" viewBox="0 0 122 122" fill="none" xmlns="http://www.w3.org/2000/svg">
<path d="M60.9992 8.65363C89.89 8.65363 113.347 32.1107 113.347 61.0015C113.347 89.8923 89.89 113.349 60.9992 113.349C32.1084 113.349 8.65137 89.8923 8.65137 61.0015C8.65137 32.1107 32.1084 8.65363 60.9992 8.65363Z" stroke="#EDEDED" stroke-width="17.2" stroke-linecap="round"/>
<path d="M60.9992 8.65363C89.89 8.65363 113.347 32.1107 113.347 61.0015C113.347 89.8923 89.89 113.349 60.9992 113.349C32.1084 113.349 8.65137 89.8923 8.65137 61.0015C8.65137 46.9106 14.2314 34.1124 23.2999 24.6978" stroke="url(#paint0_linear_1_1871)" stroke-width="13.76" stroke-linecap="round"/>
<path d="M40.0268 73.4884C41.506 73.4884 42.8029 73.2098 43.9243 72.6491C45.0423 72.0884 45.9092 71.2972 46.5181 70.272C47.1304 69.2469 47.4331 68.0601 47.4331 66.7048V66.2988C47.4331 65.0811 47.1235 63.9356 46.5009 62.8657C45.8817 61.7959 45.0561 60.9806 44.0241 60.4199C44.8978 59.9624 45.5996 59.2916 46.1328 58.4075C46.666 57.52 46.9309 56.574 46.9309 55.566V54.9778C46.9309 53.7016 46.6454 52.5801 46.0743 51.61C45.5033 50.6434 44.6949 49.8935 43.656 49.3603C42.6137 48.8305 41.4028 48.5622 40.0268 48.5622C38.6508 48.5622 37.4399 48.8305 36.3976 49.3603C35.3587 49.8935 34.5503 50.6434 33.9793 51.61C33.4082 52.5801 33.1227 53.7016 33.1227 54.9778V55.566C33.1227 56.5533 33.3842 57.489 33.9036 58.38C34.4265 59.2709 35.1179 59.952 35.9779 60.4199C34.9597 60.9703 34.1444 61.7821 33.5355 62.8554C32.9232 63.9321 32.6205 65.0811 32.6205 66.2988V66.7048C32.6205 68.0601 32.9232 69.2469 33.5355 70.272C34.1444 71.2972 35.0113 72.0884 36.1293 72.6491C37.2507 73.2098 38.5476 73.4884 40.0268 73.4884ZM40.0268 70.1964C39.2322 70.1964 38.5304 70.045 37.9284 69.7354C37.323 69.4258 36.8551 68.9924 36.5249 68.4351C36.1946 67.8744 36.0295 67.2242 36.0295 66.4846V66.2335C36.0295 65.4836 36.1946 64.8231 36.5249 64.252C36.8551 63.681 37.323 63.2372 37.9284 62.9242C38.5304 62.6112 39.2322 62.4529 40.0268 62.4529C40.8214 62.4529 41.5232 62.6112 42.1252 62.9242C42.7306 63.2372 43.1985 63.6776 43.5287 64.2417C43.859 64.8093 44.0241 65.4664 44.0241 66.2163V66.4502C44.0241 67.1898 43.859 67.8434 43.5287 68.4076C43.1985 68.9752 42.7306 69.412 42.1252 69.7285C41.5232 70.0416 40.8214 70.1964 40.0268 70.1964ZM40.0268 59.1608C39.3422 59.1608 38.7402 59.0129 38.2139 58.7171C37.6876 58.4212 37.2782 58.0016 36.9858 57.458C36.6969 56.9145 36.549 56.2884 36.549 55.5832V55.3321C36.549 54.6372 36.6969 54.0284 36.9858 53.502C37.2782 52.9757 37.6876 52.5698 38.2139 52.2843C38.7402 51.9988 39.3422 51.8543 40.0268 51.8543C40.7114 51.8543 41.3134 51.9988 41.8397 52.2843C42.366 52.5698 42.7754 52.9757 43.0678 53.502C43.3567 54.0284 43.5046 54.6338 43.5046 55.3149V55.5488C43.5046 56.2678 43.3567 56.9008 43.0678 57.4477C42.7754 57.9981 42.366 58.4212 41.8397 58.7171C41.3134 59.0129 40.7114 59.1608 40.0268 59.1608ZM64.8361 48.8133H51.5508V55.5832H54.977V52.0744H61.1897L54.8738 73.2373H58.5202L64.8361 51.8715V48.8133ZM70.5981 73.2373H73.6046L86.8727 48.8133H83.8662L70.5981 73.2373ZM84.9085 73.4884C86.195 73.4884 87.1961 73.1135 87.9047 72.3636C88.6168 71.6136 88.9711 70.5541 88.9711 69.1884V67.1244C88.9711 65.745 88.6202 64.6786 87.915 63.9252C87.2098 63.1684 86.2054 62.79 84.9085 62.79C83.6082 62.79 82.6071 63.1684 81.9019 63.9252C81.1967 64.6786 80.8424 65.7347 80.8424 67.09V69.1884C80.8424 70.5438 81.1967 71.5999 81.9019 72.3567C82.6071 73.11 83.6082 73.4884 84.9085 73.4884ZM84.9085 70.819C84.506 70.819 84.193 70.6952 83.9762 70.4509C83.7561 70.2032 83.6494 69.8386 83.6494 69.357V66.9043C83.6494 66.4468 83.7561 66.0924 83.9762 65.8482C84.193 65.6005 84.506 65.4767 84.9085 65.4767C85.3006 65.4767 85.6068 65.6005 85.8304 65.8482C86.054 66.0924 86.1675 66.4399 86.1675 66.8871V69.357C86.1675 69.8283 86.054 70.1895 85.8304 70.4406C85.6068 70.6917 85.3006 70.819 84.9085 70.819ZM72.7618 59.2778C74.0518 59.2778 75.0494 58.9028 75.7615 58.1529C76.4736 57.403 76.8279 56.3469 76.8279 54.9778V52.9138C76.8279 51.5344 76.477 50.468 75.7684 49.7146C75.0632 48.9578 74.0622 48.5794 72.7618 48.5794C71.465 48.5794 70.4639 48.9578 69.7553 49.7146C69.0501 50.468 68.6992 51.524 68.6992 52.8794V54.9778C68.6992 56.3332 69.0501 57.3892 69.7553 58.146C70.4639 58.9028 71.465 59.2778 72.7618 59.2778ZM72.7618 56.6084C72.3594 56.6084 72.0498 56.4845 71.8296 56.2403C71.6129 55.9926 71.5028 55.628 71.5028 55.1464V52.6936C71.5028 52.2361 71.6129 51.8818 71.8296 51.6376C72.0498 51.3899 72.3594 51.266 72.7618 51.266C73.154 51.266 73.4636 51.3899 73.6872 51.6376C73.9108 51.8818 74.0243 52.2292 74.0243 52.6764V55.1464C74.0243 55.6176 73.9108 55.9788 73.6872 56.23C73.4636 56.4811 73.154 56.6084 72.7618 56.6084Z" fill="#103557"/>
<defs>
<linearGradient id="paint0_linear_1_1871" x1="60.9992" y1="8.65363" x2="60.9992" y2="113.349" gradientUnits="userSpaceOnUse">
<stop stop-color="#5D89CB"/>
<stop offset="1" stop-color="#86C7CB"/>
</linearGradient>
</defs>
</svg>
