<svg width="153" height="21" viewBox="0 0 153 21" fill="none" xmlns="http://www.w3.org/2000/svg">
<path d="M4.42067 5.58253H0.367199C0.16524 5.58253 0 5.41933 0 5.21533V3.55885C0 3.35689 0.16524 3.19165 0.367199 3.19165H11.1037C11.3057 3.19165 11.4709 3.35485 11.4709 3.55885V5.21533C11.4709 5.41729 11.3077 5.58253 11.1037 5.58253H7.04818V16.7678C7.04818 16.9698 6.88498 17.135 6.68099 17.135H4.78583C4.58387 17.135 4.41863 16.9718 4.41863 16.7678V5.58253H4.42067Z" fill="black"/>
<path d="M27.9867 3.55885V14.7033H34.7901C34.9921 14.7033 35.1573 14.8665 35.1573 15.0705V16.7678C35.1573 16.9698 34.9941 17.135 34.7901 17.135H25.7244C25.5224 17.135 25.3572 16.9718 25.3572 16.7678V3.55885C25.3572 3.35689 25.5204 3.19165 25.7244 3.19165H27.6195C27.8215 3.19165 27.9867 3.35485 27.9867 3.55885Z" fill="black"/>
<path d="M47.0257 17.133H37.3235C37.1215 17.133 36.9563 16.9698 36.9563 16.7658V3.55885C36.9563 3.35689 37.1195 3.19165 37.3235 3.19165H47.0257C47.2277 3.19165 47.3929 3.35485 47.3929 3.55885V5.37445C47.3929 5.57641 47.2277 5.74165 47.0257 5.74165H39.5655V8.94852H46.7462C46.9482 8.94852 47.1134 9.11172 47.1134 9.31572V11.0314C47.1134 11.2333 46.9502 11.3986 46.7462 11.3986H39.5655V14.5442H47.0257C47.2277 14.5442 47.3929 14.7074 47.3929 14.9114V16.7678C47.3929 16.9698 47.2277 17.135 47.0257 17.135" fill="black"/>
<path d="M152.633 17.133H142.93C142.728 17.133 142.563 16.9698 142.563 16.7658V3.55885C142.563 3.35689 142.726 3.19165 142.93 3.19165H152.633C152.835 3.19165 153 3.35485 153 3.55885V5.37445C153 5.57641 152.835 5.74165 152.633 5.74165H145.172V8.94852H152.353C152.555 8.94852 152.72 9.11172 152.72 9.31572V11.0314C152.72 11.2333 152.557 11.3986 152.353 11.3986H145.172V14.5442H152.633C152.835 14.5442 153 14.7074 153 14.9114V16.7678C153 16.9698 152.835 17.135 152.633 17.135" fill="black"/>
<path d="M58.7346 12.5736V3.55885C58.7346 3.35689 58.8978 3.19165 59.1018 3.19165H60.9969C61.1989 3.19165 61.3641 3.35485 61.3641 3.55885V16.7658C61.3641 16.9677 61.2009 17.133 60.9969 17.133H59.4098C59.2976 17.133 59.1936 17.082 59.1242 16.9963L51.8251 7.85304V16.7678C51.8251 16.9698 51.6619 17.135 51.4579 17.135H49.5628C49.3608 17.135 49.1956 16.9718 49.1956 16.7678V3.55885C49.1956 3.35689 49.3588 3.19165 49.5628 3.19165H51.1499C51.2621 3.19165 51.3682 3.24265 51.4375 3.33037L58.7366 12.5716L58.7346 12.5736Z" fill="black"/>
<path d="M67.5873 5.58253H63.5317C63.3298 5.58253 63.1646 5.41933 63.1646 5.21533V3.55885C63.1646 3.35689 63.3298 3.19165 63.5317 3.19165H74.2703C74.4722 3.19165 74.6375 3.35485 74.6375 3.55885V5.21533C74.6375 5.41729 74.4743 5.58253 74.2703 5.58253H70.2148V16.7678C70.2148 16.9698 70.0516 17.135 69.8476 17.135H67.9524C67.7505 17.135 67.5852 16.9718 67.5852 16.7678V5.58253H67.5873Z" fill="black"/>
<path d="M89.4789 6.40811C89.3218 6.48971 89.1341 6.44279 89.0239 6.30815C88.4466 5.60843 87.2491 5.00051 85.8926 5.00051C83.9403 5.00051 83.006 5.81651 83.006 6.85283C83.006 8.06866 84.4401 8.40526 86.1129 8.60518C89.0199 8.96422 91.729 9.72106 91.729 13.0463C91.729 16.1532 88.9811 17.4873 85.8742 17.4873C83.1528 17.4873 81.0312 16.6876 79.9439 14.3906C79.8582 14.2111 79.9296 13.9949 80.1051 13.9031L81.6534 13.1013C81.8309 13.0095 82.0472 13.0789 82.143 13.2543C82.8468 14.5579 84.3462 15.1372 85.913 15.1372C87.5653 15.1372 89.1198 14.5599 89.1198 13.0463C89.1198 11.7325 87.7469 11.1939 85.8926 10.994C83.0447 10.6554 80.4152 9.89854 80.4152 6.77123C80.4152 3.90299 83.2426 2.72795 85.813 2.70959C87.8632 2.70959 89.9827 3.26039 91.1007 5.13107C91.2108 5.31467 91.1435 5.55335 90.9538 5.64923L89.4789 6.40811Z" fill="black"/>
<path d="M105.499 15.1075C105.65 15.2605 105.635 15.5053 105.474 15.6461C104.085 16.8742 102.345 17.4474 100.466 17.4474C95.2884 17.4474 93.0974 13.8835 93.077 10.2585C93.0566 6.61299 95.4271 2.9104 100.466 2.9104C102.23 2.9104 103.909 3.53464 105.29 4.7668C105.452 4.91164 105.462 5.15848 105.307 5.30944L104.077 6.49671C103.944 6.62523 103.734 6.63543 103.591 6.51711C102.706 5.77047 101.578 5.41959 100.466 5.41959C97.0999 5.41959 95.6454 7.92879 95.6658 10.2585C95.6862 12.5677 97.0203 14.979 100.466 14.979C101.576 14.979 102.82 14.5629 103.726 13.7897C103.871 13.6673 104.085 13.6795 104.217 13.8142L105.497 15.1075H105.499Z" fill="black"/>
<path d="M124.303 17.523C120.294 21.5317 113.795 21.5317 109.786 17.523C105.778 13.5145 105.778 7.01503 109.786 3.00644C113.795 -1.00215 120.294 -1.00215 124.303 3.00644C128.311 7.01503 128.311 13.5145 124.303 17.523ZM123.364 5.68291L124.011 5.03623C124.146 4.90159 124.154 4.68943 124.034 4.54051C123.846 4.31203 123.648 4.08764 123.434 3.87548C123.22 3.66128 122.997 3.46136 122.769 3.27572C122.622 3.15536 122.408 3.16352 122.273 3.29816L121.626 3.94484C121.955 4.18352 122.269 4.44871 122.565 4.74451C122.861 5.04031 123.128 5.35447 123.366 5.68291L117.883 11.1664C117.432 11.6173 116.72 11.6438 116.237 11.2501C116.204 11.2235 116.173 11.195 116.143 11.1664C116.112 11.1358 116.086 11.1052 116.059 11.0726C115.665 10.5891 115.694 9.87714 116.143 9.4263L121.626 3.9428C118.45 1.63353 113.925 2.01705 111.196 5.09335C108.607 8.01055 108.599 12.4843 111.175 15.4117C114.182 18.8286 119.397 18.9531 122.565 15.785C125.317 13.033 125.584 8.73679 123.366 5.68291" fill="#60C4B0"/>
<path d="M141.069 16.5208L137.236 12.192C139.884 11.6534 140.761 9.72153 140.761 7.81006C140.761 5.40082 139.029 3.20987 135.743 3.18947C133.656 3.18947 131.567 3.17111 129.478 3.16907C129.276 3.16907 129.111 3.33431 129.111 3.53627V16.7636C129.111 16.9656 129.276 17.1308 129.478 17.1308H131.373C131.575 17.1308 131.74 16.9676 131.74 16.7636V12.4694H134.409L138.342 17.0023C138.411 17.0818 138.513 17.1288 138.619 17.1288H140.796C141.112 17.1288 141.279 16.7554 141.069 16.5188M131.738 10.0989V5.6395H135.741C137.393 5.6395 138.132 6.75538 138.132 7.86922C138.132 8.98305 137.414 10.0989 135.741 10.0989H131.738Z" fill="black"/>
<path d="M23.5291 16.6352L18.4883 3.42829C18.4332 3.28549 18.2986 3.19165 18.1456 3.19165H15.8363C15.6853 3.19165 15.5486 3.28549 15.4936 3.42829L10.4527 16.6352C10.3609 16.8759 10.5384 17.133 10.7954 17.133H12.8252C12.9762 17.133 13.1129 17.0391 13.168 16.8963L16.993 6.87792L20.8179 16.8963C20.873 17.0391 21.0077 17.133 21.1607 17.133H23.1905C23.4475 17.133 23.625 16.8759 23.5332 16.6352" fill="black"/>
</svg>
